<?xml version="1.0" encoding="utf-8"?>
<!-- Generator: Adobe Illustrator 22.1.0, SVG Export Plug-In . SVG Version: 6.00 Build 0)  -->
<svg version="1.1" id="Шар_1" xmlns="http://www.w3.org/2000/svg" xmlns:xlink="http://www.w3.org/1999/xlink" x="0px" y="0px"
	 viewBox="0 0 960 697.8" style="enable-background:new 0 0 960 697.8;" xml:space="preserve">
<style type="text/css">
	.st0{fill:url(#);}
	.st1{opacity:0.76;fill:#FFFFFF;enable-background:new    ;}
	.st2{fill:none;}
	.st3{fill:none;stroke:#CCCCCC;stroke-width:0.8;stroke-linecap:round;stroke-linejoin:round;}
	.st4{fill:#328DEF;stroke:#328DEF;stroke-width:4;stroke-linecap:round;stroke-linejoin:round;}
	.st5{fill:none;stroke:#CDD500;stroke-width:4;stroke-linecap:round;stroke-linejoin:round;}
	.st6{fill:none;stroke:#CCCCCC;stroke-width:0.8;stroke-linecap:square;}
	.st7{fill:#262626;}
	.st8{fill:#878787;}
	.st9{clip-path:url(#SVGID_9_);fill:#328DEF;stroke:#328DEF;stroke-width:4;stroke-linecap:round;stroke-linejoin:round;}
	.st10{clip-path:url(#SVGID_11_);fill:none;stroke:#CDD500;stroke-width:4;stroke-linecap:round;stroke-linejoin:round;}
	.st11{clip-path:url(#SVGID_13_);fill:#328DEF;stroke:#328DEF;stroke-width:4;stroke-linecap:round;stroke-linejoin:round;}
	.st12{clip-path:url(#SVGID_15_);fill:none;stroke:#CDD500;stroke-width:4;stroke-linecap:round;stroke-linejoin:round;}
	.st13{clip-path:url(#SVGID_17_);fill:none;stroke:#CDD500;stroke-width:4;stroke-linecap:round;stroke-linejoin:round;}
	.st14{clip-path:url(#SVGID_19_);fill:#328DEF;stroke:#328DEF;stroke-width:4;stroke-linecap:round;stroke-linejoin:round;}
	.st15{clip-path:url(#SVGID_21_);fill:none;stroke:#CDD500;stroke-width:4;stroke-linecap:round;stroke-linejoin:round;}
	.st16{enable-background:new    ;}
	.st17{fill:#A9B10A;}
	.st18{fill:#328DEF;}
	.st19{clip-path:url(#SVGID_43_);fill:#328DEF;stroke:#328DEF;stroke-width:4;stroke-linecap:round;stroke-linejoin:round;}
	.st20{clip-path:url(#SVGID_45_);fill:none;stroke:#CDD500;stroke-width:4;stroke-linecap:round;stroke-linejoin:round;}
	.st21{fill:#3A3F4A;}
	.st22{fill:#6D6E70;}
	.st23{clip-path:url(#SVGID_47_);fill:none;stroke:#CCCCCC;stroke-width:0.8;stroke-linecap:round;stroke-linejoin:round;}
	.st24{clip-path:url(#SVGID_49_);fill:none;stroke:#CCCCCC;stroke-width:0.8;stroke-linecap:round;stroke-linejoin:round;}
	.st25{clip-path:url(#SVGID_51_);fill:none;stroke:#CCCCCC;stroke-width:0.8;stroke-linecap:round;stroke-linejoin:round;}
	.st26{clip-path:url(#SVGID_53_);fill:none;stroke:#CCCCCC;stroke-width:0.8;stroke-linecap:round;stroke-linejoin:round;}
	.st27{clip-path:url(#SVGID_55_);fill:none;stroke:#CCCCCC;stroke-width:0.8;stroke-linecap:round;stroke-linejoin:round;}
	.st28{clip-path:url(#SVGID_57_);fill:none;stroke:#CCCCCC;stroke-width:0.8;stroke-linecap:round;stroke-linejoin:round;}
	.st29{fill:none;stroke:#424242;stroke-width:4.05;stroke-linecap:round;stroke-linejoin:round;}
	.st30{fill:none;stroke:#CCCCCC;stroke-width:1.875;stroke-linecap:square;}
	.st31{font-family:'ClearSans';}
	.st32{font-size:17px;}
	.st33{fill:#F45150;}
	.st34{font-family:'OpenSans-Regular';}
	.st35{font-size:14px;}
	.st36{fill:#EAC700;}
	.st37{font-family:'ClearSans-Bold';}
	.st38{font-size:32px;}
	.st39{letter-spacing:1.1;}
	.st40{fill:none;stroke:#F45150;stroke-miterlimit:10;}
	.st41{fill:none;stroke:#878787;stroke-width:0.5;stroke-miterlimit:10;}
	.st42{fill:none;stroke:#328DEF;stroke-miterlimit:10;}
	.st43{fill:none;stroke:#FBD634;stroke-miterlimit:10;}
	.st44{font-family:'ClearSans-Italic';}
	.st45{font-size:15px;}
	.st46{font-size:18px;}
	.st47{fill:none;stroke:#878787;stroke-width:0.7;stroke-miterlimit:10;stroke-dasharray:3.0084,3.0084;}
	.st48{fill:none;stroke:#878787;stroke-width:0.7;stroke-miterlimit:10;stroke-dasharray:2.9961,2.9961;}
	.st49{fill:#FBD634;}
	.st50{fill:none;stroke:#FBD634;stroke-width:7;}
	.st51{fill:none;stroke:#328DEF;stroke-width:7;}
	.st52{fill:none;stroke:#F45150;stroke-width:7;}
	.st53{fill:#FFFFFF;}
	.st54{font-size:12px;}
	.st55{stroke:#000000;stroke-width:0.8;stroke-linejoin:round;}
	.st56{fill:none;stroke:#424242;stroke-width:2.7;stroke-linecap:square;stroke-linejoin:round;}
	.st57{fill:none;stroke:#000000;stroke-width:0.8;stroke-linecap:square;}
	.st58{fill:none;stroke:#878787;stroke-miterlimit:10;stroke-dasharray:3.0084,3.0084;}
</style>
<g id="Шар_1_4_">
	<g id="patch_46">
	</g>
	<text transform="matrix(0.9437 0 0 1 117.2924 187.1724)" class="st8 st31 st32">Продажі, торгівля</text>
	<text transform="matrix(0.9437 0 0 1 93.3031 217.8555)" class="st8 st31 st32">Інженери, технологи</text>
	<text transform="matrix(0.9437 0 0 1 52.0658 250.999)" class="st8 st31 st32">Робочі, персонал для дому</text>
	<text transform="matrix(0.9437 0 0 1 32.2797 282.1362)" class="st8 st31 st32">Логістика, транспорт, зв’язок</text>
	<text transform="matrix(0.9437 0 0 1 232.1103 347.3853)" class="st8 st31 st32">IT</text>
	<text transform="matrix(0.9437 0 0 1 63.6962 412.6572)" class="st8 st31 st32">Будівництво, архітектура</text>
	<text transform="matrix(0.9437 0 0 1 105.6 314.7822)" class="st8 st31 st32">Фінанси, економіка</text>
	<text transform="matrix(0.9437 0 0 1 95.8153 444.9424)" class="st8 st31 st32">Медицина, фармація</text>
	<text transform="matrix(0.9437 0 0 1 167.2856 477.8486)" class="st8 st31 st32">Автосервіс</text>
	<text transform="matrix(0.9437 0 0 1 105.3197 510.752)" class="st8 st31 st32">Агробізнес, лісгосп</text>
	<text transform="matrix(0.9437 0 0 1 150.8261 543.0674)" class="st8 st31 st32">Наука, освіта</text>
	<text transform="matrix(0.9437 0 0 1 117.5644 575.6543)" class="st8 st31 st32">Охорона, безпека</text>
	<text transform="matrix(0.9437 0 0 1 102.3485 380.2822)" class="st8 st31 st32">Медіа, видавництва</text>
	<text transform="matrix(0.9437 0 0 1 115.87 608.0928)" class="st8 st31 st32">Державна служба</text>
	<text transform="matrix(0.9437 0 0 1 266.7097 145.2603)" class="st33 st34 st35">rabota.ua</text>
	<text transform="matrix(0.9437 0 0 1 506.3658 145.26)" class="st18 st34 st35">work.ua</text>
	<text transform="matrix(0.9437 0 0 1 641.6883 145.2597)" class="st36 st34 st35">Держслужба зайнятості</text>
	<text transform="matrix(0.9437 0 0 1 38.4086 58.8595)" class="st8 st37 st38 st39">КІЛЬКІСТЬ ВАКАНСІЙ ЗА ГАЛУЗЯМИ</text>
	<g>
		<text transform="matrix(0.9437 0 0 1 36.8743 663.9603)" class="st8 st31 st35">Дані: </text>
		<text transform="matrix(1 0 0 1 70.5423 663.9603)" class="st8 st31 st35">Державна служба зайнятості</text>
		<text transform="matrix(0.9437 0 0 1 258.1956 663.9603)" class="st8 st31 st35">,  work.ua, rabota.ua за вересень 2018 </text>
	</g>
	<path class="st40" d="M280.3,185.7c0,0-18.7-18,0-31.3"/>
	<path class="st41" d="M900.4,252.9c0,0,18.7,18,0,31.3"/>
	<path class="st42" d="M520.1,176.6c0,0-18.7-8.9,0-22.2"/>
	<path class="st43" d="M686.7,176.6c0.4,2.8-17.9-3.9,0-22.2"/>
	<rect x="365.9" y="209.9" class="st2" width="118.5" height="205"/>
	<text transform="matrix(0.9437 0 0 1 365.9276 220.7529)" class="st8 st44 st45">На приватних </text>
	<text transform="matrix(0.9437 0 0 1 365.9276 238.7529)" class="st8 st44 st45">сайтах частіше </text>
	<text transform="matrix(0.9437 0 0 1 365.9276 256.7529)" class="st8 st44 st45">шукають </text>
	<text transform="matrix(0.9437 0 0 1 365.9276 274.7529)" class="st8 st44 st45">«продажників» </text>
	<text transform="matrix(0.9437 0 0 1 365.9276 292.7529)" class="st8 st44 st45">та фахівців </text>
	<text transform="matrix(0.9437 0 0 1 365.9276 310.7529)" class="st8 st44 st45">інтелектуальної </text>
	<text transform="matrix(0.9437 0 0 1 365.9276 328.7529)" class="st8 st44 st45">праці.</text>
	<rect x="715.1" y="435.6" class="st2" width="178.3" height="142"/>
	<text transform="matrix(0.9437 0 0 1 715.0941 446.4199)" class="st8 st44 st45">Приватні сайти та </text>
	<text transform="matrix(0.9437 0 0 1 715.0941 464.4199)" class="st8 st44 st45">державна служба </text>
	<text transform="matrix(0.9437 0 0 1 715.0941 482.4199)" class="st8 st44 st45">зайнятості майже </text>
	<text transform="matrix(0.9437 0 0 1 715.0941 500.4199)" class="st8 st44 st45">однаково володіють </text>
	<text transform="matrix(0.9437 0 0 1 715.0941 518.4199)" class="st8 st44 st45">ситуацією про вакансії в </text>
	<text transform="matrix(0.9437 0 0 1 715.0941 536.4199)" class="st8 st44 st45">освіті, медицині, безпеці </text>
	<text transform="matrix(0.9437 0 0 1 715.0941 554.4199)" class="st8 st44 st45">та будівництві.</text>
	<rect x="791.1" y="288.9" class="st2" width="159.3" height="129"/>
	<text transform="matrix(0.9437 0 0 1 791.0941 299.7539)" class="st8 st44 st45">Через Державну </text>
	<text transform="matrix(0.9437 0 0 1 791.0941 317.7539)" class="st8 st44 st45">службу зайнятості </text>
	<text transform="matrix(0.9437 0 0 1 791.0941 335.7539)" class="st8 st44 st45">активніше шукають </text>
	<text transform="matrix(0.9437 0 0 1 791.0941 353.7539)" class="st8 st44 st45">робітників та </text>
	<text transform="matrix(0.9437 0 0 1 791.0941 371.7539)" class="st8 st44 st45">держслужбовців.</text>
	<rect x="258.6" y="58.9" class="st2" width="663.8" height="129"/>
	<text transform="matrix(0.9437 0 0 1 39.4698 87.7533)" class="st16"><tspan x="0" y="0" class="st8 st31 st46">Порівняння даних Державної служби зайнятості та популярних сайтів для оголошень</tspan><tspan x="712.5" y="0" class="st8 st31 st45"> </tspan></text>
	<text transform="matrix(0.9437 0 0 1 38.4084 109.6378)" class="st8 st31 st46">про роботу показує, через які ресурси роботодавці активніше шукають працівників</text>
	<g>
		<path class="st47" d="M693.4,583.9h-430c-5.5,0-10-4.5-10-10v-38c0-5.5,4.5-10,10-10h430c5.5,0,10,4.5,10,10v38
			C703.4,579.4,698.9,583.9,693.4,583.9z"/>
	</g>
	<g>
		<path class="st48" d="M693.4,453.5h-430c-5.5,0-10-4.5-10-10v-6c0-5.5,4.5-10,10-10h430c5.5,0,10,4.5,10,10v6
			C703.4,449,698.9,453.5,693.4,453.5z"/>
	</g>
</g>
<g id="derzh">
	<g>
		<path class="st49" d="M673.4,181.5c0-2.7,2.3-4.9,5-4.9h15c2.8,0,5,2.2,5,4.9s-2.3,4.9-5,4.9h-15
			C675.7,186.4,673.4,184.2,673.4,181.5z"/>
		<path class="st50" d="M673.4,181.5c0-2.7,2.3-4.9,5-4.9h15c2.8,0,5,2.2,5,4.9s-2.3,4.9-5,4.9h-15
			C675.7,186.4,673.4,184.2,673.4,181.5z"/>
	</g>
	<g>
		<path class="st49" d="M673.4,212.2c0-2.7,2.3-4.9,5-4.9h2.1c2.8,0,5,2.2,5,4.9s-2.3,4.9-5,4.9h-2.1
			C675.7,217,673.4,214.9,673.4,212.2z"/>
		<path class="st50" d="M673.4,212.2c0-2.7,2.3-4.9,5-4.9h2.1c2.8,0,5,2.2,5,4.9s-2.3,4.9-5,4.9h-2.1
			C675.7,217,673.4,214.9,673.4,212.2z"/>
	</g>
	<g>
		<path class="st49" d="M673.4,245.3c0-2.7,2.3-4.9,5-4.9h235.7c2.8,0,5,2.2,5,4.9s-2.3,4.9-5,4.9H678.4
			C675.7,250.2,673.4,248,673.4,245.3z"/>
		<path class="st50" d="M673.4,245.3c0-2.7,2.3-4.9,5-4.9h235.7c2.8,0,5,2.2,5,4.9s-2.3,4.9-5,4.9H678.4
			C675.7,250.2,673.4,248,673.4,245.3z"/>
	</g>
	<g>
		<path class="st49" d="M673.4,276.5c0-2.7,2.3-4.9,5-4.9h36.9c2.8,0,5,2.2,5,4.9s-2.3,4.9-5,4.9h-36.9
			C675.7,281.3,673.4,279.1,673.4,276.5z"/>
		<path class="st50" d="M673.4,276.5c0-2.7,2.3-4.9,5-4.9h36.9c2.8,0,5,2.2,5,4.9s-2.3,4.9-5,4.9h-36.9
			C675.7,281.3,673.4,279.1,673.4,276.5z"/>
	</g>
	<g>
		<ellipse class="st49" cx="674.6" cy="341.7" rx="1.2" ry="4.9"/>
		<ellipse class="st50" cx="674.6" cy="341.7" rx="1.2" ry="4.9"/>
	</g>
	<g>
		<path class="st49" d="M673.4,407c0-2.7,2.3-4.9,5-4.9h22c2.8,0,5,2.2,5,4.9s-2.3,4.9-5,4.9h-22C675.7,411.8,673.4,409.7,673.4,407
			z"/>
		<path class="st50" d="M673.4,407c0-2.7,2.3-4.9,5-4.9h22c2.8,0,5,2.2,5,4.9s-2.3,4.9-5,4.9h-22C675.7,411.8,673.4,409.7,673.4,407
			z"/>
	</g>
	<g>
		<path class="st49" d="M673.4,309.1c0-2.7,2.3-4.9,5-4.9h5.9c2.8,0,5,2.2,5,4.9s-2.3,4.9-5,4.9h-5.9
			C675.7,314,673.4,311.8,673.4,309.1z"/>
		<path class="st50" d="M673.4,309.1c0-2.7,2.3-4.9,5-4.9h5.9c2.8,0,5,2.2,5,4.9s-2.3,4.9-5,4.9h-5.9
			C675.7,314,673.4,311.8,673.4,309.1z"/>
	</g>
	<g>
		<path class="st49" d="M673.4,439.3c0-2.7,2.3-4.9,5-4.9h13.9c2.8,0,5,2.2,5,4.9s-2.3,4.9-5,4.9h-13.9
			C675.7,444.1,673.4,441.9,673.4,439.3z"/>
		<path class="st50" d="M673.4,439.3c0-2.7,2.3-4.9,5-4.9h13.9c2.8,0,5,2.2,5,4.9s-2.3,4.9-5,4.9h-13.9
			C675.7,444.1,673.4,441.9,673.4,439.3z"/>
	</g>
	<g>
		<ellipse class="st49" cx="677" cy="472.2" rx="3.6" ry="4.9"/>
		<ellipse class="st50" cx="677" cy="472.2" rx="3.6" ry="4.9"/>
	</g>
	<g>
		<path class="st49" d="M673.4,505.1c0-2.7,2.3-4.9,5-4.9h1.7c2.8,0,5,2.2,5,4.9s-2.3,4.9-5,4.9h-1.7
			C675.7,509.9,673.4,507.7,673.4,505.1z"/>
		<path class="st50" d="M673.4,505.1c0-2.7,2.3-4.9,5-4.9h1.7c2.8,0,5,2.2,5,4.9s-2.3,4.9-5,4.9h-1.7
			C675.7,509.9,673.4,507.7,673.4,505.1z"/>
	</g>
	<g>
		<path class="st49" d="M673.4,537.4c0-2.7,2.3-4.9,5-4.9h13c2.8,0,5,2.2,5,4.9s-2.3,4.9-5,4.9h-13
			C675.7,542.2,673.4,540.1,673.4,537.4z"/>
		<path class="st50" d="M673.4,537.4c0-2.7,2.3-4.9,5-4.9h13c2.8,0,5,2.2,5,4.9s-2.3,4.9-5,4.9h-13
			C675.7,542.2,673.4,540.1,673.4,537.4z"/>
	</g>
	<g>
		<path class="st49" d="M673.4,570c0-2.7,2.3-4.9,5-4.9h1c2.8,0,5,2.2,5,4.9s-2.3,4.9-5,4.9h-1C675.7,574.8,673.4,572.7,673.4,570z"
			/>
		<path class="st50" d="M673.4,570c0-2.7,2.3-4.9,5-4.9h1c2.8,0,5,2.2,5,4.9s-2.3,4.9-5,4.9h-1C675.7,574.8,673.4,572.7,673.4,570z"
			/>
	</g>
	<g>
		<ellipse class="st49" cx="674.2" cy="374.6" rx="0.7" ry="4.9"/>
		<ellipse class="st50" cx="674.2" cy="374.6" rx="0.7" ry="4.9"/>
	</g>
	<g>
		<ellipse class="st49" cx="677.3" cy="602.4" rx="4.4" ry="3.6"/>
		<ellipse class="st50" cx="677.3" cy="602.4" rx="4.4" ry="3.6"/>
	</g>
</g>
<g id="work">
	<g>
		<path class="st18" d="M499.7,181.5c0-2.7,2.3-4.9,5-4.9h153c2.8,0,5,2.2,5,4.9s-2.3,4.9-5,4.9h-153
			C501.9,186.4,499.7,184.2,499.7,181.5z"/>
		<path class="st51" d="M499.7,181.5c0-2.7,2.3-4.9,5-4.9h153c2.8,0,5,2.2,5,4.9s-2.3,4.9-5,4.9h-153
			C501.9,186.4,499.7,184.2,499.7,181.5z"/>
	</g>
	<g>
		<path class="st18" d="M499.7,245.3c0-2.7,2.3-4.9,5-4.9h109.8c2.8,0,5,2.2,5,4.9s-2.3,4.9-5,4.9H504.7
			C501.9,250.2,499.7,248,499.7,245.3z"/>
		<path class="st51" d="M499.7,245.3c0-2.7,2.3-4.9,5-4.9h109.8c2.8,0,5,2.2,5,4.9s-2.3,4.9-5,4.9H504.7
			C501.9,250.2,499.7,248,499.7,245.3z"/>
	</g>
	<g>
		<path class="st18" d="M499.7,276.5c0-2.7,2.3-4.9,5-4.9h56.6c2.8,0,5,2.2,5,4.9s-2.3,4.9-5,4.9h-56.6
			C501.9,281.3,499.7,279.1,499.7,276.5z"/>
		<path class="st51" d="M499.7,276.5c0-2.7,2.3-4.9,5-4.9h56.6c2.8,0,5,2.2,5,4.9s-2.3,4.9-5,4.9h-56.6
			C501.9,281.3,499.7,279.1,499.7,276.5z"/>
	</g>
	<g>
		<path class="st18" d="M499.7,341.7c0-2.7,2.3-4.9,5-4.9h41.2c2.8,0,5,2.2,5,4.9s-2.3,4.9-5,4.9h-41.2
			C501.9,346.6,499.7,344.4,499.7,341.7z"/>
		<path class="st51" d="M499.7,341.7c0-2.7,2.3-4.9,5-4.9h41.2c2.8,0,5,2.2,5,4.9s-2.3,4.9-5,4.9h-41.2
			C501.9,346.6,499.7,344.4,499.7,341.7z"/>
	</g>
	<g>
		<path class="st18" d="M499.7,309.1c0-2.7,2.3-4.9,5-4.9h59.9c2.8,0,5,2.2,5,4.9s-2.3,4.9-5,4.9h-59.9
			C501.9,314,499.7,311.8,499.7,309.1z"/>
		<path class="st51" d="M499.7,309.1c0-2.7,2.3-4.9,5-4.9h59.9c2.8,0,5,2.2,5,4.9s-2.3,4.9-5,4.9h-59.9
			C501.9,314,499.7,311.8,499.7,309.1z"/>
	</g>
	<g>
		<path class="st18" d="M499.7,439.3c0-2.7,2.3-4.9,5-4.9h10.7c2.8,0,5,2.2,5,4.9s-2.3,4.9-5,4.9h-10.7
			C501.9,444.1,499.7,441.9,499.7,439.3z"/>
		<path class="st51" d="M499.7,439.3c0-2.7,2.3-4.9,5-4.9h10.7c2.8,0,5,2.2,5,4.9s-2.3,4.9-5,4.9h-10.7
			C501.9,444.1,499.7,441.9,499.7,439.3z"/>
	</g>
	<g>
		<path class="st18" d="M499.7,472.2c0-2.7,2.3-4.9,5-4.9h36.4c2.8,0,5,2.2,5,4.9c0,2.7-2.3,4.9-5,4.9h-36.4
			C501.9,477,499.7,474.8,499.7,472.2z"/>
		<path class="st51" d="M499.7,472.2c0-2.7,2.3-4.9,5-4.9h36.4c2.8,0,5,2.2,5,4.9c0,2.7-2.3,4.9-5,4.9h-36.4
			C501.9,477,499.7,474.8,499.7,472.2z"/>
	</g>
	<g>
		<ellipse class="st18" cx="504.2" cy="505.1" rx="3.6" ry="4.9"/>
		<ellipse class="st51" cx="504.2" cy="505.1" rx="3.6" ry="4.9"/>
	</g>
	<g>
		<path class="st18" d="M499.7,537.4c0-2.7,2.3-4.9,5-4.9h9.9c2.8,0,5,2.2,5,4.9s-2.3,4.9-5,4.9h-9.9
			C501.9,542.2,499.7,540.1,499.7,537.4z"/>
		<path class="st51" d="M499.7,537.4c0-2.7,2.3-4.9,5-4.9h9.9c2.8,0,5,2.2,5,4.9s-2.3,4.9-5,4.9h-9.9
			C501.9,542.2,499.7,540.1,499.7,537.4z"/>
	</g>
	<g>
		<path class="st18" d="M500.7,570c0-2.6,2.3-4.8,5-4.8h1c2.8,0,5,2.2,5,4.8s-2.3,4.8-5,4.8h-1C502.9,574.8,500.7,572.6,500.7,570z"
			/>
		<path class="st51" d="M500.7,570c0-2.6,2.3-4.8,5-4.8h1c2.8,0,5,2.2,5,4.8s-2.3,4.8-5,4.8h-1C502.9,574.8,500.7,572.6,500.7,570z"
			/>
	</g>
	<g>
		<path class="st18" d="M500.2,374.6c0-2.7,2.3-4.9,5-4.9h35.7c2.8,0,5,2.2,5,4.9s-2.3,4.9-5,4.9h-35.7
			C502.4,379.5,500.2,377.3,500.2,374.6z"/>
		<path class="st51" d="M500.2,374.6c0-2.7,2.3-4.9,5-4.9h35.7c2.8,0,5,2.2,5,4.9s-2.3,4.9-5,4.9h-35.7
			C502.4,379.5,500.2,377.3,500.2,374.6z"/>
	</g>
	<g>
		<path class="st18" d="M500.2,407c0-2.7,2.3-4.9,5-4.9h33.3c2.8,0,5,2.2,5,4.9s-2.3,4.9-5,4.9h-33.3
			C502.4,411.8,500.2,409.7,500.2,407z"/>
		<path class="st51" d="M500.2,407c0-2.7,2.3-4.9,5-4.9h33.3c2.8,0,5,2.2,5,4.9s-2.3,4.9-5,4.9h-33.3
			C502.4,411.8,500.2,409.7,500.2,407z"/>
	</g>
	<g>
		<line class="st30" x1="500.7" y1="212.2" x2="529.7" y2="212.2"/>
	</g>
	<line class="st30" x1="499.7" y1="602.4" x2="528.7" y2="602.4"/>
</g>
<g id="rabota">
	<g>
		<path class="st33" d="M261.3,181.5c0-2.7,2.3-4.9,5-4.9h217.5c2.8,0,5,2.2,5,4.9s-2.3,4.9-5,4.9H266.3
			C263.5,186.4,261.3,184.2,261.3,181.5z"/>
		<path class="st52" d="M261.3,181.5c0-2.7,2.3-4.9,5-4.9h217.5c2.8,0,5,2.2,5,4.9s-2.3,4.9-5,4.9H266.3
			C263.5,186.4,261.3,184.2,261.3,181.5z"/>
	</g>
	<g>
		<path class="st33" d="M261.3,212.2c0-2.7,2.3-4.9,5-4.9H343c2.8,0,5,2.2,5,4.9s-2.3,4.9-5,4.9h-76.7
			C263.5,217,261.3,214.9,261.3,212.2z"/>
		<path class="st52" d="M261.3,212.2c0-2.7,2.3-4.9,5-4.9H343c2.8,0,5,2.2,5,4.9s-2.3,4.9-5,4.9h-76.7
			C263.5,217,261.3,214.9,261.3,212.2z"/>
	</g>
	<g>
		<path class="st33" d="M261.3,245.3c0-2.7,2.3-4.9,5-4.9h70.6c2.8,0,5,2.2,5,4.9c0,2.7-2.3,4.9-5,4.9h-70.6
			C263.5,250.2,261.3,248,261.3,245.3z"/>
		<path class="st52" d="M261.3,245.3c0-2.7,2.3-4.9,5-4.9h70.6c2.8,0,5,2.2,5,4.9c0,2.7-2.3,4.9-5,4.9h-70.6
			C263.5,250.2,261.3,248,261.3,245.3z"/>
	</g>
	<g>
		<path class="st33" d="M261.3,276.5c0-2.7,2.3-4.9,5-4.9h70.6c2.8,0,5,2.2,5,4.9c0,2.7-2.3,4.9-5,4.9h-70.6
			C263.5,281.3,261.3,279.1,261.3,276.5z"/>
		<path class="st52" d="M261.3,276.5c0-2.7,2.3-4.9,5-4.9h70.6c2.8,0,5,2.2,5,4.9c0,2.7-2.3,4.9-5,4.9h-70.6
			C263.5,281.3,261.3,279.1,261.3,276.5z"/>
	</g>
	<g>
		<path class="st33" d="M261.3,341.7c0-2.7,2.3-4.9,5-4.9h46.5c2.8,0,5,2.2,5,4.9s-2.3,4.9-5,4.9h-46.5
			C263.5,346.6,261.3,344.4,261.3,341.7z"/>
		<path class="st52" d="M261.3,341.7c0-2.7,2.3-4.9,5-4.9h46.5c2.8,0,5,2.2,5,4.9s-2.3,4.9-5,4.9h-46.5
			C263.5,346.6,261.3,344.4,261.3,341.7z"/>
	</g>
	<g>
		<path class="st33" d="M261.3,309.1c0-2.6,2.3-4.8,5-4.8h52.3c2.8,0,5,2.2,5,4.8c0,2.6-2.3,4.8-5,4.8h-52.3
			C263.5,313.9,261.3,311.8,261.3,309.1z"/>
		<path class="st52" d="M261.3,309.1c0-2.6,2.3-4.8,5-4.8h52.3c2.8,0,5,2.2,5,4.8c0,2.6-2.3,4.8-5,4.8h-52.3
			C263.5,313.9,261.3,311.8,261.3,309.1z"/>
	</g>
	<g>
		<path class="st33" d="M261.3,439.3c0-2.7,2.3-4.9,5-4.9H281c2.8,0,5,2.2,5,4.9s-2.3,4.9-5,4.9h-14.8
			C263.5,444.1,261.3,441.9,261.3,439.3z"/>
		<path class="st52" d="M261.3,439.3c0-2.7,2.3-4.9,5-4.9H281c2.8,0,5,2.2,5,4.9s-2.3,4.9-5,4.9h-14.8
			C263.5,444.1,261.3,441.9,261.3,439.3z"/>
	</g>
	<g>
		<path class="st33" d="M261.3,472.2c0-2.7,2.3-4.9,5-4.9h9.4c2.8,0,5,2.2,5,4.9c0,2.7-2.3,4.9-5,4.9h-9.4
			C263.5,477,261.3,474.8,261.3,472.2z"/>
		<path class="st52" d="M261.3,472.2c0-2.7,2.3-4.9,5-4.9h9.4c2.8,0,5,2.2,5,4.9c0,2.7-2.3,4.9-5,4.9h-9.4
			C263.5,477,261.3,474.8,261.3,472.2z"/>
	</g>
	<g>
		<path class="st33" d="M261.3,505.1c0-2.7,2.3-4.9,5-4.9h5.9c2.8,0,5,2.2,5,4.9s-2.3,4.9-5,4.9h-5.9
			C263.5,509.9,261.3,507.7,261.3,505.1z"/>
		<path class="st52" d="M261.3,505.1c0-2.7,2.3-4.9,5-4.9h5.9c2.8,0,5,2.2,5,4.9s-2.3,4.9-5,4.9h-5.9
			C263.5,509.9,261.3,507.7,261.3,505.1z"/>
	</g>
	<g>
		<path class="st33" d="M261.3,537.4c0-2.6,2.3-4.8,5-4.8h4.6c2.8,0,5,2.2,5,4.8s-2.3,4.8-5,4.8h-4.6
			C263.5,542.2,261.3,540,261.3,537.4z"/>
		<path class="st52" d="M261.3,537.4c0-2.6,2.3-4.8,5-4.8h4.6c2.8,0,5,2.2,5,4.8s-2.3,4.8-5,4.8h-4.6
			C263.5,542.2,261.3,540,261.3,537.4z"/>
	</g>
	<g>
		<path class="st33" d="M261.3,570c0-2.7,2.3-4.9,5-4.9h1.7c2.8,0,5,2.2,5,4.9s-2.3,4.9-5,4.9h-1.7
			C263.5,574.8,261.3,572.7,261.3,570z"/>
		<path class="st52" d="M261.3,570c0-2.7,2.3-4.9,5-4.9h1.7c2.8,0,5,2.2,5,4.9s-2.3,4.9-5,4.9h-1.7
			C263.5,574.8,261.3,572.7,261.3,570z"/>
	</g>
	<g>
		<path class="st33" d="M261.3,374.6c0-2.7,2.3-4.9,5-4.9h36.2c2.8,0,5,2.2,5,4.9s-2.3,4.9-5,4.9h-36.2
			C263.5,379.5,261.3,377.3,261.3,374.6z"/>
		<path class="st52" d="M261.3,374.6c0-2.7,2.3-4.9,5-4.9h36.2c2.8,0,5,2.2,5,4.9s-2.3,4.9-5,4.9h-36.2
			C263.5,379.5,261.3,377.3,261.3,374.6z"/>
	</g>
	<g>
		<path class="st33" d="M261.3,407c0-2.7,2.3-4.9,5-4.9h30c2.8,0,5,2.2,5,4.9s-2.3,4.9-5,4.9h-30C263.5,411.8,261.3,409.7,261.3,407
			z"/>
		<path class="st52" d="M261.3,407c0-2.7,2.3-4.9,5-4.9h30c2.8,0,5,2.2,5,4.9s-2.3,4.9-5,4.9h-30C263.5,411.8,261.3,409.7,261.3,407
			z"/>
	</g>
	<g>
		<ellipse class="st33" cx="262.2" cy="602.4" rx="0.9" ry="4.9"/>
		<ellipse class="st52" cx="262.2" cy="602.4" rx="0.9" ry="4.9"/>
	</g>
	<text transform="matrix(0.9437 0 0 1 449.1542 185.6621)" class="st53 st31 st54">28 414</text>
	<text transform="matrix(0.9437 0 0 1 270.6449 605.583)" class="st33 st31 st54">229</text>
	<text transform="matrix(0.9437 0 0 1 515.3114 508.2412)" class="st18 st31 st54">890</text>
	<text transform="matrix(0.9437 0 0 1 681.3114 378.1025)" class="st36 st34 st54">180</text>
	<text transform="matrix(0.9437 0 0 1 623.995 185.6621)" class="st53 st31 st54">20 353</text>
	<text transform="matrix(0.9437 0 0 1 880.0741 249.4883)" class="st8 st31 st54">30 681</text>
	<g>
		<g>
			<polygon class="st21" points="811.5,652.7 807.9,652.7 807.9,662.9 805.5,662.9 805.5,652.7 801.9,652.7 801.9,650.6 
				811.5,650.6 			"/>
			<polygon class="st21" points="812.4,650.6 819.8,650.6 819.8,652.7 814.9,652.7 814.9,655.6 819.2,655.6 819.2,657.8 
				814.9,657.8 814.9,660.8 819.8,660.8 819.8,662.9 812.4,662.9 			"/>
			<polygon class="st21" points="824.1,656.7 820.7,650.6 823.6,650.6 825.5,654.2 825.9,655.4 826.4,654.2 828.3,650.6 831,650.6 
				827.4,656.5 831.2,662.9 828.3,662.9 826.1,659.1 825.6,657.8 825.2,659.1 823,662.9 820.4,662.9 			"/>
			<polygon class="st21" points="841.1,652.7 837.4,652.7 837.4,662.9 835,662.9 835,652.7 831.4,652.7 831.4,650.6 841.1,650.6 			
				"/>
			<polygon class="st21" points="845.8,658.3 841.7,650.6 844.6,650.6 846.8,655.2 847.1,656.5 847.2,656.5 847.4,655.2 
				849.6,650.6 852.2,650.6 848.2,658.3 848.2,662.9 845.8,662.9 			"/>
		</g>
		<path class="st22" d="M850.5,661.7c0-0.4,0.2-0.8,0.4-0.9c0.3-0.3,0.6-0.3,1-0.3c0.4,0,0.8,0.1,1,0.3c0.3,0.3,0.3,0.6,0.3,0.9
			c0,0.4-0.2,0.8-0.3,0.9c-0.3,0.3-0.6,0.3-1,0.3c-0.4,0-0.8-0.1-1-0.3C850.6,662.5,850.5,662.1,850.5,661.7"/>
		<path class="st22" d="M854.4,656.7c0-2.1,0.4-3.6,1.4-4.7c0.9-1.1,2.2-1.6,3.9-1.6c0.9,0,1.6,0.2,2.3,0.4c0.7,0.3,1.2,0.8,1.6,1.3
			c0.4,0.6,0.8,1.2,0.9,2.1c0.2,0.8,0.3,1.6,0.3,2.7c0,2.1-0.4,3.6-1.4,4.7c-0.9,1.1-2.2,1.6-3.9,1.6c-0.9,0-1.6-0.2-2.3-0.4
			c-0.7-0.3-1.2-0.8-1.6-1.3c-0.4-0.6-0.8-1.2-0.9-2.1C854.5,658.5,854.4,657.7,854.4,656.7 M856.9,656.7c0,0.6,0.1,1.2,0.2,1.7
			c0.1,0.5,0.3,0.9,0.5,1.4c0.3,0.3,0.5,0.7,0.9,0.9c0.3,0.2,0.8,0.3,1.2,0.3c0.9,0,1.5-0.3,2-1s0.7-1.7,0.7-3.3
			c0-0.6-0.1-1.1-0.2-1.7c-0.1-0.5-0.3-0.9-0.4-1.4c-0.2-0.4-0.5-0.7-0.9-0.9s-0.8-0.3-1.3-0.3c-0.9,0-1.5,0.3-2,1
			C857.2,654.2,856.9,655.3,856.9,656.7"/>
		<path class="st22" d="M866.2,650.7c0.3-0.1,0.6-0.1,0.9-0.2c0.3,0,0.6-0.1,0.9-0.1c0.3,0,0.6,0,0.9-0.1c0.3,0,0.6,0,0.8,0
			c0.6,0,1.1,0.1,1.7,0.2c0.5,0.1,1,0.3,1.5,0.5c0.4,0.3,0.8,0.6,1,1c0.3,0.4,0.4,1,0.4,1.7c0,1-0.3,1.8-0.7,2.5
			c-0.4,0.6-1.1,1.1-1.9,1.3l0.9,0.5l2.8,4.7h-2.7l-2.8-4.8l-1.3-0.3v5.1h-2.4V650.7z M869.9,652.5c-0.3,0-0.5,0-0.8,0
			c-0.3,0-0.4,0-0.5,0.1v3.6h1c0.7,0,1.2-0.2,1.6-0.4c0.4-0.3,0.6-0.8,0.6-1.5c0-0.5-0.2-0.9-0.5-1.3
			C871,652.7,870.6,652.5,869.9,652.5"/>
		<path class="st22" d="M880.3,656.5h4.6v5.5c-0.5,0.4-1.1,0.7-1.8,0.9s-1.4,0.3-2.1,0.3c-0.8,0-1.5-0.1-2.2-0.3s-1.3-0.6-1.7-1.1
			c-0.5-0.5-0.9-1.2-1.2-2c-0.3-0.8-0.4-1.8-0.4-2.9c0-1.2,0.2-2.1,0.5-3c0.3-0.9,0.8-1.5,1.3-2c0.5-0.5,1.1-0.9,1.8-1.1
			c0.7-0.3,1.4-0.3,2.1-0.3c0.7,0,1.3,0.1,1.9,0.2c0.5,0.1,0.9,0.3,1.3,0.3l-0.5,2.1c-0.3-0.1-0.6-0.2-0.9-0.3
			c-0.3-0.1-0.9-0.1-1.4-0.1c-0.5,0-0.9,0.1-1.4,0.3c-0.4,0.2-0.8,0.4-1.1,0.8c-0.3,0.3-0.5,0.8-0.7,1.3c-0.2,0.5-0.3,1.2-0.3,2
			c0,0.8,0.1,1.4,0.3,1.9s0.4,0.9,0.7,1.3s0.6,0.6,1,0.8c0.4,0.2,0.8,0.3,1.3,0.3c0.3,0,0.6,0,0.9-0.1c0.3-0.1,0.5-0.2,0.8-0.3v-2.3
			l-2.7-0.3L880.3,656.5L880.3,656.5z"/>
		<path class="st22" d="M886,661.7c0-0.4,0.2-0.8,0.4-0.9c0.3-0.3,0.6-0.3,1-0.3s0.8,0.1,1,0.3c0.3,0.3,0.4,0.6,0.4,0.9
			c0,0.4-0.2,0.8-0.4,0.9c-0.3,0.3-0.6,0.3-1,0.3s-0.8-0.1-1-0.3C886.1,662.5,886,662.1,886,661.7"/>
		<path class="st22" d="M896.9,650.6h2.3v8c0,0.8-0.1,1.5-0.3,2.1c-0.2,0.6-0.5,1-0.9,1.5c-0.3,0.3-0.9,0.7-1.4,0.9
			c-0.5,0.2-1.1,0.3-1.8,0.3c-3.1,0-4.7-1.5-4.7-4.3v-8.2h2.4v7.8c0,0.5,0.1,0.9,0.2,1.2c0.1,0.3,0.3,0.6,0.4,0.8
			c0.2,0.2,0.4,0.3,0.7,0.4c0.3,0.1,0.6,0.2,1,0.2c0.8,0,1.3-0.2,1.6-0.6s0.5-1.1,0.5-2L896.9,650.6L896.9,650.6z"/>
		<path class="st22" d="M906.6,660.2h-3.8l-0.9,2.7h-2.4l4.5-12.4h1.8l4.5,12.4h-2.6L906.6,660.2z M903.5,658.2h2.7l-0.9-2.7l-0.3-2
			h-0.1l-0.3,2L903.5,658.2z"/>
	</g>
</g>
</svg>
