<?xml version="1.0" encoding="utf-8"?>
<!-- Generator: Adobe Illustrator 22.1.0, SVG Export Plug-In . SVG Version: 6.00 Build 0)  -->
<svg version="1.1" id="Шар_1" xmlns="http://www.w3.org/2000/svg" xmlns:xlink="http://www.w3.org/1999/xlink" x="0px" y="0px"
	 viewBox="0 0 960 440" style="enable-background:new 0 0 960 440;" xml:space="preserve">
<style type="text/css">
	.st0{fill:none;}
	.st1{fill:none;stroke:#1D1D1B;stroke-width:0.3;}
	.st2{fill:url(#SVGID_14_);}
	.st3{fill:url(#SVGID_15_);}
	.st4{fill:url(#SVGID_16_);}
	.st5{fill:url(#SVGID_17_);}
	.st6{fill:url(#SVGID_18_);}
	.st7{fill:url(#SVGID_19_);}
	.st8{opacity:0.76;fill:#FFFFFF;enable-background:new    ;}
	.st9{fill:none;stroke:#CCCCCC;stroke-width:0.8;stroke-linecap:round;stroke-linejoin:round;}
	.st10{fill:#328DEF;stroke:#328DEF;stroke-width:4;stroke-linecap:round;stroke-linejoin:round;}
	.st11{fill:none;stroke:#CDD500;stroke-width:4;stroke-linecap:round;stroke-linejoin:round;}
	.st12{fill:none;stroke:#CCCCCC;stroke-width:0.8;stroke-linecap:square;}
	.st13{fill:#262626;}
	.st14{fill:#878787;}
	.st15{clip-path:url(#SVGID_21_);fill:#328DEF;stroke:#328DEF;stroke-width:4;stroke-linecap:round;stroke-linejoin:round;}
	.st16{clip-path:url(#SVGID_43_);fill:none;stroke:#CDD500;stroke-width:4;stroke-linecap:round;stroke-linejoin:round;}
	.st17{clip-path:url(#SVGID_45_);fill:#328DEF;stroke:#328DEF;stroke-width:4;stroke-linecap:round;stroke-linejoin:round;}
	.st18{clip-path:url(#SVGID_47_);fill:none;stroke:#CDD500;stroke-width:4;stroke-linecap:round;stroke-linejoin:round;}
	.st19{clip-path:url(#SVGID_49_);fill:none;stroke:#CDD500;stroke-width:4;stroke-linecap:round;stroke-linejoin:round;}
	.st20{clip-path:url(#SVGID_51_);fill:#328DEF;stroke:#328DEF;stroke-width:4;stroke-linecap:round;stroke-linejoin:round;}
	.st21{clip-path:url(#SVGID_53_);fill:none;stroke:#CDD500;stroke-width:4;stroke-linecap:round;stroke-linejoin:round;}
	.st22{font-family:'ClearSans';}
	.st23{font-size:15.0908px;}
	.st24{font-family:'ClearSans-Bold';}
	.st25{font-size:32px;}
	.st26{letter-spacing:1.1;}
	.st27{font-size:18px;}
	.st28{font-size:14px;}
	.st29{font-size:8.1258px;}
	.st30{fill:#A9B10A;}
	.st31{font-family:'ClearSans-Italic';}
	.st32{font-size:11.6083px;}
	.st33{fill:#328DEF;}
	.st34{font-size:8px;}
	.st35{letter-spacing:45.6;}
	.st36{letter-spacing:20;}
	.st37{clip-path:url(#SVGID_55_);fill:#328DEF;stroke:#328DEF;stroke-width:4;stroke-linecap:round;stroke-linejoin:round;}
	.st38{clip-path:url(#SVGID_57_);fill:none;stroke:#CDD500;stroke-width:4;stroke-linecap:round;stroke-linejoin:round;}
	.st39{fill:#3A3F4A;}
	.st40{fill:#6D6E70;}
	.st41{fill:url(#);}
	.st42{enable-background:new    ;}
	.st43{clip-path:url(#SVGID_59_);fill:none;stroke:#CCCCCC;stroke-width:0.8;stroke-linecap:round;stroke-linejoin:round;}
	.st44{clip-path:url(#SVGID_61_);fill:none;stroke:#CCCCCC;stroke-width:0.8;stroke-linecap:round;stroke-linejoin:round;}
	.st45{clip-path:url(#SVGID_63_);fill:none;stroke:#CCCCCC;stroke-width:0.8;stroke-linecap:round;stroke-linejoin:round;}
	.st46{clip-path:url(#SVGID_65_);fill:none;stroke:#CCCCCC;stroke-width:0.8;stroke-linecap:round;stroke-linejoin:round;}
	.st47{clip-path:url(#SVGID_67_);fill:none;stroke:#CCCCCC;stroke-width:0.8;stroke-linecap:round;stroke-linejoin:round;}
	.st48{clip-path:url(#SVGID_69_);fill:none;stroke:#CCCCCC;stroke-width:0.8;stroke-linecap:round;stroke-linejoin:round;}
	.st49{fill:none;stroke:#424242;stroke-width:4.05;stroke-linecap:round;stroke-linejoin:round;}
	.st50{fill:none;stroke:#CCCCCC;stroke-width:1.875;stroke-linecap:square;}
	.st51{fill:#F45150;}
	.st52{fill:#EAC700;}
	.st53{fill:none;stroke:#F45150;stroke-miterlimit:10;}
	.st54{fill:none;stroke:#878787;stroke-width:0.5;stroke-miterlimit:10;}
	.st55{fill:none;stroke:#328DEF;stroke-miterlimit:10;}
	.st56{fill:none;stroke:#FBD634;stroke-miterlimit:10;}
	.st57{fill:none;stroke:#878787;stroke-width:0.7;stroke-miterlimit:10;stroke-dasharray:3.0084,3.0084;}
	.st58{fill:none;stroke:#878787;stroke-width:0.7;stroke-miterlimit:10;stroke-dasharray:2.9961,2.9961;}
	.st59{fill:#FBD634;}
	.st60{fill:none;stroke:#FBD634;stroke-width:7;}
	.st61{fill:none;stroke:#328DEF;stroke-width:7;}
	.st62{fill:none;stroke:#F45150;stroke-width:7;}
	.st63{fill:#FFFFFF;}
	.st64{stroke:#000000;stroke-width:0.8;stroke-linejoin:round;}
	.st65{fill:none;stroke:#424242;stroke-width:2.7;stroke-linecap:square;stroke-linejoin:round;}
	.st66{fill:none;stroke:#000000;stroke-width:0.8;stroke-linecap:square;}
	.st67{fill:none;stroke:#878787;stroke-miterlimit:10;stroke-dasharray:3.0084,3.0084;}
</style>
<pattern  x="-27" y="440" width="72" height="72" patternUnits="userSpaceOnUse" id="SVGID_11_" viewBox="72.3 -144.3 72 72" style="overflow:visible;">
	<g>
		<rect x="72.3" y="-144.3" class="st0" width="72" height="72"/>
		<g>
			<rect x="72.3" y="-144.3" class="st0" width="72" height="72"/>
			<g>
				<rect x="72.3" y="-144.3" class="st0" width="72" height="72"/>
				<g>
					<line class="st1" x1="78.3" y1="-72.5" x2="78.3" y2="0"/>
					<line class="st1" x1="102.3" y1="-72.5" x2="102.3" y2="0"/>
					<line class="st1" x1="126.3" y1="-72.5" x2="126.3" y2="0"/>
					<line class="st1" x1="90.3" y1="-72.5" x2="90.3" y2="0"/>
					<line class="st1" x1="114.3" y1="-72.5" x2="114.3" y2="0"/>
					<line class="st1" x1="138.3" y1="-72.5" x2="138.3" y2="0"/>
				</g>
				<g>
					<line class="st1" x1="144" y1="-78.3" x2="216.5" y2="-78.3"/>
					<line class="st1" x1="144" y1="-102.3" x2="216.5" y2="-102.3"/>
					<line class="st1" x1="144" y1="-126.3" x2="216.5" y2="-126.3"/>
					<line class="st1" x1="144" y1="-90.3" x2="216.5" y2="-90.3"/>
					<line class="st1" x1="144" y1="-114.3" x2="216.5" y2="-114.3"/>
					<line class="st1" x1="144" y1="-138.3" x2="216.5" y2="-138.3"/>
				</g>
				<g>
					<line class="st1" x1="78.3" y1="-144.5" x2="78.3" y2="-72"/>
					<line class="st1" x1="102.3" y1="-144.5" x2="102.3" y2="-72"/>
					<line class="st1" x1="126.3" y1="-144.5" x2="126.3" y2="-72"/>
					<line class="st1" x1="72" y1="-78.3" x2="144.5" y2="-78.3"/>
					<line class="st1" x1="72" y1="-102.3" x2="144.5" y2="-102.3"/>
					<line class="st1" x1="72" y1="-126.3" x2="144.5" y2="-126.3"/>
					<line class="st1" x1="72" y1="-90.3" x2="144.5" y2="-90.3"/>
					<line class="st1" x1="72" y1="-114.3" x2="144.5" y2="-114.3"/>
					<line class="st1" x1="72" y1="-138.3" x2="144.5" y2="-138.3"/>
					<line class="st1" x1="90.3" y1="-144.5" x2="90.3" y2="-72"/>
					<line class="st1" x1="114.3" y1="-144.5" x2="114.3" y2="-72"/>
					<line class="st1" x1="138.3" y1="-144.5" x2="138.3" y2="-72"/>
				</g>
				<g>
					<line class="st1" x1="0" y1="-78.3" x2="72.5" y2="-78.3"/>
					<line class="st1" x1="0" y1="-102.3" x2="72.5" y2="-102.3"/>
					<line class="st1" x1="0" y1="-126.3" x2="72.5" y2="-126.3"/>
					<line class="st1" x1="0" y1="-90.3" x2="72.5" y2="-90.3"/>
					<line class="st1" x1="0" y1="-114.3" x2="72.5" y2="-114.3"/>
					<line class="st1" x1="0" y1="-138.3" x2="72.5" y2="-138.3"/>
				</g>
				<g>
					<line class="st1" x1="78.3" y1="-216.5" x2="78.3" y2="-144"/>
					<line class="st1" x1="102.3" y1="-216.5" x2="102.3" y2="-144"/>
					<line class="st1" x1="126.3" y1="-216.5" x2="126.3" y2="-144"/>
					<line class="st1" x1="90.3" y1="-216.5" x2="90.3" y2="-144"/>
					<line class="st1" x1="114.3" y1="-216.5" x2="114.3" y2="-144"/>
					<line class="st1" x1="138.3" y1="-216.5" x2="138.3" y2="-144"/>
				</g>
			</g>
		</g>
	</g>
</pattern>
<pattern  x="-27" y="440" width="72" height="72" patternUnits="userSpaceOnUse" id="SVGID_12_" viewBox="72.3 -144.3 72 72" style="overflow:visible;">
	<g>
		<rect x="72.3" y="-144.3" class="st0" width="72" height="72"/>
		<g>
			<rect x="72.3" y="-144.3" class="st0" width="72" height="72"/>
			<g>
				<rect x="72.3" y="-144.3" class="st0" width="72" height="72"/>
				<g>
					<line class="st1" x1="78.3" y1="-72.5" x2="78.3" y2="0"/>
					<line class="st1" x1="102.3" y1="-72.5" x2="102.3" y2="0"/>
					<line class="st1" x1="126.3" y1="-72.5" x2="126.3" y2="0"/>
					<line class="st1" x1="90.3" y1="-72.5" x2="90.3" y2="0"/>
					<line class="st1" x1="114.3" y1="-72.5" x2="114.3" y2="0"/>
					<line class="st1" x1="138.3" y1="-72.5" x2="138.3" y2="0"/>
				</g>
				<g>
					<line class="st1" x1="144" y1="-78.3" x2="216.5" y2="-78.3"/>
					<line class="st1" x1="144" y1="-102.3" x2="216.5" y2="-102.3"/>
					<line class="st1" x1="144" y1="-126.3" x2="216.5" y2="-126.3"/>
					<line class="st1" x1="144" y1="-90.3" x2="216.5" y2="-90.3"/>
					<line class="st1" x1="144" y1="-114.3" x2="216.5" y2="-114.3"/>
					<line class="st1" x1="144" y1="-138.3" x2="216.5" y2="-138.3"/>
				</g>
				<g>
					<line class="st1" x1="78.3" y1="-144.5" x2="78.3" y2="-72"/>
					<line class="st1" x1="102.3" y1="-144.5" x2="102.3" y2="-72"/>
					<line class="st1" x1="126.3" y1="-144.5" x2="126.3" y2="-72"/>
					<line class="st1" x1="72" y1="-78.3" x2="144.5" y2="-78.3"/>
					<line class="st1" x1="72" y1="-102.3" x2="144.5" y2="-102.3"/>
					<line class="st1" x1="72" y1="-126.3" x2="144.5" y2="-126.3"/>
					<line class="st1" x1="72" y1="-90.3" x2="144.5" y2="-90.3"/>
					<line class="st1" x1="72" y1="-114.3" x2="144.5" y2="-114.3"/>
					<line class="st1" x1="72" y1="-138.3" x2="144.5" y2="-138.3"/>
					<line class="st1" x1="90.3" y1="-144.5" x2="90.3" y2="-72"/>
					<line class="st1" x1="114.3" y1="-144.5" x2="114.3" y2="-72"/>
					<line class="st1" x1="138.3" y1="-144.5" x2="138.3" y2="-72"/>
				</g>
				<g>
					<line class="st1" x1="0" y1="-78.3" x2="72.5" y2="-78.3"/>
					<line class="st1" x1="0" y1="-102.3" x2="72.5" y2="-102.3"/>
					<line class="st1" x1="0" y1="-126.3" x2="72.5" y2="-126.3"/>
					<line class="st1" x1="0" y1="-90.3" x2="72.5" y2="-90.3"/>
					<line class="st1" x1="0" y1="-114.3" x2="72.5" y2="-114.3"/>
					<line class="st1" x1="0" y1="-138.3" x2="72.5" y2="-138.3"/>
				</g>
				<g>
					<line class="st1" x1="78.3" y1="-216.5" x2="78.3" y2="-144"/>
					<line class="st1" x1="102.3" y1="-216.5" x2="102.3" y2="-144"/>
					<line class="st1" x1="126.3" y1="-216.5" x2="126.3" y2="-144"/>
					<line class="st1" x1="90.3" y1="-216.5" x2="90.3" y2="-144"/>
					<line class="st1" x1="114.3" y1="-216.5" x2="114.3" y2="-144"/>
					<line class="st1" x1="138.3" y1="-216.5" x2="138.3" y2="-144"/>
				</g>
			</g>
		</g>
	</g>
</pattern>
<pattern  x="-27" y="440" width="72" height="72" patternUnits="userSpaceOnUse" id="SVGID_13_" viewBox="72.3 -144.3 72 72" style="overflow:visible;">
	<g>
		<rect x="72.3" y="-144.3" class="st0" width="72" height="72"/>
		<g>
			<rect x="72.3" y="-144.3" class="st0" width="72" height="72"/>
			<g>
				<rect x="72.3" y="-144.3" class="st0" width="72" height="72"/>
				<g>
					<line class="st1" x1="78.3" y1="-72.5" x2="78.3" y2="0"/>
					<line class="st1" x1="102.3" y1="-72.5" x2="102.3" y2="0"/>
					<line class="st1" x1="126.3" y1="-72.5" x2="126.3" y2="0"/>
					<line class="st1" x1="90.3" y1="-72.5" x2="90.3" y2="0"/>
					<line class="st1" x1="114.3" y1="-72.5" x2="114.3" y2="0"/>
					<line class="st1" x1="138.3" y1="-72.5" x2="138.3" y2="0"/>
				</g>
				<g>
					<line class="st1" x1="144" y1="-78.3" x2="216.5" y2="-78.3"/>
					<line class="st1" x1="144" y1="-102.3" x2="216.5" y2="-102.3"/>
					<line class="st1" x1="144" y1="-126.3" x2="216.5" y2="-126.3"/>
					<line class="st1" x1="144" y1="-90.3" x2="216.5" y2="-90.3"/>
					<line class="st1" x1="144" y1="-114.3" x2="216.5" y2="-114.3"/>
					<line class="st1" x1="144" y1="-138.3" x2="216.5" y2="-138.3"/>
				</g>
				<g>
					<line class="st1" x1="78.3" y1="-144.5" x2="78.3" y2="-72"/>
					<line class="st1" x1="102.3" y1="-144.5" x2="102.3" y2="-72"/>
					<line class="st1" x1="126.3" y1="-144.5" x2="126.3" y2="-72"/>
					<line class="st1" x1="72" y1="-78.3" x2="144.5" y2="-78.3"/>
					<line class="st1" x1="72" y1="-102.3" x2="144.5" y2="-102.3"/>
					<line class="st1" x1="72" y1="-126.3" x2="144.5" y2="-126.3"/>
					<line class="st1" x1="72" y1="-90.3" x2="144.5" y2="-90.3"/>
					<line class="st1" x1="72" y1="-114.3" x2="144.5" y2="-114.3"/>
					<line class="st1" x1="72" y1="-138.3" x2="144.5" y2="-138.3"/>
					<line class="st1" x1="90.3" y1="-144.5" x2="90.3" y2="-72"/>
					<line class="st1" x1="114.3" y1="-144.5" x2="114.3" y2="-72"/>
					<line class="st1" x1="138.3" y1="-144.5" x2="138.3" y2="-72"/>
				</g>
				<g>
					<line class="st1" x1="0" y1="-78.3" x2="72.5" y2="-78.3"/>
					<line class="st1" x1="0" y1="-102.3" x2="72.5" y2="-102.3"/>
					<line class="st1" x1="0" y1="-126.3" x2="72.5" y2="-126.3"/>
					<line class="st1" x1="0" y1="-90.3" x2="72.5" y2="-90.3"/>
					<line class="st1" x1="0" y1="-114.3" x2="72.5" y2="-114.3"/>
					<line class="st1" x1="0" y1="-138.3" x2="72.5" y2="-138.3"/>
				</g>
				<g>
					<line class="st1" x1="78.3" y1="-216.5" x2="78.3" y2="-144"/>
					<line class="st1" x1="102.3" y1="-216.5" x2="102.3" y2="-144"/>
					<line class="st1" x1="126.3" y1="-216.5" x2="126.3" y2="-144"/>
					<line class="st1" x1="90.3" y1="-216.5" x2="90.3" y2="-144"/>
					<line class="st1" x1="114.3" y1="-216.5" x2="114.3" y2="-144"/>
					<line class="st1" x1="138.3" y1="-216.5" x2="138.3" y2="-144"/>
				</g>
			</g>
		</g>
	</g>
</pattern>
<pattern  x="-27" y="440" width="72" height="72" patternUnits="userSpaceOnUse" id="SVGID_8_" viewBox="72.3 -144.3 72 72" style="overflow:visible;">
	<g>
		<rect x="72.3" y="-144.3" class="st0" width="72" height="72"/>
		<g>
			<rect x="72.3" y="-144.3" class="st0" width="72" height="72"/>
			<g>
				<rect x="72.3" y="-144.3" class="st0" width="72" height="72"/>
				<g>
					<line class="st1" x1="78.3" y1="-72.5" x2="78.3" y2="0"/>
					<line class="st1" x1="102.3" y1="-72.5" x2="102.3" y2="0"/>
					<line class="st1" x1="126.3" y1="-72.5" x2="126.3" y2="0"/>
					<line class="st1" x1="90.3" y1="-72.5" x2="90.3" y2="0"/>
					<line class="st1" x1="114.3" y1="-72.5" x2="114.3" y2="0"/>
					<line class="st1" x1="138.3" y1="-72.5" x2="138.3" y2="0"/>
				</g>
				<g>
					<line class="st1" x1="144" y1="-78.3" x2="216.5" y2="-78.3"/>
					<line class="st1" x1="144" y1="-102.3" x2="216.5" y2="-102.3"/>
					<line class="st1" x1="144" y1="-126.3" x2="216.5" y2="-126.3"/>
					<line class="st1" x1="144" y1="-90.3" x2="216.5" y2="-90.3"/>
					<line class="st1" x1="144" y1="-114.3" x2="216.5" y2="-114.3"/>
					<line class="st1" x1="144" y1="-138.3" x2="216.5" y2="-138.3"/>
				</g>
				<g>
					<line class="st1" x1="78.3" y1="-144.5" x2="78.3" y2="-72"/>
					<line class="st1" x1="102.3" y1="-144.5" x2="102.3" y2="-72"/>
					<line class="st1" x1="126.3" y1="-144.5" x2="126.3" y2="-72"/>
					<line class="st1" x1="72" y1="-78.3" x2="144.5" y2="-78.3"/>
					<line class="st1" x1="72" y1="-102.3" x2="144.5" y2="-102.3"/>
					<line class="st1" x1="72" y1="-126.3" x2="144.5" y2="-126.3"/>
					<line class="st1" x1="72" y1="-90.3" x2="144.5" y2="-90.3"/>
					<line class="st1" x1="72" y1="-114.3" x2="144.5" y2="-114.3"/>
					<line class="st1" x1="72" y1="-138.3" x2="144.5" y2="-138.3"/>
					<line class="st1" x1="90.3" y1="-144.5" x2="90.3" y2="-72"/>
					<line class="st1" x1="114.3" y1="-144.5" x2="114.3" y2="-72"/>
					<line class="st1" x1="138.3" y1="-144.5" x2="138.3" y2="-72"/>
				</g>
				<g>
					<line class="st1" x1="0" y1="-78.3" x2="72.5" y2="-78.3"/>
					<line class="st1" x1="0" y1="-102.3" x2="72.5" y2="-102.3"/>
					<line class="st1" x1="0" y1="-126.3" x2="72.5" y2="-126.3"/>
					<line class="st1" x1="0" y1="-90.3" x2="72.5" y2="-90.3"/>
					<line class="st1" x1="0" y1="-114.3" x2="72.5" y2="-114.3"/>
					<line class="st1" x1="0" y1="-138.3" x2="72.5" y2="-138.3"/>
				</g>
				<g>
					<line class="st1" x1="78.3" y1="-216.5" x2="78.3" y2="-144"/>
					<line class="st1" x1="102.3" y1="-216.5" x2="102.3" y2="-144"/>
					<line class="st1" x1="126.3" y1="-216.5" x2="126.3" y2="-144"/>
					<line class="st1" x1="90.3" y1="-216.5" x2="90.3" y2="-144"/>
					<line class="st1" x1="114.3" y1="-216.5" x2="114.3" y2="-144"/>
					<line class="st1" x1="138.3" y1="-216.5" x2="138.3" y2="-144"/>
				</g>
			</g>
		</g>
	</g>
</pattern>
<pattern  x="-27" y="440" width="72" height="72" patternUnits="userSpaceOnUse" id="SVGID_9_" viewBox="72.3 -144.3 72 72" style="overflow:visible;">
	<g>
		<rect x="72.3" y="-144.3" class="st0" width="72" height="72"/>
		<g>
			<rect x="72.3" y="-144.3" class="st0" width="72" height="72"/>
			<g>
				<rect x="72.3" y="-144.3" class="st0" width="72" height="72"/>
				<g>
					<line class="st1" x1="78.3" y1="-72.5" x2="78.3" y2="0"/>
					<line class="st1" x1="102.3" y1="-72.5" x2="102.3" y2="0"/>
					<line class="st1" x1="126.3" y1="-72.5" x2="126.3" y2="0"/>
					<line class="st1" x1="90.3" y1="-72.5" x2="90.3" y2="0"/>
					<line class="st1" x1="114.3" y1="-72.5" x2="114.3" y2="0"/>
					<line class="st1" x1="138.3" y1="-72.5" x2="138.3" y2="0"/>
				</g>
				<g>
					<line class="st1" x1="144" y1="-78.3" x2="216.5" y2="-78.3"/>
					<line class="st1" x1="144" y1="-102.3" x2="216.5" y2="-102.3"/>
					<line class="st1" x1="144" y1="-126.3" x2="216.5" y2="-126.3"/>
					<line class="st1" x1="144" y1="-90.3" x2="216.5" y2="-90.3"/>
					<line class="st1" x1="144" y1="-114.3" x2="216.5" y2="-114.3"/>
					<line class="st1" x1="144" y1="-138.3" x2="216.5" y2="-138.3"/>
				</g>
				<g>
					<line class="st1" x1="78.3" y1="-144.5" x2="78.3" y2="-72"/>
					<line class="st1" x1="102.3" y1="-144.5" x2="102.3" y2="-72"/>
					<line class="st1" x1="126.3" y1="-144.5" x2="126.3" y2="-72"/>
					<line class="st1" x1="72" y1="-78.3" x2="144.5" y2="-78.3"/>
					<line class="st1" x1="72" y1="-102.3" x2="144.5" y2="-102.3"/>
					<line class="st1" x1="72" y1="-126.3" x2="144.5" y2="-126.3"/>
					<line class="st1" x1="72" y1="-90.3" x2="144.5" y2="-90.3"/>
					<line class="st1" x1="72" y1="-114.3" x2="144.5" y2="-114.3"/>
					<line class="st1" x1="72" y1="-138.3" x2="144.5" y2="-138.3"/>
					<line class="st1" x1="90.3" y1="-144.5" x2="90.3" y2="-72"/>
					<line class="st1" x1="114.3" y1="-144.5" x2="114.3" y2="-72"/>
					<line class="st1" x1="138.3" y1="-144.5" x2="138.3" y2="-72"/>
				</g>
				<g>
					<line class="st1" x1="0" y1="-78.3" x2="72.5" y2="-78.3"/>
					<line class="st1" x1="0" y1="-102.3" x2="72.5" y2="-102.3"/>
					<line class="st1" x1="0" y1="-126.3" x2="72.5" y2="-126.3"/>
					<line class="st1" x1="0" y1="-90.3" x2="72.5" y2="-90.3"/>
					<line class="st1" x1="0" y1="-114.3" x2="72.5" y2="-114.3"/>
					<line class="st1" x1="0" y1="-138.3" x2="72.5" y2="-138.3"/>
				</g>
				<g>
					<line class="st1" x1="78.3" y1="-216.5" x2="78.3" y2="-144"/>
					<line class="st1" x1="102.3" y1="-216.5" x2="102.3" y2="-144"/>
					<line class="st1" x1="126.3" y1="-216.5" x2="126.3" y2="-144"/>
					<line class="st1" x1="90.3" y1="-216.5" x2="90.3" y2="-144"/>
					<line class="st1" x1="114.3" y1="-216.5" x2="114.3" y2="-144"/>
					<line class="st1" x1="138.3" y1="-216.5" x2="138.3" y2="-144"/>
				</g>
			</g>
		</g>
	</g>
</pattern>
<pattern  x="-27" y="440" width="72" height="72" patternUnits="userSpaceOnUse" id="SVGID_10_" viewBox="72.3 -144.3 72 72" style="overflow:visible;">
	<g>
		<rect x="72.3" y="-144.3" class="st0" width="72" height="72"/>
		<g>
			<rect x="72.3" y="-144.3" class="st0" width="72" height="72"/>
			<g>
				<rect x="72.3" y="-144.3" class="st0" width="72" height="72"/>
				<g>
					<line class="st1" x1="78.3" y1="-72.5" x2="78.3" y2="0"/>
					<line class="st1" x1="102.3" y1="-72.5" x2="102.3" y2="0"/>
					<line class="st1" x1="126.3" y1="-72.5" x2="126.3" y2="0"/>
					<line class="st1" x1="90.3" y1="-72.5" x2="90.3" y2="0"/>
					<line class="st1" x1="114.3" y1="-72.5" x2="114.3" y2="0"/>
					<line class="st1" x1="138.3" y1="-72.5" x2="138.3" y2="0"/>
				</g>
				<g>
					<line class="st1" x1="144" y1="-78.3" x2="216.5" y2="-78.3"/>
					<line class="st1" x1="144" y1="-102.3" x2="216.5" y2="-102.3"/>
					<line class="st1" x1="144" y1="-126.3" x2="216.5" y2="-126.3"/>
					<line class="st1" x1="144" y1="-90.3" x2="216.5" y2="-90.3"/>
					<line class="st1" x1="144" y1="-114.3" x2="216.5" y2="-114.3"/>
					<line class="st1" x1="144" y1="-138.3" x2="216.5" y2="-138.3"/>
				</g>
				<g>
					<line class="st1" x1="78.3" y1="-144.5" x2="78.3" y2="-72"/>
					<line class="st1" x1="102.3" y1="-144.5" x2="102.3" y2="-72"/>
					<line class="st1" x1="126.3" y1="-144.5" x2="126.3" y2="-72"/>
					<line class="st1" x1="72" y1="-78.3" x2="144.5" y2="-78.3"/>
					<line class="st1" x1="72" y1="-102.3" x2="144.5" y2="-102.3"/>
					<line class="st1" x1="72" y1="-126.3" x2="144.5" y2="-126.3"/>
					<line class="st1" x1="72" y1="-90.3" x2="144.5" y2="-90.3"/>
					<line class="st1" x1="72" y1="-114.3" x2="144.5" y2="-114.3"/>
					<line class="st1" x1="72" y1="-138.3" x2="144.5" y2="-138.3"/>
					<line class="st1" x1="90.3" y1="-144.5" x2="90.3" y2="-72"/>
					<line class="st1" x1="114.3" y1="-144.5" x2="114.3" y2="-72"/>
					<line class="st1" x1="138.3" y1="-144.5" x2="138.3" y2="-72"/>
				</g>
				<g>
					<line class="st1" x1="0" y1="-78.3" x2="72.5" y2="-78.3"/>
					<line class="st1" x1="0" y1="-102.3" x2="72.5" y2="-102.3"/>
					<line class="st1" x1="0" y1="-126.3" x2="72.5" y2="-126.3"/>
					<line class="st1" x1="0" y1="-90.3" x2="72.5" y2="-90.3"/>
					<line class="st1" x1="0" y1="-114.3" x2="72.5" y2="-114.3"/>
					<line class="st1" x1="0" y1="-138.3" x2="72.5" y2="-138.3"/>
				</g>
				<g>
					<line class="st1" x1="78.3" y1="-216.5" x2="78.3" y2="-144"/>
					<line class="st1" x1="102.3" y1="-216.5" x2="102.3" y2="-144"/>
					<line class="st1" x1="126.3" y1="-216.5" x2="126.3" y2="-144"/>
					<line class="st1" x1="90.3" y1="-216.5" x2="90.3" y2="-144"/>
					<line class="st1" x1="114.3" y1="-216.5" x2="114.3" y2="-144"/>
					<line class="st1" x1="138.3" y1="-216.5" x2="138.3" y2="-144"/>
				</g>
			</g>
		</g>
	</g>
</pattern>
<g id="back">
	<pattern  id="SVGID_14_" xlink:href="#SVGID_8_" patternTransform="matrix(0.7714 0 0 0.9976 -5200.7192 17587.041)">
	</pattern>
	<rect x="49.6" y="198.9" class="st2" width="80.8" height="138.5"/>
	<pattern  id="SVGID_15_" xlink:href="#SVGID_9_" patternTransform="matrix(0.7714 0 0 0.9976 -5155.3057 17587.041)">
	</pattern>
	<rect x="206.1" y="198.9" class="st3" width="80.8" height="138.5"/>
	<pattern  id="SVGID_16_" xlink:href="#SVGID_10_" patternTransform="matrix(0.7714 0 0 0.9976 -5107.8916 17587.041)">
	</pattern>
	<rect x="364.6" y="198.9" class="st4" width="80.8" height="138.5"/>
	<pattern  id="SVGID_17_" xlink:href="#SVGID_11_" patternTransform="matrix(0.7714 0 0 0.9976 -5062.478 17587.041)">
	</pattern>
	<rect x="521.1" y="198.9" class="st5" width="80.8" height="138.5"/>
	<pattern  id="SVGID_18_" xlink:href="#SVGID_12_" patternTransform="matrix(0.7714 0 0 0.9976 -5014.5645 17587.041)">
	</pattern>
	<rect x="680.1" y="198.9" class="st6" width="80.8" height="138.5"/>
	<pattern  id="SVGID_19_" xlink:href="#SVGID_13_" patternTransform="matrix(0.7714 0 0 0.9976 -4968.1504 17587.041)">
	</pattern>
	<rect x="837.6" y="198.9" class="st7" width="80.8" height="138.5"/>
	<polygon class="st8" points="26,149.5 940.8,149.5 940.8,385.7 26,385.5 	"/>
</g>
<g id="Шар_1_1_">
	<rect x="204.5" y="209.3" class="st0" width="88.9" height="135.2"/>
	<path class="st9" d="M209.2,335.4V196.8"/>
	<path class="st9" d="M289.3,333.3V194.7"/>
	<path class="st9" d="M366.4,336.5V197.9"/>
	<path class="st9" d="M447,336.8V198.2"/>
	<path class="st9" d="M521.9,334.8V196.2"/>
	<path class="st9" d="M601.9,335.5V196.9"/>
	<path class="st10" d="M208.5,332.8l80.8,0.7"/>
	<path class="st11" d="M208.5,246.3l80.8-17.4"/>
	<rect x="630" y="211.1" class="st0" width="101.9" height="134.3"/>
	<rect x="630" y="211.1" class="st0" width="101.9" height="134.3"/>
	<g id="patch_33_1_">
		<g>
		</g>
	</g>
	<g id="patch_34_1_">
		<g>
		</g>
	</g>
	<rect x="47" y="208" class="st0" width="108" height="138.6"/>
	<path class="st9" d="M49.6,338V199.4"/>
	<rect x="48" y="208" class="st0" width="88" height="138.6"/>
	<path class="st9" d="M132,335.4V196.8"/>
	<g>
		<g>
			<g>
				<defs>
					<rect id="SVGID_20_" x="48" y="208" width="88" height="138.6"/>
				</defs>
				<clipPath id="SVGID_21_">
					<use xlink:href="#SVGID_20_"  style="overflow:visible;"/>
				</clipPath>
				<path class="st15" d="M52,325.9l80,1.6"/>
			</g>
		</g>
	</g>
	<g>
		<g>
			<g>
				<defs>
					<polygon id="SVGID_42_" points="49.2,199.1 136,200.4 136,346.6 49.2,337.7 					"/>
				</defs>
				<clipPath id="SVGID_43_">
					<use xlink:href="#SVGID_42_"  style="overflow:visible;"/>
				</clipPath>
				<path class="st16" d="M52,281.9l80-3.7"/>
			</g>
		</g>
	</g>
	<g>
		<g>
			<g>
				<defs>
					<rect id="SVGID_44_" x="520" y="208.4" width="89" height="137.1"/>
				</defs>
				<clipPath id="SVGID_45_">
					<use xlink:href="#SVGID_44_"  style="overflow:visible;"/>
				</clipPath>
				<path class="st17" d="M524,316.6l80.9,0.7"/>
			</g>
		</g>
	</g>
	<g>
		<g>
			<g>
				<defs>
					<polygon id="SVGID_46_" points="520,209.4 609,208.4 609,345.5 520,346.5 					"/>
				</defs>
				<clipPath id="SVGID_47_">
					<use xlink:href="#SVGID_46_"  style="overflow:visible;"/>
				</clipPath>
				<path class="st18" d="M524,313.9l80.9-2.7"/>
			</g>
		</g>
	</g>
	<path class="st9" d="M682.2,335.9V197.3"/>
	<path class="st9" d="M763,335.4V196.8"/>
	<path class="st9" d="M839.5,335.7V197.1"/>
	<path class="st9" d="M921,335.4V196.8"/>
	<path class="st10" d="M366.4,307.6l80.6,3.2"/>
	<g>
		<g>
			<g>
				<g>
					<g>
						<defs>
							<rect id="SVGID_48_" x="362.3" y="208.4" width="88.7" height="137.6"/>
						</defs>
						<clipPath id="SVGID_49_">
							<use xlink:href="#SVGID_48_"  style="overflow:visible;"/>
						</clipPath>
						<path class="st19" d="M366.4,263.5l80.6-8.3"/>
					</g>
				</g>
			</g>
		</g>
	</g>
	<rect x="836.8" y="207.5" class="st0" width="88.2" height="138.5"/>
	<g>
		<g>
			<g>
				<g>
					<g>
						<defs>
							<rect id="SVGID_50_" x="836.8" y="207.5" width="88.2" height="138.5"/>
						</defs>
						<clipPath id="SVGID_51_">
							<use xlink:href="#SVGID_50_"  style="overflow:visible;"/>
						</clipPath>
						<path class="st20" d="M840.8,338.9l80.1-0.1"/>
					</g>
				</g>
			</g>
		</g>
	</g>
	<g>
		<g>
			<g>
				<g>
					<g>
						<defs>
							<rect id="SVGID_52_" x="836.8" y="207.5" width="88.2" height="138.5"/>
						</defs>
						<clipPath id="SVGID_53_">
							<use xlink:href="#SVGID_52_"  style="overflow:visible;"/>
						</clipPath>
						<path class="st21" d="M840.8,325l80.1-2.7"/>
					</g>
				</g>
			</g>
		</g>
	</g>
	<g>
		<text transform="matrix(1 0 0 1 211.9239 180.8528)" class="st14 st22 st23">Продавець</text>
	</g>
	<g>
		<text transform="matrix(1 0 0 1 388.8731 180.4397)" class="st14 st22 st23">Водій</text>
	</g>
	<g>
		<text transform="matrix(1 0 0 1 53.6021 180.4397)" class="st14 st22 st23">Тракторист</text>
	</g>
	<g>
		<text transform="matrix(1 0 0 1 543.2523 180.7483)" class="st14 st22 st23">Кухар</text>
	</g>
	<g>
		<text transform="matrix(1 0 0 1 690.5137 180.4397)" class="st14 st22 st23">Інженер</text>
	</g>
	<g>
		<text transform="matrix(1 0 0 1 854.96 180.7054)" class="st14 st22 st23">Швачка</text>
	</g>
	<text transform="matrix(0.9437 0 0 1 39.4963 58.7331)" class="st14 st24 st25 st26">ДЕФІЦИТНІ ПРОФЕСІЇ</text>
	<text transform="matrix(0.9437 0 0 1 38.0723 90.5813)" class="st14 st22 st27">Професії, яким найбільше бракує «свіжої крові». Графіки показують динаміку 2016-2017 років. </text>
	<text transform="matrix(0.9437 0 0 1 38.0723 110.5813)" class="st14 st22 st27">В більшості цих професій скорочується кількість безробітних та зростає кількість вакансій</text>
	<g>
		<text transform="matrix(1 0 0 1 39.2997 407.8004)" class="st14 st22 st28">Дані: Державна служба зайнятості, ДП «Інфоресурс»</text>
	</g>
	<g>
		<text transform="matrix(1 0 0 1 121.8096 194.7422)" class="st14 st24 st29">2017</text>
	</g>
	<g>
		<text transform="matrix(1 0 0 1 39.4964 194.7422)" class="st14 st24 st29">2016</text>
	</g>
	<text transform="matrix(1 0 0 1 68.4097 293.7527)" class="st30 st31 st32">Вакансії</text>
	<text transform="matrix(1 0 0 1 59.3726 340.3045)" class="st33 st31 st32">Випускники</text>
	<g>
		<rect x="1.7" y="247.2" class="st0" width="46" height="89.7"/>
		<text transform="matrix(0.9 0 0 1 24.3052 283.0398)" class="st14 st22 st34">37 850</text>
		<text transform="matrix(0.9 0 0 1 28.9854 326.6399)" class="st14 st22 st34">9 332</text>
	</g>
	<g>
		<rect x="449.4" y="250.5" class="st0" width="30.1" height="89.7"/>
		<text transform="matrix(0.9 0 0 1 449.417 256.2898)" class="st14 st22 st34">55 265</text>
		<text transform="matrix(0.9 0 0 1 449.417 304.2898)" class="st14 st22 st34 st35"> </text>
		<text transform="matrix(0.9 0 0 1 449.417 313.8899)" class="st14 st22 st34">18 927</text>
	</g>
	<g>
		<rect x="317.3" y="250.2" class="st0" width="46" height="89.7"/>
		<text transform="matrix(0.9 0 0 1 339.9722 265.6399)" class="st14 st22 st34">49 831</text>
		<text transform="matrix(0.9 0 0 1 339.9722 311.0398)" class="st14 st22 st34">21 036</text>
	</g>
	<g>
		<rect x="494.3" y="298.6" class="st0" width="26" height="32"/>
		<text transform="matrix(0.9 0 0 1 497.2388 313.9734)" class="st14 st22 st34">16 622</text>
		<text transform="matrix(0.9 0 0 1 496.6987 323.573)" class="st14 st22 st34">14 867</text>
	</g>
	<g>
		<rect x="652.1" y="301.3" class="st0" width="26" height="32"/>
		<text transform="matrix(0.9 0 0 1 654.7217 316.7234)" class="st14 st22 st34">16 455</text>
		<text transform="matrix(0.9 0 0 1 654.4512 326.323)" class="st14 st22 st34">10 196</text>
	</g>
	<g>
		<rect x="811.3" y="320.6" class="st0" width="26" height="32"/>
		<text transform="matrix(0.9 0 0 1 818.6826 326.3733)" class="st14 st22 st34">9 552</text>
		<text transform="matrix(0.9 0 0 1 824.2627 345.573)" class="st14 st22 st34">510</text>
	</g>
	<g>
		<rect x="608.3" y="299.6" class="st0" width="26" height="32"/>
		<text transform="matrix(0.9 0 0 1 608.333 305.3733)" class="st14 st22 st34 st35"> </text>
		<text transform="matrix(0.9 0 0 1 608.333 314.9734)" class="st14 st22 st34">18 370</text>
		<text transform="matrix(0.9 0 0 1 632.0029 314.9734)" class="st14 st22 st34 st36"> </text>
		<text transform="matrix(0.9 0 0 1 608.333 324.573)" class="st14 st22 st34">14 438</text>
	</g>
	<g>
		<rect x="766.3" y="298.8" class="st0" width="26" height="32"/>
		<text transform="matrix(0.9 0 0 1 766.333 304.6233)" class="st14 st22 st34 st35"> </text>
		<text transform="matrix(0.9 0 0 1 766.333 314.2234)" class="st14 st22 st34">18 246</text>
		<text transform="matrix(0.9 0 0 1 789.7324 314.2234)" class="st14 st22 st34 st36"> </text>
		<text transform="matrix(0.9 0 0 1 766.333 323.823)" class="st14 st22 st34">17 064</text>
	</g>
	<g>
		<rect x="924.3" y="316.8" class="st0" width="26" height="32"/>
		<text transform="matrix(0.9 0 0 1 924.333 322.6233)" class="st14 st22 st34">11 273</text>
		<text transform="matrix(0.9 0 0 1 924.333 332.2234)" class="st14 st22 st34 st35"> </text>
		<text transform="matrix(0.9 0 0 1 924.333 341.823)" class="st14 st22 st34">547</text>
	</g>
	<g>
		<rect x="176.3" y="212.2" class="st0" width="28.7" height="138.7"/>
		<text transform="matrix(0.9 0 0 1 181.3716 249.2395)" class="st14 st22 st34">61 175</text>
		<text transform="matrix(0.9 0 0 1 186.3218 335.4392)" class="st14 st22 st34">3 685</text>
	</g>
	<g>
		<rect x="136.7" y="243.2" class="st0" width="46" height="109.7"/>
		<text transform="matrix(0.9 0 0 1 136.667 249.0397)" class="st14 st22 st34 st35"> </text>
		<text transform="matrix(0.9 0 0 1 136.667 281.0398)" class="st14 st22 st34">40 261</text>
		<text transform="matrix(0.9 0 0 1 160.3369 281.0398)" class="st14 st22 st34 st36"> </text>
		<text transform="matrix(0.9 0 0 1 136.667 331.4397)" class="st14 st22 st34">8 289</text>
	</g>
	<g>
		<rect x="293" y="218.2" class="st0" width="46" height="129.7"/>
		<text transform="matrix(0.9 0 0 1 293 224.0397)" class="st14 st22 st34 st35"> </text>
		<text transform="matrix(0.9 0 0 1 293 233.6398)" class="st14 st22 st34">72 738</text>
		<text transform="matrix(0.9 0 0 1 293 326.0398)" class="st14 st22 st34 st35"> </text>
		<text transform="matrix(0.9 0 0 1 293 335.6399)" class="st14 st22 st34">3 224</text>
	</g>
	<g>
		<g>
			<g>
				<defs>
					<rect id="SVGID_54_" x="678.3" y="211.1" width="88.9" height="134.3"/>
				</defs>
				<clipPath id="SVGID_55_">
					<use xlink:href="#SVGID_54_"  style="overflow:visible;"/>
				</clipPath>
				<path class="st37" d="M682.3,324.1l80.9-10.3"/>
			</g>
		</g>
	</g>
	<g>
		<g>
			<g>
				<g>
					<defs>
						<rect id="SVGID_56_" x="678.3" y="211.1" width="88.9" height="134.3"/>
					</defs>
					<clipPath id="SVGID_57_">
						<use xlink:href="#SVGID_56_"  style="overflow:visible;"/>
					</clipPath>
					<path class="st38" d="M682.3,314.8l80.9-2.7"/>
				</g>
			</g>
		</g>
	</g>
	<g>
		<g>
			<polygon class="st39" points="839.5,397.3 835.8,397.3 835.8,407.5 833.4,407.5 833.4,397.3 829.8,397.3 829.8,395.1 
				839.5,395.1 			"/>
			<polygon class="st39" points="840.3,395.1 847.6,395.1 847.6,397.3 842.8,397.3 842.8,400.1 847.2,400.1 847.2,402.3 
				842.8,402.3 842.8,405.3 847.7,405.3 847.7,407.5 840.3,407.5 			"/>
			<polygon class="st39" points="852.1,401.2 848.7,395.1 851.6,395.1 853.5,398.7 853.9,399.9 854.3,398.7 856.3,395.1 
				858.9,395.1 855.4,401 859.1,407.5 856.3,407.5 854.1,403.7 853.6,402.4 853.1,403.7 851,407.5 848.3,407.5 			"/>
			<polygon class="st39" points="869.1,397.3 865.4,397.3 865.4,407.5 863.1,407.5 863.1,397.3 859.4,397.3 859.4,395.1 
				869.1,395.1 			"/>
			<polygon class="st39" points="873.8,402.9 869.7,395.1 872.6,395.1 874.9,399.7 875.2,401 875.2,401 875.4,399.7 877.6,395.1 
				880.3,395.1 876.2,402.9 876.2,407.5 873.8,407.5 			"/>
		</g>
		<path class="st40" d="M878.5,406.3c0-0.4,0.1-0.8,0.4-1s0.6-0.4,1-0.4c0.5,0,0.8,0.1,1.1,0.4c0.3,0.2,0.4,0.6,0.4,1
			c0,0.4-0.1,0.8-0.4,1c-0.3,0.3-0.6,0.4-1.1,0.4c-0.4,0-0.8-0.1-1-0.4C878.7,407,878.5,406.7,878.5,406.3"/>
		<path class="st40" d="M882.4,401.3c0-2.1,0.5-3.6,1.4-4.7s2.2-1.7,3.8-1.7c0.9,0,1.7,0.2,2.4,0.5s1.2,0.8,1.7,1.3
			c0.4,0.6,0.8,1.3,1,2.1s0.3,1.7,0.3,2.7c0,2.1-0.5,3.6-1.4,4.7c-0.9,1.1-2.2,1.7-3.8,1.7c-0.9,0-1.7-0.2-2.4-0.5
			c-0.7-0.3-1.2-0.8-1.7-1.3c-0.4-0.6-0.8-1.3-1-2.1C882.5,403.2,882.4,402.3,882.4,401.3 M885,401.3c0,0.6,0.1,1.2,0.2,1.8
			c0.1,0.5,0.3,1,0.5,1.4c0.2,0.4,0.5,0.7,0.9,0.9c0.3,0.2,0.8,0.3,1.2,0.3c0.9,0,1.6-0.3,2-1c0.5-0.7,0.7-1.8,0.7-3.2
			c0-0.6,0-1.2-0.1-1.7c-0.1-0.5-0.3-1-0.5-1.4c-0.2-0.4-0.5-0.7-0.8-0.9c-0.3-0.2-0.8-0.3-1.3-0.3c-0.9,0-1.5,0.4-2,1.1
			C885.2,398.8,885,399.8,885,401.3"/>
		<path class="st40" d="M894.3,395.2c0.3,0,0.6-0.1,0.9-0.1s0.6-0.1,1-0.1c0.3,0,0.6,0,0.9-0.1c0.3,0,0.6,0,0.8,0
			c0.6,0,1.2,0.1,1.7,0.2c0.6,0.1,1.1,0.3,1.5,0.6c0.5,0.3,0.8,0.6,1.1,1.1c0.3,0.5,0.4,1,0.4,1.7c0,1-0.2,1.9-0.7,2.5
			c-0.5,0.6-1.1,1.1-1.9,1.3l0.9,0.6l2.9,4.7h-2.8l-2.9-4.8l-1.3-0.2v5.1h-2.5L894.3,395.2L894.3,395.2z M898.1,397.1
			c-0.3,0-0.5,0-0.7,0s-0.4,0-0.6,0.1v3.5h1c0.7,0,1.2-0.2,1.6-0.5c0.4-0.3,0.6-0.8,0.6-1.5c0-0.5-0.2-1-0.5-1.3
			C899.1,397.3,898.6,397.1,898.1,397.1"/>
		<path class="st40" d="M908.4,401h4.6v5.5c-0.5,0.4-1.1,0.7-1.8,0.9c-0.7,0.2-1.4,0.3-2.1,0.3c-0.8,0-1.5-0.1-2.2-0.4
			c-0.7-0.3-1.3-0.6-1.8-1.2c-0.5-0.5-0.9-1.2-1.2-2c-0.3-0.8-0.4-1.8-0.4-2.9c0-1.2,0.2-2.2,0.5-2.9c0.3-0.8,0.8-1.5,1.3-2
			c0.6-0.5,1.2-0.9,1.9-1.1c0.7-0.2,1.4-0.4,2.1-0.4s1.4,0.1,1.9,0.2c0.5,0.1,1,0.2,1.3,0.3l-0.5,2.1c-0.3-0.1-0.6-0.2-1-0.3
			c-0.4-0.1-0.8-0.1-1.4-0.1c-0.5,0-1,0.1-1.4,0.2c-0.4,0.2-0.8,0.4-1.1,0.8c-0.3,0.4-0.6,0.8-0.7,1.4c-0.2,0.6-0.3,1.2-0.3,2
			c0,0.8,0.1,1.4,0.3,1.9s0.4,1,0.7,1.4c0.3,0.4,0.6,0.6,1.1,0.8c0.4,0.2,0.8,0.3,1.3,0.3c0.3,0,0.6,0,0.9-0.1
			c0.3-0.1,0.5-0.2,0.8-0.3V403l-2.7-0.3V401L908.4,401L908.4,401z"/>
		<path class="st40" d="M914.1,406.3c0-0.4,0.1-0.8,0.4-1c0.3-0.2,0.6-0.4,1-0.4c0.5,0,0.8,0.1,1.1,0.4c0.3,0.2,0.4,0.6,0.4,1
			c0,0.4-0.1,0.8-0.4,1c-0.3,0.3-0.6,0.4-1.1,0.4c-0.4,0-0.8-0.1-1-0.4C914.2,407,914.1,406.7,914.1,406.3"/>
		<path class="st40" d="M925.1,395.1h2.3v8c0,0.8-0.1,1.5-0.3,2.1c-0.2,0.6-0.5,1.1-0.9,1.5s-0.9,0.7-1.4,0.8
			c-0.5,0.2-1.2,0.3-1.8,0.3c-3.1,0-4.7-1.5-4.7-4.3v-8.3h2.5v7.8c0,0.5,0,0.9,0.1,1.3c0.1,0.3,0.2,0.6,0.4,0.8
			c0.2,0.2,0.4,0.4,0.7,0.5c0.3,0.1,0.6,0.1,1,0.1c0.8,0,1.3-0.2,1.6-0.6c0.3-0.4,0.5-1.1,0.5-2L925.1,395.1L925.1,395.1
			L925.1,395.1z"/>
		<path class="st40" d="M934.8,404.8H931l-1,2.8h-2.5L932,395h1.8l4.4,12.5h-2.6L934.8,404.8z M931.7,402.8h2.7l-0.9-2.8l-0.4-2H933
			l-0.4,2L931.7,402.8z"/>
	</g>
</g>
</svg>
