<?xml version="1.0" encoding="utf-8"?>
<!-- Generator: Adobe Illustrator 22.1.0, SVG Export Plug-In . SVG Version: 6.00 Build 0)  -->
<svg version="1.1" id="Шар_1" xmlns="http://www.w3.org/2000/svg" xmlns:xlink="http://www.w3.org/1999/xlink" x="0px" y="0px"
	 viewBox="0 0 960 614.9" style="enable-background:new 0 0 960 614.9;" xml:space="preserve">
<style type="text/css">
	.st0{fill:url(#);}
	.st1{opacity:0.76;fill:#FFFFFF;enable-background:new    ;}
	.st2{fill:none;}
	.st3{fill:none;stroke:#CCCCCC;stroke-width:0.8;stroke-linecap:round;stroke-linejoin:round;}
	.st4{fill:#328DEF;stroke:#328DEF;stroke-width:4;stroke-linecap:round;stroke-linejoin:round;}
	.st5{fill:none;stroke:#CDD500;stroke-width:4;stroke-linecap:round;stroke-linejoin:round;}
	.st6{fill:none;stroke:#CCCCCC;stroke-width:0.8;stroke-linecap:square;}
	.st7{fill:#262626;}
	.st8{fill:#878787;}
	.st9{clip-path:url(#SVGID_9_);fill:#328DEF;stroke:#328DEF;stroke-width:4;stroke-linecap:round;stroke-linejoin:round;}
	.st10{clip-path:url(#SVGID_11_);fill:none;stroke:#CDD500;stroke-width:4;stroke-linecap:round;stroke-linejoin:round;}
	.st11{clip-path:url(#SVGID_13_);fill:#328DEF;stroke:#328DEF;stroke-width:4;stroke-linecap:round;stroke-linejoin:round;}
	.st12{clip-path:url(#SVGID_15_);fill:none;stroke:#CDD500;stroke-width:4;stroke-linecap:round;stroke-linejoin:round;}
	.st13{clip-path:url(#SVGID_17_);fill:none;stroke:#CDD500;stroke-width:4;stroke-linecap:round;stroke-linejoin:round;}
	.st14{clip-path:url(#SVGID_19_);fill:#328DEF;stroke:#328DEF;stroke-width:4;stroke-linecap:round;stroke-linejoin:round;}
	.st15{clip-path:url(#SVGID_21_);fill:none;stroke:#CDD500;stroke-width:4;stroke-linecap:round;stroke-linejoin:round;}
	.st16{enable-background:new    ;}
	.st17{fill:#A9B10A;}
	.st18{fill:#328DEF;}
	.st19{clip-path:url(#SVGID_43_);fill:#328DEF;stroke:#328DEF;stroke-width:4;stroke-linecap:round;stroke-linejoin:round;}
	.st20{clip-path:url(#SVGID_45_);fill:none;stroke:#CDD500;stroke-width:4;stroke-linecap:round;stroke-linejoin:round;}
	.st21{fill:#3A3F4A;}
	.st22{fill:#6D6E70;}
	.st23{clip-path:url(#SVGID_47_);fill:none;stroke:#CCCCCC;stroke-width:0.8;stroke-linecap:round;stroke-linejoin:round;}
	.st24{clip-path:url(#SVGID_49_);fill:none;stroke:#CCCCCC;stroke-width:0.8;stroke-linecap:round;stroke-linejoin:round;}
	.st25{clip-path:url(#SVGID_51_);fill:none;stroke:#CCCCCC;stroke-width:0.8;stroke-linecap:round;stroke-linejoin:round;}
	.st26{clip-path:url(#SVGID_53_);fill:none;stroke:#CCCCCC;stroke-width:0.8;stroke-linecap:round;stroke-linejoin:round;}
	.st27{clip-path:url(#SVGID_55_);fill:none;stroke:#CCCCCC;stroke-width:0.8;stroke-linecap:round;stroke-linejoin:round;}
	.st28{clip-path:url(#SVGID_57_);fill:none;stroke:#CCCCCC;stroke-width:0.8;stroke-linecap:round;stroke-linejoin:round;}
	.st29{fill:none;stroke:#424242;stroke-width:4.05;stroke-linecap:round;stroke-linejoin:round;}
	.st30{fill:none;stroke:#CCCCCC;stroke-width:1.875;stroke-linecap:square;}
	.st31{fill:#F45150;}
	.st32{fill:#EAC700;}
	.st33{fill:none;stroke:#F45150;stroke-miterlimit:10;}
	.st34{fill:none;stroke:#878787;stroke-width:0.5;stroke-miterlimit:10;}
	.st35{fill:none;stroke:#328DEF;stroke-miterlimit:10;}
	.st36{fill:none;stroke:#FBD634;stroke-miterlimit:10;}
	.st37{fill:none;stroke:#878787;stroke-width:0.7;stroke-miterlimit:10;stroke-dasharray:3.0084,3.0084;}
	.st38{fill:none;stroke:#878787;stroke-width:0.7;stroke-miterlimit:10;stroke-dasharray:2.9961,2.9961;}
	.st39{fill:#FBD634;}
	.st40{fill:none;stroke:#FBD634;stroke-width:7;}
	.st41{fill:none;stroke:#328DEF;stroke-width:7;}
	.st42{fill:none;stroke:#F45150;stroke-width:7;}
	.st43{fill:#FFFFFF;}
	.st44{stroke:#000000;stroke-width:0.8;stroke-linejoin:round;}
	.st45{fill:none;stroke:#424242;stroke-width:2.7;stroke-linecap:square;stroke-linejoin:round;}
	.st46{fill:none;stroke:#000000;stroke-width:0.8;stroke-linecap:square;}
	.st47{font-family:'ClearSans-Bold';}
	.st48{font-size:32px;}
	.st49{letter-spacing:1;}
	.st50{font-family:'ClearSans';}
	.st51{font-size:16.0886px;}
	.st52{font-size:15.2268px;}
	.st53{font-size:12.1227px;}
	.st54{font-size:14px;}
	.st55{font-family:'ArialMT';}
	.st56{font-size:10.3909px;}
	.st57{font-family:'ClearSans-Italic';}
	.st58{font-size:18px;}
	.st59{fill:none;stroke:#878787;stroke-miterlimit:10;stroke-dasharray:3.0084,3.0084;}
	.st60{font-size:11.6897px;}
</style>
<g id="Шар_1_4_">
	<g id="patch_46">
	</g>
</g>
<g id="figure_1">
	<g id="axes_1">
		<g id="matplotlib.axis_1">
			<g id="xtick_1">
				<g id="line2d_1">
					<g>
						<g>
						</g>
					</g>
				</g>
			</g>
			<g id="xtick_2">
				<g id="line2d_2">
					<g>
						<g>
						</g>
					</g>
				</g>
			</g>
			<g id="xtick_3">
				<g id="line2d_3">
					<g>
						<g>
						</g>
					</g>
				</g>
			</g>
			<g id="xtick_4">
				<g id="line2d_4">
					<g>
						<g>
						</g>
					</g>
				</g>
			</g>
			<g id="xtick_5">
				<g id="line2d_5">
					<g>
						<g>
						</g>
					</g>
				</g>
			</g>
			<g id="xtick_6">
				<g id="line2d_6">
					<g>
						<g>
						</g>
					</g>
				</g>
			</g>
		</g>
		<g id="matplotlib.axis_2">
		</g>
		<g id="line2d_46_1_">
			<g>
				<g>
				</g>
			</g>
		</g>
	</g>
</g>
<text transform="matrix(1 0 0 1 36.8745 68.433)" class="st8 st47 st48 st49">РІЗНІ ЗАРПЛАТИ</text>
<text transform="matrix(1.0236 0 0 1 30.8154 200.2391)" class="st8 st50 st51">Програміст</text>
<text transform="matrix(1.0236 0 0 1 76.5913 231.7372)" class="st8 st50 st52">Водій</text>
<text transform="matrix(1.0236 0 0 1 49.6079 260.3797)" class="st8 st50 st52">Сисадмін</text>
<text transform="matrix(1.0236 0 0 1 55.2227 292.3397)" class="st8 st50 st52">Інженер</text>
<text transform="matrix(1.0236 0 0 1 61.2773 323.7166)" class="st8 st50 st52">Швачка</text>
<text transform="matrix(1.0236 0 0 1 46.7847 419.8885)" class="st8 st50 st52">Економіст</text>
<text transform="matrix(1.0236 0 0 1 76.2847 354.9852)" class="st8 st50 st52">Лікар</text>
<text transform="matrix(1.0236 0 0 1 69.5352 390.9686)" class="st8 st50 st52">Юрист</text>
<text transform="matrix(1.0236 0 0 1 59.2642 452.3504)" class="st8 st50 st52">Вчитель</text>
<text transform="matrix(1.0236 0 0 1 73.9668 484.5819)" class="st8 st50 st52">Касир</text>
<text transform="matrix(1.0236 0 0 1 40.5815 515.37)" class="st8 st50 st52">Медсестра</text>
<path class="st31" d="M139.9,205.5c-4.8,0-8.7-3.9-8.7-8.7c0-4.8,3.9-8.7,8.7-8.7l358.5-0.9l0,0c4.8,0,8.7,3.9,8.7,8.7
	c0,4.8-3.9,8.7-8.7,8.7L139.9,205.5L139.9,205.5z"/>
<path class="st18" d="M797.1,203.8h-239c-4.8,0-8.7-3.9-8.7-8.7c0-4.8,3.9-8.7,8.7-8.7h239c4.8,0,8.7,3.9,8.7,8.7
	C805.7,199.9,801.8,203.8,797.1,203.8z"/>
<path class="st39" d="M917.4,205.5h-66.7c-4.8,0-8.7-3.9-8.7-8.7c0-4.8,3.9-8.7,8.7-8.7h66.7c4.8,0,8.7,3.9,8.7,8.7
	C926.1,201.6,922.2,205.5,917.4,205.5z"/>
<path class="st31" d="M287.9,237.5H139.9c-4.8,0-8.7-3.9-8.7-8.7c0-4.8,3.9-8.7,8.7-8.7h148.1c4.8,0,8.7,3.9,8.7,8.7
	C296.6,233.6,292.7,237.5,287.9,237.5z"/>
<path class="st18" d="M700.1,235.8h-142c-4.8,0-8.7-3.9-8.7-8.7c0-4.8,3.9-8.7,8.7-8.7h142c4.8,0,8.7,3.9,8.7,8.7
	C708.8,231.9,704.9,235.8,700.1,235.8z"/>
<path class="st39" d="M912.2,237.5h-61.5c-4.8,0-8.7-3.9-8.7-8.7c0-4.8,3.9-8.7,8.7-8.7h61.5c4.8,0,8.7,3.9,8.7,8.7
	C920.9,233.6,917,237.5,912.2,237.5z"/>
<path class="st31" d="M282.7,268.7h-142c-4.8,0-8.7-3.9-8.7-8.7c0-4.8,3.9-8.7,8.7-8.7h142c4.8,0,8.7,3.9,8.7,8.7
	C291.4,264.8,287.5,268.7,282.7,268.7z"/>
<path class="st18" d="M700.1,267.8h-142c-4.8,0-8.7-3.9-8.7-8.7c0-4.8,3.9-8.7,8.7-8.7h142c4.8,0,8.7,3.9,8.7,8.7
	C708.8,263.9,704.9,267.8,700.1,267.8z"/>
<path class="st39" d="M905.3,269.6h-54.6c-4.8,0-8.7-3.9-8.7-8.7c0-4.8,3.9-8.7,8.7-8.7h54.6c4.8,0,8.7,3.9,8.7,8.7
	C914,265.7,910.1,269.6,905.3,269.6z"/>
<path class="st31" d="M259.3,300.7H140.7c-4.8,0-8.7-3.9-8.7-8.7s3.9-8.7,8.7-8.7h118.6c4.8,0,8.7,3.9,8.7,8.7
	S264.1,300.7,259.3,300.7z"/>
<path class="st18" d="M700.1,299.9h-142c-4.8,0-8.7-3.9-8.7-8.7s3.9-8.7,8.7-8.7h142c4.8,0,8.7,3.9,8.7,8.7S704.9,299.9,700.1,299.9
	z"/>
<path class="st39" d="M921.8,301.6h-71c-4.8,0-8.7-3.9-8.7-8.7s3.9-8.7,8.7-8.7h71c4.8,0,8.7,3.9,8.7,8.7S926.5,301.6,921.8,301.6z"
	/>
<path class="st31" d="M260.2,332.8H140.7c-4.8,0-8.7-3.9-8.7-8.7c0-4.8,3.9-8.7,8.7-8.7h119.5c4.8,0,8.7,3.9,8.7,8.7
	C268.9,328.9,265,332.8,260.2,332.8z"/>
<path class="st18" d="M676.7,332.8H558.1c-4.8,0-8.7-3.9-8.7-8.7c0-4.8,3.9-8.7,8.7-8.7h118.6c4.8,0,8.7,3.9,8.7,8.7
	C685.4,328.9,681.5,332.8,676.7,332.8z"/>
<path class="st39" d="M909.6,333.6h-58.9c-4.8,0-8.7-3.9-8.7-8.7s3.9-8.7,8.7-8.7h58.9c4.8,0,8.7,3.9,8.7,8.7
	S914.4,333.6,909.6,333.6z"/>
<path class="st31" d="M249.8,428.9H142.4c-4.8,0-8.7-3.9-8.7-8.7s3.9-8.7,8.7-8.7h107.4c4.8,0,8.7,3.9,8.7,8.7
	S254.6,428.9,249.8,428.9z"/>
<path class="st18" d="M677.6,428.9H558.1c-4.8,0-8.7-3.9-8.7-8.7s3.9-8.7,8.7-8.7h119.5c4.8,0,8.7,3.9,8.7,8.7
	S682.3,428.9,677.6,428.9z"/>
<path class="st39" d="M915.7,429.8h-64.9c-4.8,0-8.7-3.9-8.7-8.7s3.9-8.7,8.7-8.7h64.9c4.8,0,8.7,3.9,8.7,8.7
	S920.5,429.8,915.7,429.8z"/>
<path class="st31" d="M259.3,364.8H140.7c-4.8,0-8.7-3.9-8.7-8.7c0-4.8,3.9-8.7,8.7-8.7h118.6c4.8,0,8.7,3.9,8.7,8.7
	C268,360.9,264.1,364.8,259.3,364.8z"/>
<path class="st18" d="M676.7,364.8H558.1c-4.8,0-8.7-3.9-8.7-8.7c0-4.8,3.9-8.7,8.7-8.7h118.6c4.8,0,8.7,3.9,8.7,8.7
	C685.4,360.9,681.5,364.8,676.7,364.8z"/>
<path class="st39" d="M897.5,365.7h-46.8c-4.8,0-8.7-3.9-8.7-8.7c0-4.8,3.9-8.7,8.7-8.7h46.8c4.8,0,8.7,3.9,8.7,8.7
	C906.2,361.8,902.3,365.7,897.5,365.7z"/>
<path class="st31" d="M260.2,396.8H140.7c-4.8,0-8.7-3.9-8.7-8.7s3.9-8.7,8.7-8.7h119.5c4.8,0,8.7,3.9,8.7,8.7
	S265,396.8,260.2,396.8z"/>
<path class="st18" d="M677.6,396.8H558.1c-4.8,0-8.7-3.9-8.7-8.7s3.9-8.7,8.7-8.7h119.5c4.8,0,8.7,3.9,8.7,8.7
	S682.3,396.8,677.6,396.8z"/>
<path class="st39" d="M903.6,397.7h-52.8c-4.8,0-8.7-3.9-8.7-8.7s3.9-8.7,8.7-8.7h52.8c4.8,0,8.7,3.9,8.7,8.7
	S908.3,397.7,903.6,397.7z"/>
<path class="st31" d="M236.8,460.9h-96.1c-4.8,0-8.7-3.9-8.7-8.7c0-4.8,3.9-8.7,8.7-8.7h96.1c4.8,0,8.7,3.9,8.7,8.7
	C245.5,457,241.6,460.9,236.8,460.9z"/>
<path class="st18" d="M654.2,460.9h-96.1c-4.8,0-8.7-3.9-8.7-8.7c0-4.8,3.9-8.7,8.7-8.7h96.1c4.8,0,8.7,3.9,8.7,8.7
	C662.9,457,659,460.9,654.2,460.9z"/>
<path class="st39" d="M909.6,461.8h-58.9c-4.8,0-8.7-3.9-8.7-8.7c0-4.8,3.9-8.7,8.7-8.7h58.9c4.8,0,8.7,3.9,8.7,8.7
	C918.3,457.9,914.4,461.8,909.6,461.8z"/>
<path class="st31" d="M236.8,493h-96.1c-4.8,0-8.7-3.9-8.7-8.7c0-4.8,3.9-8.7,8.7-8.7h96.1c4.8,0,8.7,3.9,8.7,8.7
	C245.5,489.1,241.6,493,236.8,493z"/>
<path class="st18" d="M654.2,492.1h-96.1c-4.8,0-8.7-3.9-8.7-8.7c0-4.8,3.9-8.7,8.7-8.7h96.1c4.8,0,8.7,3.9,8.7,8.7
	C662.9,488.2,659,492.1,654.2,492.1z"/>
<path class="st39" d="M909.6,493.8h-58.9c-4.8,0-8.7-3.9-8.7-8.7c0-4.8,3.9-8.7,8.7-8.7h58.9c4.8,0,8.7,3.9,8.7,8.7
	C918.3,489.9,914.4,493.8,909.6,493.8z"/>
<path class="st31" d="M200.5,525h-59.7c-4.8,0-8.7-3.9-8.7-8.7c0-4.8,3.9-8.7,8.7-8.7h59.7c4.8,0,8.7,3.9,8.7,8.7
	C209.1,521.1,205.2,525,200.5,525z"/>
<path class="st18" d="M630,524.1h-71.9c-4.8,0-8.7-3.9-8.7-8.7c0-4.8,3.9-8.7,8.7-8.7H630c4.8,0,8.7,3.9,8.7,8.7
	C638.6,520.2,634.7,524.1,630,524.1z"/>
<path class="st39" d="M895.8,525.9h-44.2c-4.8,0-8.7-3.9-8.7-8.7s3.9-8.7,8.7-8.7h44.2c4.8,0,8.7,3.9,8.7,8.7
	S900.5,525.9,895.8,525.9z"/>
<text transform="matrix(1.0236 0 0 1 470.4194 200.0878)" class="st43 st50 st53">30</text>
<text transform="matrix(1.0236 0 0 1 257.2314 234.7323)" class="st43 st50 st53">12,5</text>
<text transform="matrix(1.0236 0 0 1 258.7676 264.0204)" class="st43 st50 st53">12</text>
<text transform="matrix(1.0236 0 0 1 899.1914 200.7948)" class="st8 st50 st53">5,6</text>
<text transform="matrix(1.0236 0 0 1 771.4053 199.9129)" class="st43 st50 st53">20</text>
<text transform="matrix(1.0236 0 0 1 678.6602 231.9022)" class="st43 st50 st53">12</text>
<text transform="matrix(1.0236 0 0 1 911.833 297.535)" class="st8 st50 st53">6</text>
<text transform="matrix(1.0236 0 0 1 903.5811 425.7049)" class="st8 st50 st53">5,5</text>
<text transform="matrix(1.0236 0 0 1 238.3345 296.7039)" class="st43 st50 st53">10</text>
<text transform="matrix(1.0236 0 0 1 238.1631 424.5946)" class="st43 st50 st53">9</text>
<text transform="matrix(1.0236 0 0 1 660.0312 328.742)" class="st43 st50 st53">10</text>
<text transform="matrix(0.9437 0 0 1 36.8745 576.2007)" class="st8 st50 st54">Дані: </text>
<text transform="matrix(1 0 0 1 70.5425 576.2007)" class="st8 st50 st54">Державна служба зайнятості</text>
<text transform="matrix(0.9437 0 0 1 258.1958 576.2007)" class="st8 st50 st54">,  work.ua, rabota.ua за жовтень 2018</text>
<text transform="matrix(0.9437 0 0 1 379.3901 554.7889)" class="st8 st55 st56"> </text>
<text transform="matrix(1.0236 0 0 1 900.5205 458.1747)" class="st8 st50 st53">5</text>
<text transform="matrix(1.0236 0 0 1 225.5088 457.5321)" class="st43 st50 st53">8</text>
<text transform="matrix(1.0236 0 0 1 644.6084 457.5321)" class="st43 st50 st53">8</text>
<text transform="matrix(1.0236 0 0 1 193.6182 520.9598)" class="st43 st50 st53">5</text>
<text transform="matrix(1.0236 0 0 1 623.1084 520.0946)" class="st43 st50 st53">6</text>
<text transform="matrix(1.0236 0 0 1 879.79 522.58)" class="st8 st50 st53">3,7</text>
<text transform="matrix(1.0236 0 0 1 296.2632 464.2498)" class="st8 st57 st53">Вчителям і касирам пропонують</text>
<text transform="matrix(1.0236 0 0 1 296.2632 478.7967)" class="st8 st57 st53">рівнозначну зарплату</text>
<text transform="matrix(1.0236 0 0 1 36.8745 95.9725)" class="st16"><tspan x="0" y="0" class="st8 st50 st58">Через державну службу зайнятості роботодавці пропонують зарплати близькі до мінімальної. </tspan><tspan x="0" y="21.6" class="st8 st50 st58">Найнижчі зарплати для програмістів - у державному секторі. На графікузображені медіальні значення</tspan><tspan x="0" y="43.2" class="st8 st50 st58">зарплат у тис. грн з оголошено про вакансії </tspan></text>
<text transform="matrix(0.9437 0 0 1 296.3496 168.4032)" class="st31 st50 st54">rabota.ua</text>
<path class="st35" d="M581.6,188c0.9,1-14.2-8.1,0.3-19.6"/>
<text transform="matrix(0.9437 0 0 1 588.6631 168.4032)" class="st18 st50 st54">work.ua</text>
<path class="st33" d="M291.1,188c0.9,1-14.2-8.1,0.3-19.6"/>
<path class="st36" d="M854.7,189.6c0.9,1-14.2-8.1,0.3-19.6"/>
<text transform="matrix(0.9437 0 0 1 856.9389 157.2518)" class="st32 st50 st54">Держслужба </text>
<text transform="matrix(0.9437 0 0 1 859.6433 169.981)" class="st32 st50 st54">зайнятості</text>
<path class="st37" d="M146.5,497.6c-14.6-0.1-26.4-7-26.3-15.5l0.3-30.8c0.1-4.1,2.9-8,7.9-10.9c4.9-2.9,11.7-4.4,18.6-4.4
	c0.1,0,752.6,3.1,752.6,3.1c14.6,0.1,26.4,7,26.3,15.5l-0.3,30.8c-0.1,4.1-2.9,8-7.9,10.9c-4.9,2.9-11.7,4.4-18.6,4.4
	C899.2,500.7,146.5,497.6,146.5,497.6z"/>
<polygon class="st21" points="810,575.3 806.5,575.3 806.5,585.5 804.1,585.5 804.1,575.3 800.5,575.3 800.5,573.1 810,573.1 "/>
<polygon class="st21" points="811,573.1 818.3,573.1 818.3,575.3 813.4,575.3 813.4,578.2 817.8,578.2 817.8,580.4 813.4,580.4 
	813.4,583.4 818.4,583.4 818.4,585.5 811,585.5 "/>
<polygon class="st21" points="822.7,579.2 819.3,573.1 822.2,573.1 824.1,576.7 824.5,578 825,576.7 826.9,573.1 829.5,573.1 
	826,579.1 829.7,585.5 826.8,585.5 824.6,581.6 824.2,580.4 823.7,581.6 821.6,585.5 819,585.5 "/>
<polygon class="st21" points="839.6,575.3 836,575.3 836,585.5 833.6,585.5 833.6,575.3 830,575.3 830,573.1 839.6,573.1 "/>
<polygon class="st21" points="844.4,580.9 840.3,573.1 843.1,573.1 845.4,577.8 845.7,579.1 845.8,579.1 846,577.8 848.2,573.1 
	850.7,573.1 846.7,580.9 846.7,585.5 844.4,585.5 "/>
<path class="st22" d="M849.1,584.3c0-0.4,0.2-0.7,0.4-1c0.2-0.2,0.6-0.3,1-0.3c0.4,0,0.8,0.2,1.1,0.3c0.2,0.2,0.4,0.5,0.4,1
	c0,0.4-0.2,0.7-0.4,1c-0.2,0.2-0.6,0.4-1.1,0.4c-0.4,0-0.8-0.2-1-0.4C849.1,585.1,849.1,584.8,849.1,584.3"/>
<path class="st22" d="M853,579.3c0-2,0.5-3.6,1.3-4.7c0.9-1.1,2.2-1.6,3.9-1.6c0.9,0,1.6,0.2,2.3,0.5c0.6,0.3,1.2,0.7,1.6,1.3
	c0.4,0.5,0.8,1.3,1,2s0.3,1.6,0.3,2.6c0,2-0.5,3.6-1.3,4.7c-0.9,1.1-2.2,1.6-3.9,1.6c-0.9,0-1.6-0.2-2.3-0.5s-1.2-0.7-1.6-1.3
	c-0.4-0.5-0.7-1.3-0.9-2C853.1,581.2,853,580.3,853,579.3 M855.5,579.3c0,0.6,0.1,1.2,0.2,1.7c0.1,0.5,0.2,1,0.5,1.3
	c0.2,0.4,0.6,0.7,0.9,0.9c0.3,0.2,0.7,0.3,1.2,0.3c0.9,0,1.6-0.3,2-1c0.5-0.7,0.7-1.7,0.7-3.2c0-0.6-0.1-1.2-0.2-1.6
	c-0.1-0.5-0.2-1-0.5-1.3c-0.2-0.4-0.5-0.7-0.8-0.9c-0.3-0.2-0.8-0.3-1.3-0.3c-0.9,0-1.6,0.3-2,1
	C855.7,576.8,855.5,577.9,855.5,579.3"/>
<path class="st22" d="M864.8,573.3c0.2-0.1,0.5-0.1,0.9-0.2c0.3-0.1,0.6-0.1,0.9-0.1c0.3-0.1,0.6-0.1,0.9-0.1s0.5,0,0.8,0
	c0.5,0,1.2,0.1,1.7,0.2c0.5,0.1,1.1,0.3,1.5,0.5c0.4,0.2,0.8,0.6,1.1,1.1c0.2,0.5,0.4,1,0.4,1.7c0,1-0.2,1.8-0.7,2.5
	c-0.5,0.6-1.1,1.1-1.9,1.3l0.9,0.5l2.8,4.7h-2.7l-2.7-4.8l-1.3-0.2v5h-2.4v-12.3H864.8z M868.5,575.1c-0.2,0-0.5,0-0.7,0
	c-0.2,0-0.4,0.1-0.5,0.1v3.6h1c0.7,0,1.2-0.2,1.6-0.5c0.4-0.3,0.6-0.8,0.6-1.5c0-0.5-0.2-0.9-0.5-1.3
	C869.6,575.3,869.1,575.1,868.5,575.1"/>
<path class="st22" d="M878.8,579h4.6v5.5c-0.5,0.4-1.1,0.7-1.7,0.9c-0.7,0.2-1.3,0.3-2,0.3c-0.8,0-1.6-0.2-2.2-0.4
	c-0.7-0.2-1.3-0.6-1.7-1.2c-0.5-0.5-0.9-1.2-1.2-2c-0.3-0.8-0.4-1.7-0.4-2.9c0-1.2,0.2-2.1,0.5-3c0.3-0.8,0.8-1.5,1.3-2
	c0.6-0.5,1.2-0.9,1.8-1.1s1.3-0.3,2.1-0.3c0.7,0,1.3,0.1,1.8,0.2c0.5,0.1,0.9,0.2,1.3,0.3l-0.5,2c-0.3-0.2-0.6-0.2-1-0.2
	c-0.4-0.1-0.8-0.1-1.4-0.1c-0.5,0-1,0.1-1.4,0.2s-0.8,0.4-1.1,0.8c-0.3,0.3-0.6,0.8-0.7,1.3c-0.2,0.6-0.2,1.2-0.2,2
	c0,0.7,0.1,1.3,0.2,1.9c0.2,0.6,0.4,1,0.7,1.3c0.3,0.3,0.6,0.6,1,0.8c0.4,0.2,0.8,0.2,1.3,0.2c0.3,0,0.6-0.1,0.9-0.2
	c0.3-0.1,0.5-0.2,0.7-0.3v-2.3l-2.7-0.3L878.8,579L878.8,579z"/>
<path class="st22" d="M884.5,584.3c0-0.4,0.2-0.7,0.4-1s0.6-0.3,1-0.3c0.4,0,0.8,0.2,1.1,0.3c0.2,0.2,0.4,0.5,0.4,1
	c0,0.5-0.2,0.7-0.4,1c-0.2,0.2-0.6,0.4-1.1,0.4c-0.4,0-0.8-0.2-1-0.4C884.7,585.1,884.5,584.8,884.5,584.3"/>
<path class="st22" d="M895.5,573.1h2.3v7.9c0,0.8-0.1,1.5-0.3,2c-0.2,0.6-0.5,1.1-0.9,1.4c-0.4,0.4-0.9,0.6-1.3,0.8
	c-0.5,0.2-1.2,0.2-1.8,0.2c-3.1,0-4.7-1.4-4.7-4.2v-8.2h2.4v7.8c0,0.5,0.1,0.9,0.2,1.3c0.1,0.4,0.2,0.6,0.4,0.8
	c0.2,0.2,0.4,0.3,0.7,0.4c0.3,0.1,0.6,0.2,1,0.2c0.7,0,1.3-0.2,1.6-0.6c0.3-0.4,0.5-1.1,0.5-2V573.1L895.5,573.1z"/>
<path class="st22" d="M905.2,582.8h-3.8l-0.9,2.7h-2.4l4.5-12.4h1.8l4.5,12.4h-2.5L905.2,582.8z M902,580.8h2.7l-0.9-2.7l-0.4-1.9
	h-0.1l-0.4,2L902,580.8z"/>
<text transform="matrix(1.0236 0 0 1 678.6602 294.8211)" class="st43 st50 st53">12</text>
<text transform="matrix(1.0236 0 0 1 678.6602 264.0204)" class="st43 st50 st53">12</text>
<text transform="matrix(1.0236 0 0 1 238.335 328.4422)" class="st43 st50 st53">10</text>
<text transform="matrix(1.0236 0 0 1 238.335 360.7254)" class="st43 st50 st53">10</text>
<text transform="matrix(1.0236 0 0 1 238.335 391.8338)" class="st43 st50 st53">10</text>
<text transform="matrix(1.0236 0 0 1 660.0312 360.7254)" class="st43 st50 st53">10</text>
<text transform="matrix(1.0236 0 0 1 660.0312 391.8338)" class="st43 st50 st53">10</text>
<text transform="matrix(1.0236 0 0 1 661.3926 424.5946)" class="st43 st50 st53">10</text>
<text transform="matrix(1.0236 0 0 1 225.5088 489.5819)" class="st43 st50 st53">8</text>
<text transform="matrix(1.0236 0 0 1 644.6074 488.7157)" class="st43 st50 st53">8</text>
<text transform="matrix(1 0 0 1 897.0566 233.6337)" class="st8 st50 st53">5,1</text>
<text transform="matrix(1 0 0 1 886.2627 265.2303)" class="st8 st50 st53">4,7</text>
<text transform="matrix(1.0236 0 0 1 900.5205 488.7157)" class="st8 st50 st53">5</text>
<text transform="matrix(1.0236 0 0 1 903.5811 329.3084)" class="st8 st50 st53">5</text>
<text transform="matrix(1 0 0 1 890.3369 360.7254)" class="st8 st50 st53">4</text>
<text transform="matrix(1 0 0 1 890.873 393.9247)" class="st8 st50 st53">4,5</text>
<path class="st37" d="M723.1,374.7c-14,0-25.4-7.6-25.4-17v-33.9c0-9.4,11.3-17,25.4-17H898c14,0,25.4,7.6,25.4,17v33.9
	c0,9.4-11.3,17-25.4,17H723.1z"/>
<text transform="matrix(1 0 0 1 708.751 324.9784)" class="st8 st57 st60">У державних лікарнях</text>
<text transform="matrix(1 0 0 1 708.751 339.0057)" class="st8 st57 st60">лікарям готові платити </text>
<text transform="matrix(1 0 0 1 708.751 353.034)" class="st8 st57 st60">менше, ніж швачкам </text>
<text transform="matrix(1 0 0 1 708.751 367.0614)" class="st8 st57 st60">на виробництві</text>
<rect x="955.4" y="147.5" class="st2" width="4.6" height="1.4"/>
</svg>
