<?xml version="1.0" encoding="utf-8"?>
<!-- Generator: Adobe Illustrator 22.1.0, SVG Export Plug-In . SVG Version: 6.00 Build 0)  -->
<svg version="1.1" id="Шар_1" xmlns="http://www.w3.org/2000/svg" xmlns:xlink="http://www.w3.org/1999/xlink" x="0px" y="0px"
	 viewBox="0 0 960 502" style="enable-background:new 0 0 960 502;" xml:space="preserve">
<style type="text/css">
	.st0{fill:none;}
	.st1{fill:none;stroke:#1D1D1B;stroke-width:0.3;}
	.st2{fill:url(#);}
	.st3{opacity:0.76;fill:#FFFFFF;enable-background:new    ;}
	.st4{fill:none;stroke:#CCCCCC;stroke-width:0.8;stroke-linecap:round;stroke-linejoin:round;}
	.st5{fill:#328DEF;stroke:#328DEF;stroke-width:4;stroke-linecap:round;stroke-linejoin:round;}
	.st6{fill:none;stroke:#CDD500;stroke-width:4;stroke-linecap:round;stroke-linejoin:round;}
	.st7{fill:none;stroke:#CCCCCC;stroke-width:0.8;stroke-linecap:square;}
	.st8{fill:#262626;}
	.st9{fill:#878787;}
	.st10{clip-path:url(#SVGID_12_);fill:#328DEF;stroke:#328DEF;stroke-width:4;stroke-linecap:round;stroke-linejoin:round;}
	.st11{clip-path:url(#SVGID_14_);fill:none;stroke:#CDD500;stroke-width:4;stroke-linecap:round;stroke-linejoin:round;}
	.st12{clip-path:url(#SVGID_16_);fill:#328DEF;stroke:#328DEF;stroke-width:4;stroke-linecap:round;stroke-linejoin:round;}
	.st13{clip-path:url(#SVGID_18_);fill:none;stroke:#CDD500;stroke-width:4;stroke-linecap:round;stroke-linejoin:round;}
	.st14{clip-path:url(#SVGID_20_);fill:none;stroke:#CDD500;stroke-width:4;stroke-linecap:round;stroke-linejoin:round;}
	.st15{clip-path:url(#SVGID_42_);fill:#328DEF;stroke:#328DEF;stroke-width:4;stroke-linecap:round;stroke-linejoin:round;}
	.st16{clip-path:url(#SVGID_44_);fill:none;stroke:#CDD500;stroke-width:4;stroke-linecap:round;stroke-linejoin:round;}
	.st17{enable-background:new    ;}
	.st18{fill:#A9B10A;}
	.st19{fill:#328DEF;}
	.st20{clip-path:url(#SVGID_46_);fill:#328DEF;stroke:#328DEF;stroke-width:4;stroke-linecap:round;stroke-linejoin:round;}
	.st21{clip-path:url(#SVGID_48_);fill:none;stroke:#CDD500;stroke-width:4;stroke-linecap:round;stroke-linejoin:round;}
	.st22{fill:#3A3F4A;}
	.st23{fill:#6D6E70;}
	.st24{fill:url(#SVGID_49_);}
	.st25{fill:url(#SVGID_50_);}
	.st26{fill:url(#SVGID_51_);}
	.st27{clip-path:url(#SVGID_53_);fill:none;stroke:#CCCCCC;stroke-width:0.8;stroke-linecap:round;stroke-linejoin:round;}
	.st28{clip-path:url(#SVGID_55_);fill:none;stroke:#CCCCCC;stroke-width:0.8;stroke-linecap:round;stroke-linejoin:round;}
	.st29{clip-path:url(#SVGID_57_);fill:none;stroke:#CCCCCC;stroke-width:0.8;stroke-linecap:round;stroke-linejoin:round;}
	.st30{clip-path:url(#SVGID_59_);fill:none;stroke:#CCCCCC;stroke-width:0.8;stroke-linecap:round;stroke-linejoin:round;}
	.st31{clip-path:url(#SVGID_61_);fill:none;stroke:#CCCCCC;stroke-width:0.8;stroke-linecap:round;stroke-linejoin:round;}
	.st32{clip-path:url(#SVGID_63_);fill:none;stroke:#CCCCCC;stroke-width:0.8;stroke-linecap:round;stroke-linejoin:round;}
	.st33{font-family:'ClearSans';}
	.st34{font-size:14px;}
	.st35{font-family:'ClearSans-Italic';}
	.st36{font-size:14.6112px;}
	.st37{font-size:12px;}
	.st38{font-size:13.6166px;}
	.st39{font-family:'ClearSans-Bold';}
	.st40{font-size:10.2278px;}
	.st41{font-family:'ArialMT';}
	.st42{font-size:32px;}
	.st43{letter-spacing:1.1;}
	.st44{font-size:18px;}
	.st45{fill:none;stroke:#424242;stroke-width:4.05;stroke-linecap:round;stroke-linejoin:round;}
	.st46{fill:none;stroke:#CCCCCC;stroke-width:1.875;stroke-linecap:square;}
	.st47{fill:#F45150;}
	.st48{fill:#EAC700;}
	.st49{fill:none;stroke:#F45150;stroke-miterlimit:10;}
	.st50{fill:none;stroke:#878787;stroke-width:0.5;stroke-miterlimit:10;}
	.st51{fill:none;stroke:#328DEF;stroke-miterlimit:10;}
	.st52{fill:none;stroke:#FBD634;stroke-miterlimit:10;}
	.st53{fill:none;stroke:#878787;stroke-width:0.7;stroke-miterlimit:10;stroke-dasharray:3.0084,3.0084;}
	.st54{fill:none;stroke:#878787;stroke-width:0.7;stroke-miterlimit:10;stroke-dasharray:2.9961,2.9961;}
	.st55{fill:#FBD634;}
	.st56{fill:none;stroke:#FBD634;stroke-width:7;}
	.st57{fill:none;stroke:#328DEF;stroke-width:7;}
	.st58{fill:none;stroke:#F45150;stroke-width:7;}
	.st59{fill:#FFFFFF;}
	.st60{stroke:#000000;stroke-width:0.8;stroke-linejoin:round;}
	.st61{fill:none;stroke:#424242;stroke-width:2.7;stroke-linecap:square;stroke-linejoin:round;}
	.st62{fill:none;stroke:#000000;stroke-width:0.8;stroke-linecap:square;}
	.st63{fill:none;stroke:#878787;stroke-miterlimit:10;stroke-dasharray:3.0084,3.0084;}
</style>
<pattern  x="-27" y="-558.4" width="72" height="72" patternUnits="userSpaceOnUse" id="SVGID_8_" viewBox="72.3 -144.3 72 72" style="overflow:visible;">
	<g>
		<rect x="72.3" y="-144.3" class="st0" width="72" height="72"/>
		<g>
			<rect x="72.3" y="-144.3" class="st0" width="72" height="72"/>
			<g>
				<rect x="72.3" y="-144.3" class="st0" width="72" height="72"/>
				<g>
					<line class="st1" x1="78.3" y1="-72.5" x2="78.3" y2="0"/>
					<line class="st1" x1="102.3" y1="-72.5" x2="102.3" y2="0"/>
					<line class="st1" x1="126.3" y1="-72.5" x2="126.3" y2="0"/>
					<line class="st1" x1="90.3" y1="-72.5" x2="90.3" y2="0"/>
					<line class="st1" x1="114.3" y1="-72.5" x2="114.3" y2="0"/>
					<line class="st1" x1="138.3" y1="-72.5" x2="138.3" y2="0"/>
				</g>
				<g>
					<line class="st1" x1="144" y1="-78.3" x2="216.5" y2="-78.3"/>
					<line class="st1" x1="144" y1="-102.3" x2="216.5" y2="-102.3"/>
					<line class="st1" x1="144" y1="-126.3" x2="216.5" y2="-126.3"/>
					<line class="st1" x1="144" y1="-90.3" x2="216.5" y2="-90.3"/>
					<line class="st1" x1="144" y1="-114.3" x2="216.5" y2="-114.3"/>
					<line class="st1" x1="144" y1="-138.3" x2="216.5" y2="-138.3"/>
				</g>
				<g>
					<line class="st1" x1="78.3" y1="-144.5" x2="78.3" y2="-72"/>
					<line class="st1" x1="102.3" y1="-144.5" x2="102.3" y2="-72"/>
					<line class="st1" x1="126.3" y1="-144.5" x2="126.3" y2="-72"/>
					<line class="st1" x1="72" y1="-78.3" x2="144.5" y2="-78.3"/>
					<line class="st1" x1="72" y1="-102.3" x2="144.5" y2="-102.3"/>
					<line class="st1" x1="72" y1="-126.3" x2="144.5" y2="-126.3"/>
					<line class="st1" x1="72" y1="-90.3" x2="144.5" y2="-90.3"/>
					<line class="st1" x1="72" y1="-114.3" x2="144.5" y2="-114.3"/>
					<line class="st1" x1="72" y1="-138.3" x2="144.5" y2="-138.3"/>
					<line class="st1" x1="90.3" y1="-144.5" x2="90.3" y2="-72"/>
					<line class="st1" x1="114.3" y1="-144.5" x2="114.3" y2="-72"/>
					<line class="st1" x1="138.3" y1="-144.5" x2="138.3" y2="-72"/>
				</g>
				<g>
					<line class="st1" x1="0" y1="-78.3" x2="72.5" y2="-78.3"/>
					<line class="st1" x1="0" y1="-102.3" x2="72.5" y2="-102.3"/>
					<line class="st1" x1="0" y1="-126.3" x2="72.5" y2="-126.3"/>
					<line class="st1" x1="0" y1="-90.3" x2="72.5" y2="-90.3"/>
					<line class="st1" x1="0" y1="-114.3" x2="72.5" y2="-114.3"/>
					<line class="st1" x1="0" y1="-138.3" x2="72.5" y2="-138.3"/>
				</g>
				<g>
					<line class="st1" x1="78.3" y1="-216.5" x2="78.3" y2="-144"/>
					<line class="st1" x1="102.3" y1="-216.5" x2="102.3" y2="-144"/>
					<line class="st1" x1="126.3" y1="-216.5" x2="126.3" y2="-144"/>
					<line class="st1" x1="90.3" y1="-216.5" x2="90.3" y2="-144"/>
					<line class="st1" x1="114.3" y1="-216.5" x2="114.3" y2="-144"/>
					<line class="st1" x1="138.3" y1="-216.5" x2="138.3" y2="-144"/>
				</g>
			</g>
		</g>
	</g>
</pattern>
<pattern  x="-27" y="-558.4" width="72" height="72" patternUnits="userSpaceOnUse" id="SVGID_9_" viewBox="72.3 -144.3 72 72" style="overflow:visible;">
	<g>
		<rect x="72.3" y="-144.3" class="st0" width="72" height="72"/>
		<g>
			<rect x="72.3" y="-144.3" class="st0" width="72" height="72"/>
			<g>
				<rect x="72.3" y="-144.3" class="st0" width="72" height="72"/>
				<g>
					<line class="st1" x1="78.3" y1="-72.5" x2="78.3" y2="0"/>
					<line class="st1" x1="102.3" y1="-72.5" x2="102.3" y2="0"/>
					<line class="st1" x1="126.3" y1="-72.5" x2="126.3" y2="0"/>
					<line class="st1" x1="90.3" y1="-72.5" x2="90.3" y2="0"/>
					<line class="st1" x1="114.3" y1="-72.5" x2="114.3" y2="0"/>
					<line class="st1" x1="138.3" y1="-72.5" x2="138.3" y2="0"/>
				</g>
				<g>
					<line class="st1" x1="144" y1="-78.3" x2="216.5" y2="-78.3"/>
					<line class="st1" x1="144" y1="-102.3" x2="216.5" y2="-102.3"/>
					<line class="st1" x1="144" y1="-126.3" x2="216.5" y2="-126.3"/>
					<line class="st1" x1="144" y1="-90.3" x2="216.5" y2="-90.3"/>
					<line class="st1" x1="144" y1="-114.3" x2="216.5" y2="-114.3"/>
					<line class="st1" x1="144" y1="-138.3" x2="216.5" y2="-138.3"/>
				</g>
				<g>
					<line class="st1" x1="78.3" y1="-144.5" x2="78.3" y2="-72"/>
					<line class="st1" x1="102.3" y1="-144.5" x2="102.3" y2="-72"/>
					<line class="st1" x1="126.3" y1="-144.5" x2="126.3" y2="-72"/>
					<line class="st1" x1="72" y1="-78.3" x2="144.5" y2="-78.3"/>
					<line class="st1" x1="72" y1="-102.3" x2="144.5" y2="-102.3"/>
					<line class="st1" x1="72" y1="-126.3" x2="144.5" y2="-126.3"/>
					<line class="st1" x1="72" y1="-90.3" x2="144.5" y2="-90.3"/>
					<line class="st1" x1="72" y1="-114.3" x2="144.5" y2="-114.3"/>
					<line class="st1" x1="72" y1="-138.3" x2="144.5" y2="-138.3"/>
					<line class="st1" x1="90.3" y1="-144.5" x2="90.3" y2="-72"/>
					<line class="st1" x1="114.3" y1="-144.5" x2="114.3" y2="-72"/>
					<line class="st1" x1="138.3" y1="-144.5" x2="138.3" y2="-72"/>
				</g>
				<g>
					<line class="st1" x1="0" y1="-78.3" x2="72.5" y2="-78.3"/>
					<line class="st1" x1="0" y1="-102.3" x2="72.5" y2="-102.3"/>
					<line class="st1" x1="0" y1="-126.3" x2="72.5" y2="-126.3"/>
					<line class="st1" x1="0" y1="-90.3" x2="72.5" y2="-90.3"/>
					<line class="st1" x1="0" y1="-114.3" x2="72.5" y2="-114.3"/>
					<line class="st1" x1="0" y1="-138.3" x2="72.5" y2="-138.3"/>
				</g>
				<g>
					<line class="st1" x1="78.3" y1="-216.5" x2="78.3" y2="-144"/>
					<line class="st1" x1="102.3" y1="-216.5" x2="102.3" y2="-144"/>
					<line class="st1" x1="126.3" y1="-216.5" x2="126.3" y2="-144"/>
					<line class="st1" x1="90.3" y1="-216.5" x2="90.3" y2="-144"/>
					<line class="st1" x1="114.3" y1="-216.5" x2="114.3" y2="-144"/>
					<line class="st1" x1="138.3" y1="-216.5" x2="138.3" y2="-144"/>
				</g>
			</g>
		</g>
	</g>
</pattern>
<pattern  x="-27" y="-558.4" width="72" height="72" patternUnits="userSpaceOnUse" id="SVGID_10_" viewBox="72.3 -144.3 72 72" style="overflow:visible;">
	<g>
		<rect x="72.3" y="-144.3" class="st0" width="72" height="72"/>
		<g>
			<rect x="72.3" y="-144.3" class="st0" width="72" height="72"/>
			<g>
				<rect x="72.3" y="-144.3" class="st0" width="72" height="72"/>
				<g>
					<line class="st1" x1="78.3" y1="-72.5" x2="78.3" y2="0"/>
					<line class="st1" x1="102.3" y1="-72.5" x2="102.3" y2="0"/>
					<line class="st1" x1="126.3" y1="-72.5" x2="126.3" y2="0"/>
					<line class="st1" x1="90.3" y1="-72.5" x2="90.3" y2="0"/>
					<line class="st1" x1="114.3" y1="-72.5" x2="114.3" y2="0"/>
					<line class="st1" x1="138.3" y1="-72.5" x2="138.3" y2="0"/>
				</g>
				<g>
					<line class="st1" x1="144" y1="-78.3" x2="216.5" y2="-78.3"/>
					<line class="st1" x1="144" y1="-102.3" x2="216.5" y2="-102.3"/>
					<line class="st1" x1="144" y1="-126.3" x2="216.5" y2="-126.3"/>
					<line class="st1" x1="144" y1="-90.3" x2="216.5" y2="-90.3"/>
					<line class="st1" x1="144" y1="-114.3" x2="216.5" y2="-114.3"/>
					<line class="st1" x1="144" y1="-138.3" x2="216.5" y2="-138.3"/>
				</g>
				<g>
					<line class="st1" x1="78.3" y1="-144.5" x2="78.3" y2="-72"/>
					<line class="st1" x1="102.3" y1="-144.5" x2="102.3" y2="-72"/>
					<line class="st1" x1="126.3" y1="-144.5" x2="126.3" y2="-72"/>
					<line class="st1" x1="72" y1="-78.3" x2="144.5" y2="-78.3"/>
					<line class="st1" x1="72" y1="-102.3" x2="144.5" y2="-102.3"/>
					<line class="st1" x1="72" y1="-126.3" x2="144.5" y2="-126.3"/>
					<line class="st1" x1="72" y1="-90.3" x2="144.5" y2="-90.3"/>
					<line class="st1" x1="72" y1="-114.3" x2="144.5" y2="-114.3"/>
					<line class="st1" x1="72" y1="-138.3" x2="144.5" y2="-138.3"/>
					<line class="st1" x1="90.3" y1="-144.5" x2="90.3" y2="-72"/>
					<line class="st1" x1="114.3" y1="-144.5" x2="114.3" y2="-72"/>
					<line class="st1" x1="138.3" y1="-144.5" x2="138.3" y2="-72"/>
				</g>
				<g>
					<line class="st1" x1="0" y1="-78.3" x2="72.5" y2="-78.3"/>
					<line class="st1" x1="0" y1="-102.3" x2="72.5" y2="-102.3"/>
					<line class="st1" x1="0" y1="-126.3" x2="72.5" y2="-126.3"/>
					<line class="st1" x1="0" y1="-90.3" x2="72.5" y2="-90.3"/>
					<line class="st1" x1="0" y1="-114.3" x2="72.5" y2="-114.3"/>
					<line class="st1" x1="0" y1="-138.3" x2="72.5" y2="-138.3"/>
				</g>
				<g>
					<line class="st1" x1="78.3" y1="-216.5" x2="78.3" y2="-144"/>
					<line class="st1" x1="102.3" y1="-216.5" x2="102.3" y2="-144"/>
					<line class="st1" x1="126.3" y1="-216.5" x2="126.3" y2="-144"/>
					<line class="st1" x1="90.3" y1="-216.5" x2="90.3" y2="-144"/>
					<line class="st1" x1="114.3" y1="-216.5" x2="114.3" y2="-144"/>
					<line class="st1" x1="138.3" y1="-216.5" x2="138.3" y2="-144"/>
				</g>
			</g>
		</g>
	</g>
</pattern>
<g id="back_2_">
	<pattern  id="SVGID_12_" xlink:href="#SVGID_8_" patternTransform="matrix(1.4249 0 0 1.4249 9675.4365 27908.0098)">
	</pattern>
	<rect x="72.3" y="170.5" style="fill:url(#SVGID_12_);" width="187.2" height="246.3"/>
	<pattern  id="SVGID_14_" xlink:href="#SVGID_9_" patternTransform="matrix(1.4249 0 0 1.4249 9721.1436 27908.1934)">
	</pattern>
	<rect x="388.1" y="170.8" style="fill:url(#SVGID_14_);" width="187.2" height="246.3"/>
	<pattern  id="SVGID_16_" xlink:href="#SVGID_10_" patternTransform="matrix(1.4249 0 0 1.4249 9663.9414 27906.291)">
	</pattern>
	<rect x="703.5" y="168.4" style="fill:url(#SVGID_16_);" width="187.2" height="246.3"/>
	<rect x="14.9" y="138.3" class="st3" width="298.9" height="328.3"/>
	<rect x="330.7" y="124" class="st3" width="298.9" height="301.3"/>
	<polygon class="st3" points="646.1,160.3 945.7,157.9 940.5,425.4 641.5,425.4 	"/>
</g>
<g id="Шар_1_3_">
	<g id="xtick_1_1_">
		<g id="line2d_1_1_">
			<g>
				<g>
					<g>
						<g>
							<g>
								<defs>
									<rect id="SVGID_52_" x="387.4" y="170.4" width="205.7" height="247.5"/>
								</defs>
								<clipPath id="SVGID_18_">
									<use xlink:href="#SVGID_52_"  style="overflow:visible;"/>
								</clipPath>
								
									<path style="clip-path:url(#SVGID_18_);fill:none;stroke:#CCCCCC;stroke-width:0.8;stroke-linecap:round;stroke-linejoin:round;" d="
									M396.7,417.9V170.4"/>
							</g>
						</g>
					</g>
				</g>
			</g>
		</g>
	</g>
	<rect x="387.4" y="170.4" class="st0" width="205.7" height="247.5"/>
	<g id="xtick_3_1_">
		<g id="line2d_3_1_">
			<g>
				<g>
					<g>
						<g>
							<g>
								<defs>
									<rect id="SVGID_54_" x="387.4" y="170.4" width="205.7" height="247.5"/>
								</defs>
								<clipPath id="SVGID_20_">
									<use xlink:href="#SVGID_54_"  style="overflow:visible;"/>
								</clipPath>
								
									<path style="clip-path:url(#SVGID_20_);fill:none;stroke:#CCCCCC;stroke-width:0.8;stroke-linecap:round;stroke-linejoin:round;" d="
									M583.7,417.9V170.4"/>
							</g>
						</g>
					</g>
				</g>
			</g>
		</g>
	</g>
	<rect x="387.4" y="170.4" class="st0" width="205.7" height="247.5"/>
	<path class="st5" d="M396.7,373.2l187-0.8"/>
	<rect x="387.4" y="170.4" class="st0" width="205.7" height="247.5"/>
	<rect x="387.4" y="170.4" class="st0" width="205.7" height="247.5"/>
	<path class="st6" d="M396.7,403.1l187-0.1"/>
	<rect x="387.4" y="170.4" class="st0" width="205.7" height="247.5"/>
	<rect x="387.4" y="170.4" class="st0" width="205.7" height="247.5"/>
	<rect x="387.4" y="170.4" class="st0" width="205.7" height="247.5"/>
	<g id="xtick_4_2_">
		<g id="line2d_13_1_">
			<g>
				<g>
					<g>
						<g>
							<g>
								<defs>
									<rect id="SVGID_56_" x="701.7" y="169.4" width="205.7" height="247.5"/>
								</defs>
								<clipPath id="SVGID_42_">
									<use xlink:href="#SVGID_56_"  style="overflow:visible;"/>
								</clipPath>
								
									<path style="clip-path:url(#SVGID_42_);fill:none;stroke:#CCCCCC;stroke-width:0.8;stroke-linecap:round;stroke-linejoin:round;" d="
									M711,416.9V169.4"/>
							</g>
						</g>
					</g>
				</g>
			</g>
		</g>
	</g>
	<rect x="701.7" y="169.4" class="st0" width="205.7" height="247.5"/>
	<g id="xtick_6_2_">
		<g id="line2d_15_1_">
			<g>
				<g>
					<g>
						<g>
							<g>
								<defs>
									<rect id="SVGID_58_" x="701.7" y="169.4" width="205.7" height="247.5"/>
								</defs>
								<clipPath id="SVGID_44_">
									<use xlink:href="#SVGID_58_"  style="overflow:visible;"/>
								</clipPath>
								
									<path style="clip-path:url(#SVGID_44_);fill:none;stroke:#CCCCCC;stroke-width:0.8;stroke-linecap:round;stroke-linejoin:round;" d="
									M898,416.9V169.4"/>
							</g>
						</g>
					</g>
				</g>
			</g>
		</g>
	</g>
	<g id="ytick_7_2_">
		<g id="line2d_16_2_">
			<g>
				<g>
					<g>
						<g>
							<g>
								<defs>
									<rect id="SVGID_60_" x="701.7" y="169.4" width="205.7" height="247.5"/>
								</defs>
								<clipPath id="SVGID_46_">
									<use xlink:href="#SVGID_60_"  style="overflow:visible;"/>
								</clipPath>
							</g>
						</g>
					</g>
				</g>
				<g>
					<g>
						<g>
							<g>
								<defs>
									<rect id="SVGID_62_" x="701.7" y="169.4" width="205.7" height="247.5"/>
								</defs>
								<clipPath id="SVGID_48_">
									<use xlink:href="#SVGID_62_"  style="overflow:visible;"/>
								</clipPath>
							</g>
						</g>
					</g>
				</g>
			</g>
		</g>
	</g>
	<rect x="701.7" y="169.4" class="st0" width="205.7" height="247.5"/>
	<rect x="701.7" y="169.4" class="st0" width="205.7" height="247.5"/>
	<rect x="701.7" y="169.4" class="st0" width="205.7" height="247.5"/>
	<path class="st5" d="M711,386.4l187,0.1"/>
	<rect x="701.7" y="169.4" class="st0" width="205.7" height="247.5"/>
	<path class="st6" d="M711,401.6l187-0.8"/>
	<rect x="701.7" y="169.4" class="st0" width="205.7" height="247.5"/>
	<rect x="701.7" y="169.4" class="st0" width="205.7" height="247.5"/>
	<rect x="71" y="169.8" class="st0" width="205.7" height="247.5"/>
	<path class="st4" d="M80.3,417.1V169.5"/>
	<rect x="71" y="169.8" class="st0" width="205.7" height="247.5"/>
	<rect x="71" y="169.8" class="st0" width="205.7" height="247.5"/>
	<path class="st4" d="M267.2,417.1V169.5"/>
	<rect x="71" y="169.8" class="st0" width="205.7" height="247.5"/>
	<rect x="71" y="169.8" class="st0" width="205.7" height="247.5"/>
	<rect x="71" y="169.8" class="st0" width="205.7" height="247.5"/>
	<rect x="71" y="169.8" class="st0" width="205.7" height="247.5"/>
	<rect x="71" y="169.8" class="st0" width="205.7" height="247.5"/>
	<rect x="71" y="169.8" class="st0" width="205.7" height="247.5"/>
	<rect x="71" y="169.8" class="st0" width="205.7" height="247.5"/>
	<rect x="71" y="169.8" class="st0" width="205.7" height="247.5"/>
	<path class="st5" d="M80.3,402l187-0.8"/>
	<rect x="71" y="169.8" class="st0" width="205.7" height="247.5"/>
	<rect x="71" y="169.8" class="st0" width="205.7" height="247.5"/>
	<path class="st6" d="M80.3,216.4l187.2-35.2"/>
	<rect x="71" y="169.8" class="st0" width="205.7" height="247.5"/>
	<rect x="71" y="169.8" class="st0" width="205.7" height="247.5"/>
	<rect x="71" y="169.8" class="st0" width="205.7" height="247.5"/>
	<text transform="matrix(1 0 0 1 138.6171 139.7025)" class="st9 st33 st34">Швачка</text>
	<text transform="matrix(1 0 0 1 130.8818 420.3042)" class="st19 st35 st36">Випускники</text>
	<text transform="matrix(1 0 0 1 456.4105 139.703)" class="st9 st33 st34">Кравець</text>
	<text transform="matrix(1 0 0 1 763.285 139.702)" class="st9 st33 st34">Закрійник</text>
	<text transform="matrix(1 0 0 1 34.1064 221.5424)" class="st9 st33 st37">9 552</text>
	<text transform="matrix(1 0 0 1 44.6718 406.2729)" class="st9 st33 st38">510</text>
	<text transform="matrix(1 0 0 1 349.4179 375.0835)" class="st9 st33 st37">1 886</text>
	<text transform="matrix(1 0 0 1 359.9828 408.8647)" class="st9 st33 st37">480</text>
	<text transform="matrix(1 0 0 1 664.331 386.4096)" class="st9 st33 st37">1 222</text>
	<text transform="matrix(1 0 0 1 675.9072 415.7036)" class="st9 st33 st37">380</text>
	<text transform="matrix(1 0 0 1 906.457 386.4096)" class="st9 st33 st37">1 226</text>
	<text transform="matrix(1 0 0 1 906.457 415.7036)" class="st9 st33 st37">313</text>
	<text transform="matrix(1 0 0 1 591.2451 375.0835)" class="st9 st33 st37">1 955</text>
	<text transform="matrix(1 0 0 1 591.2451 408.8647)" class="st9 st33 st37">492</text>
	<text transform="matrix(1 0 0 1 276.9052 405.8247)" class="st9 st33 st38">547</text>
	<text transform="matrix(1 0 0 1 276.9052 183.6548)" class="st9 st33 st37">11 273</text>
	<text transform="matrix(1 0 0 1 63.8198 157.894)" class="st9 st39 st40">2016</text>
	<text transform="matrix(1 0 0 1 250.6918 157.894)" class="st9 st39 st40">2017</text>
	<text transform="matrix(1 0 0 1 381.8569 157.894)" class="st9 st39 st40">2016</text>
	<text transform="matrix(1 0 0 1 568.7285 157.894)" class="st9 st39 st40">2017</text>
	<text transform="matrix(1 0 0 1 696.9726 157.894)" class="st9 st39 st40">2016</text>
	<text transform="matrix(1 0 0 1 883.8427 157.894)" class="st9 st39 st40">2017</text>
	<text transform="matrix(1 0 0 1 88.6861 0)" class="st41 st37"> </text>
	<text transform="matrix(0.9437 0 0 1 38.0721 61.8691)" class="st9 st39 st42 st43">ШВАЦЬКІ ПРОФЕСІЇ</text>
	<g>
		<text transform="matrix(0.9437 0 0 1 39.4699 87.4363)" class="st9 st33 st44">Хоча на швачок попит різко зростає, вчитися за цим фахом ідуть неохоче. </text>
		<text transform="matrix(0.9437 0 0 1 39.4695 108.5113)" class="st9 st33 st44">Популярніші більш творчі швацькі професії, на які рідше шукають робітників </text>
	</g>
	<text transform="matrix(1 0 0 1 38.0721 468.0325)" class="st9 st33 st34">Дані: Державна служба зайнятості, ДП «Інфоресурс»</text>
	<text transform="matrix(1 0 0 1 141.288 226.1567)" class="st18 st35 st36">Вакансії</text>
</g>
<g>
	<g>
		<polygon class="st22" points="826.1,462.4 822.5,462.4 822.5,472.6 820,472.6 820,462.4 816.4,462.4 816.4,460.3 826.1,460.3 		
			"/>
		<polygon class="st22" points="827,460.3 834.2,460.3 834.2,462.4 829.3,462.4 829.3,465.3 833.9,465.3 833.9,467.4 829.3,467.4 
			829.3,470.5 834.3,470.5 834.3,472.6 827,472.6 		"/>
		<polygon class="st22" points="838.8,466.3 835.2,460.3 838.2,460.3 840.1,463.8 840.5,465.1 840.9,463.8 842.9,460.3 845.5,460.3 
			842,466.2 845.7,472.6 842.9,472.6 840.6,468.8 840.2,467.4 839.7,468.8 837.6,472.6 834.9,472.6 		"/>
		<polygon class="st22" points="855.7,462.4 852,462.4 852,472.6 849.6,472.6 849.6,462.4 846,462.4 846,460.3 855.7,460.3 		"/>
		<polygon class="st22" points="860.4,468 856.3,460.3 859.2,460.3 861.5,464.9 861.7,466.2 861.8,466.2 862,464.9 864.2,460.3 
			866.9,460.3 862.8,468 862.8,472.6 860.4,472.6 		"/>
	</g>
	<path class="st23" d="M865.1,471.5c0-0.4,0.1-0.8,0.4-1c0.3-0.2,0.6-0.4,1-0.4c0.5,0,0.8,0.1,1.1,0.4c0.3,0.2,0.4,0.6,0.4,1
		s-0.1,0.8-0.4,1c-0.3,0.3-0.6,0.4-1.1,0.4c-0.4,0-0.8-0.1-1-0.4C865.2,472.2,865.1,471.9,865.1,471.5"/>
	<path class="st23" d="M869,466.5c0-2.1,0.5-3.6,1.4-4.7c0.9-1.1,2.2-1.7,3.8-1.7c0.9,0,1.7,0.2,2.4,0.5s1.2,0.8,1.7,1.3
		c0.4,0.6,0.8,1.3,1,2.1c0.2,0.8,0.3,1.7,0.3,2.7c0,2.1-0.5,3.6-1.4,4.7c-0.9,1.1-2.2,1.7-3.8,1.7c-0.9,0-1.7-0.2-2.4-0.5
		s-1.2-0.8-1.7-1.3c-0.4-0.6-0.8-1.3-1-2.1C869.1,468.2,869,467.4,869,466.5 M871.6,466.5c0,0.6,0.1,1.2,0.2,1.8
		c0.1,0.5,0.3,1,0.5,1.4s0.5,0.7,0.9,0.9c0.3,0.2,0.8,0.3,1.2,0.3c0.9,0,1.6-0.3,2-1c0.5-0.7,0.7-1.8,0.7-3.2c0-0.6,0-1.2-0.1-1.7
		s-0.3-1-0.5-1.4s-0.5-0.7-0.8-0.9c-0.3-0.2-0.8-0.3-1.3-0.3c-0.9,0-1.5,0.4-2,1.1C871.8,463.9,871.6,465,871.6,466.5"/>
	<path class="st23" d="M880.9,460.4c0.3,0,0.6-0.1,0.9-0.1c0.3,0,0.6-0.1,1-0.1c0.3,0,0.6,0,0.9-0.1c0.3,0,0.6,0,0.8,0
		c0.6,0,1.2,0.1,1.7,0.2c0.6,0.1,1.1,0.3,1.5,0.6c0.5,0.3,0.8,0.6,1.1,1.1s0.4,1,0.4,1.7c0,1-0.2,1.9-0.7,2.5s-1.1,1.1-1.9,1.3
		l0.9,0.6l2.8,4.7h-2.8l-2.8-4.8l-1.3-0.2v5.1h-2.5V460.4L880.9,460.4z M884.5,462.2c-0.3,0-0.5,0-0.7,0s-0.4,0-0.6,0.1v3.5h1
		c0.7,0,1.2-0.2,1.6-0.5c0.4-0.3,0.6-0.8,0.6-1.5c0-0.5-0.2-1-0.5-1.3C885.7,462.3,885.2,462.2,884.5,462.2"/>
	<path class="st23" d="M895,466.2h4.6v5.5c-0.5,0.4-1.1,0.7-1.8,0.9c-0.7,0.2-1.4,0.3-2.1,0.3c-0.8,0-1.5-0.1-2.2-0.4
		s-1.3-0.6-1.8-1.2c-0.5-0.5-0.9-1.2-1.2-2s-0.4-1.8-0.4-2.8c0-1.2,0.2-2.2,0.5-2.9s0.8-1.5,1.3-2c0.6-0.5,1.2-0.9,1.9-1.1
		s1.4-0.4,2.1-0.4c0.7,0,1.4,0.1,1.9,0.2s1,0.2,1.3,0.3l-0.5,2.1c-0.3-0.1-0.6-0.2-1-0.3c-0.4-0.1-0.8-0.1-1.4-0.1
		c-0.5,0-1,0.1-1.4,0.2c-0.4,0.2-0.8,0.4-1.1,0.8s-0.6,0.8-0.7,1.4c-0.2,0.6-0.3,1.2-0.3,2s0.1,1.4,0.3,1.9s0.4,1,0.7,1.4
		s0.6,0.6,1.1,0.8c0.4,0.2,0.8,0.3,1.3,0.3c0.3,0,0.6,0,0.9-0.1c0.3-0.1,0.5-0.2,0.8-0.3v-2.4l-2.7-0.3v-1.7L895,466.2L895,466.2z"
		/>
	<path class="st23" d="M900.6,471.5c0-0.4,0.1-0.8,0.4-1c0.3-0.2,0.6-0.4,1-0.4c0.5,0,0.8,0.1,1.1,0.4c0.3,0.2,0.4,0.6,0.4,1
		s-0.1,0.8-0.4,1c-0.3,0.3-0.6,0.4-1.1,0.4c-0.4,0-0.8-0.1-1-0.4C900.7,472.2,900.6,471.9,900.6,471.5"/>
	<path class="st23" d="M911.7,460.3h2.3v8c0,0.8-0.1,1.5-0.3,2.1s-0.5,1.1-0.9,1.5s-0.9,0.7-1.4,0.8c-0.5,0.2-1.2,0.3-1.8,0.3
		c-3.1,0-4.7-1.5-4.7-4.3v-8.3h2.5v7.8c0,0.5,0,0.9,0.1,1.3c0.1,0.3,0.2,0.6,0.4,0.8c0.2,0.2,0.4,0.4,0.7,0.5s0.6,0.1,1,0.1
		c0.8,0,1.3-0.2,1.6-0.6s0.5-1.1,0.5-2L911.7,460.3L911.7,460.3L911.7,460.3z"/>
	<path class="st23" d="M921.4,469.9h-3.8l-1,2.8h-2.5l4.4-12.5h1.8l4.4,12.5h-2.6L921.4,469.9z M918.2,467.9h2.7l-0.9-2.8l-0.4-2
		h-0.1l-0.4,2L918.2,467.9z"/>
</g>
</svg>
