<?xml version="1.0" encoding="utf-8"?>
<!-- Generator: Adobe Illustrator 22.1.0, SVG Export Plug-In . SVG Version: 6.00 Build 0)  -->
<svg version="1.1" id="Шар_1" xmlns="http://www.w3.org/2000/svg" xmlns:xlink="http://www.w3.org/1999/xlink" x="0px" y="0px"
	 viewBox="0 0 960 439.5" style="enable-background:new 0 0 960 439.5;" xml:space="preserve">
<style type="text/css">
	.st0{fill:none;}
	.st1{fill:none;stroke:#1D1D1B;stroke-width:0.3;}
	.st2{fill:url(#);}
	.st3{opacity:0.76;fill:#FFFFFF;enable-background:new    ;}
	.st4{fill:none;stroke:#CCCCCC;stroke-width:0.8;stroke-linecap:round;stroke-linejoin:round;}
	.st5{fill:#328DEF;stroke:#328DEF;stroke-width:4;stroke-linecap:round;stroke-linejoin:round;}
	.st6{fill:none;stroke:#CDD500;stroke-width:4;stroke-linecap:round;stroke-linejoin:round;}
	.st7{fill:none;stroke:#CCCCCC;stroke-width:0.8;stroke-linecap:square;}
	.st8{fill:#262626;}
	.st9{fill:#878787;}
	.st10{clip-path:url(#SVGID_9_);fill:#328DEF;stroke:#328DEF;stroke-width:4;stroke-linecap:round;stroke-linejoin:round;}
	.st11{clip-path:url(#SVGID_11_);fill:none;stroke:#CDD500;stroke-width:4;stroke-linecap:round;stroke-linejoin:round;}
	.st12{clip-path:url(#SVGID_16_);fill:#328DEF;stroke:#328DEF;stroke-width:4;stroke-linecap:round;stroke-linejoin:round;}
	.st13{clip-path:url(#SVGID_18_);fill:none;stroke:#CDD500;stroke-width:4;stroke-linecap:round;stroke-linejoin:round;}
	.st14{clip-path:url(#SVGID_20_);fill:none;stroke:#CDD500;stroke-width:4;stroke-linecap:round;stroke-linejoin:round;}
	.st15{clip-path:url(#SVGID_42_);fill:#328DEF;stroke:#328DEF;stroke-width:4;stroke-linecap:round;stroke-linejoin:round;}
	.st16{clip-path:url(#SVGID_44_);fill:none;stroke:#CDD500;stroke-width:4;stroke-linecap:round;stroke-linejoin:round;}
	.st17{enable-background:new    ;}
	.st18{fill:#A9B10A;}
	.st19{fill:#328DEF;}
	.st20{clip-path:url(#SVGID_46_);fill:#328DEF;stroke:#328DEF;stroke-width:4;stroke-linecap:round;stroke-linejoin:round;}
	.st21{clip-path:url(#SVGID_48_);fill:none;stroke:#CDD500;stroke-width:4;stroke-linecap:round;stroke-linejoin:round;}
	.st22{fill:#3A3F4A;}
	.st23{fill:#6D6E70;}
	.st24{fill:url(#SVGID_49_);}
	.st25{fill:url(#SVGID_50_);}
	.st26{fill:url(#SVGID_51_);}
	.st27{fill:url(#SVGID_52_);}
	.st28{font-family:'ClearSans';}
	.st29{font-size:14.8237px;}
	.st30{font-size:7.982px;}
	.st31{font-family:'ClearSans-Italic';}
	.st32{font-size:11.4028px;}
	.st33{font-size:7.8584px;}
	.st34{letter-spacing:44.4;}
	.st35{font-family:'ClearSans-Bold';}
	.st36{font-size:32px;}
	.st37{letter-spacing:1.1;}
	.st38{font-size:14px;}
	.st39{font-size:18px;}
	.st40{clip-path:url(#SVGID_54_);fill:none;stroke:#CCCCCC;stroke-width:0.8;stroke-linecap:round;stroke-linejoin:round;}
	.st41{clip-path:url(#SVGID_56_);fill:none;stroke:#CCCCCC;stroke-width:0.8;stroke-linecap:round;stroke-linejoin:round;}
	.st42{clip-path:url(#SVGID_58_);fill:none;stroke:#CCCCCC;stroke-width:0.8;stroke-linecap:round;stroke-linejoin:round;}
	.st43{clip-path:url(#SVGID_60_);fill:none;stroke:#CCCCCC;stroke-width:0.8;stroke-linecap:round;stroke-linejoin:round;}
	.st44{clip-path:url(#SVGID_62_);fill:none;stroke:#CCCCCC;stroke-width:0.8;stroke-linecap:round;stroke-linejoin:round;}
	.st45{clip-path:url(#SVGID_64_);fill:none;stroke:#CCCCCC;stroke-width:0.8;stroke-linecap:round;stroke-linejoin:round;}
	.st46{fill:none;stroke:#424242;stroke-width:4.05;stroke-linecap:round;stroke-linejoin:round;}
	.st47{fill:none;stroke:#CCCCCC;stroke-width:1.875;stroke-linecap:square;}
	.st48{fill:#F45150;}
	.st49{fill:#EAC700;}
	.st50{fill:none;stroke:#F45150;stroke-miterlimit:10;}
	.st51{fill:none;stroke:#878787;stroke-width:0.5;stroke-miterlimit:10;}
	.st52{fill:none;stroke:#328DEF;stroke-miterlimit:10;}
	.st53{fill:none;stroke:#FBD634;stroke-miterlimit:10;}
	.st54{fill:none;stroke:#878787;stroke-width:0.7;stroke-miterlimit:10;stroke-dasharray:3.0084,3.0084;}
	.st55{fill:none;stroke:#878787;stroke-width:0.7;stroke-miterlimit:10;stroke-dasharray:2.9961,2.9961;}
	.st56{fill:#FBD634;}
	.st57{fill:none;stroke:#FBD634;stroke-width:7;}
	.st58{fill:none;stroke:#328DEF;stroke-width:7;}
	.st59{fill:none;stroke:#F45150;stroke-width:7;}
	.st60{fill:#FFFFFF;}
	.st61{stroke:#000000;stroke-width:0.8;stroke-linejoin:round;}
	.st62{fill:none;stroke:#424242;stroke-width:2.7;stroke-linecap:square;stroke-linejoin:round;}
	.st63{fill:none;stroke:#000000;stroke-width:0.8;stroke-linecap:square;}
	.st64{fill:none;stroke:#878787;stroke-miterlimit:10;stroke-dasharray:3.0084,3.0084;}
</style>
<pattern  x="-27" y="-53.7" width="72" height="72" patternUnits="userSpaceOnUse" id="SVGID_12_2" viewBox="72.3 -144.3 72 72" style="overflow:visible;">
	<g>
		<rect x="72.3" y="-144.3" class="st0" width="72" height="72"/>
		<g>
			<rect x="72.3" y="-144.3" class="st0" width="72" height="72"/>
			<g>
				<rect x="72.3" y="-144.3" class="st0" width="72" height="72"/>
				<g>
					<rect x="72.3" y="-144.3" class="st0" width="72" height="72"/>
					<g>
						<rect x="72.3" y="-144.3" class="st0" width="72" height="72"/>
						<g>
							<line class="st1" x1="78.3" y1="-72.5" x2="78.3" y2="0"/>
							<line class="st1" x1="102.3" y1="-72.5" x2="102.3" y2="0"/>
							<line class="st1" x1="126.3" y1="-72.5" x2="126.3" y2="0"/>
							<line class="st1" x1="90.3" y1="-72.5" x2="90.3" y2="0"/>
							<line class="st1" x1="114.3" y1="-72.5" x2="114.3" y2="0"/>
							<line class="st1" x1="138.3" y1="-72.5" x2="138.3" y2="0"/>
						</g>
						<g>
							<line class="st1" x1="144" y1="-78.3" x2="216.5" y2="-78.3"/>
							<line class="st1" x1="144" y1="-102.3" x2="216.5" y2="-102.3"/>
							<line class="st1" x1="144" y1="-126.3" x2="216.5" y2="-126.3"/>
							<line class="st1" x1="144" y1="-90.3" x2="216.5" y2="-90.3"/>
							<line class="st1" x1="144" y1="-114.3" x2="216.5" y2="-114.3"/>
							<line class="st1" x1="144" y1="-138.3" x2="216.5" y2="-138.3"/>
						</g>
						<g>
							<line class="st1" x1="78.3" y1="-144.5" x2="78.3" y2="-72"/>
							<line class="st1" x1="102.3" y1="-144.5" x2="102.3" y2="-72"/>
							<line class="st1" x1="126.3" y1="-144.5" x2="126.3" y2="-72"/>
							<line class="st1" x1="72" y1="-78.3" x2="144.5" y2="-78.3"/>
							<line class="st1" x1="72" y1="-102.3" x2="144.5" y2="-102.3"/>
							<line class="st1" x1="72" y1="-126.3" x2="144.5" y2="-126.3"/>
							<line class="st1" x1="72" y1="-90.3" x2="144.5" y2="-90.3"/>
							<line class="st1" x1="72" y1="-114.3" x2="144.5" y2="-114.3"/>
							<line class="st1" x1="72" y1="-138.3" x2="144.5" y2="-138.3"/>
							<line class="st1" x1="90.3" y1="-144.5" x2="90.3" y2="-72"/>
							<line class="st1" x1="114.3" y1="-144.5" x2="114.3" y2="-72"/>
							<line class="st1" x1="138.3" y1="-144.5" x2="138.3" y2="-72"/>
						</g>
						<g>
							<line class="st1" x1="0" y1="-78.3" x2="72.5" y2="-78.3"/>
							<line class="st1" x1="0" y1="-102.3" x2="72.5" y2="-102.3"/>
							<line class="st1" x1="0" y1="-126.3" x2="72.5" y2="-126.3"/>
							<line class="st1" x1="0" y1="-90.3" x2="72.5" y2="-90.3"/>
							<line class="st1" x1="0" y1="-114.3" x2="72.5" y2="-114.3"/>
							<line class="st1" x1="0" y1="-138.3" x2="72.5" y2="-138.3"/>
						</g>
						<g>
							<line class="st1" x1="78.3" y1="-216.5" x2="78.3" y2="-144"/>
							<line class="st1" x1="102.3" y1="-216.5" x2="102.3" y2="-144"/>
							<line class="st1" x1="126.3" y1="-216.5" x2="126.3" y2="-144"/>
							<line class="st1" x1="90.3" y1="-216.5" x2="90.3" y2="-144"/>
							<line class="st1" x1="114.3" y1="-216.5" x2="114.3" y2="-144"/>
							<line class="st1" x1="138.3" y1="-216.5" x2="138.3" y2="-144"/>
						</g>
					</g>
				</g>
			</g>
		</g>
	</g>
</pattern>
<pattern  x="-27" y="-53.7" width="72" height="72" patternUnits="userSpaceOnUse" id="SVGID_13_" viewBox="72.3 -144.3 72 72" style="overflow:visible;">
	<g>
		<rect x="72.3" y="-144.3" class="st0" width="72" height="72"/>
		<g>
			<rect x="72.3" y="-144.3" class="st0" width="72" height="72"/>
			<g>
				<rect x="72.3" y="-144.3" class="st0" width="72" height="72"/>
				<g>
					<rect x="72.3" y="-144.3" class="st0" width="72" height="72"/>
					<g>
						<rect x="72.3" y="-144.3" class="st0" width="72" height="72"/>
						<g>
							<line class="st1" x1="78.3" y1="-72.5" x2="78.3" y2="0"/>
							<line class="st1" x1="102.3" y1="-72.5" x2="102.3" y2="0"/>
							<line class="st1" x1="126.3" y1="-72.5" x2="126.3" y2="0"/>
							<line class="st1" x1="90.3" y1="-72.5" x2="90.3" y2="0"/>
							<line class="st1" x1="114.3" y1="-72.5" x2="114.3" y2="0"/>
							<line class="st1" x1="138.3" y1="-72.5" x2="138.3" y2="0"/>
						</g>
						<g>
							<line class="st1" x1="144" y1="-78.3" x2="216.5" y2="-78.3"/>
							<line class="st1" x1="144" y1="-102.3" x2="216.5" y2="-102.3"/>
							<line class="st1" x1="144" y1="-126.3" x2="216.5" y2="-126.3"/>
							<line class="st1" x1="144" y1="-90.3" x2="216.5" y2="-90.3"/>
							<line class="st1" x1="144" y1="-114.3" x2="216.5" y2="-114.3"/>
							<line class="st1" x1="144" y1="-138.3" x2="216.5" y2="-138.3"/>
						</g>
						<g>
							<line class="st1" x1="78.3" y1="-144.5" x2="78.3" y2="-72"/>
							<line class="st1" x1="102.3" y1="-144.5" x2="102.3" y2="-72"/>
							<line class="st1" x1="126.3" y1="-144.5" x2="126.3" y2="-72"/>
							<line class="st1" x1="72" y1="-78.3" x2="144.5" y2="-78.3"/>
							<line class="st1" x1="72" y1="-102.3" x2="144.5" y2="-102.3"/>
							<line class="st1" x1="72" y1="-126.3" x2="144.5" y2="-126.3"/>
							<line class="st1" x1="72" y1="-90.3" x2="144.5" y2="-90.3"/>
							<line class="st1" x1="72" y1="-114.3" x2="144.5" y2="-114.3"/>
							<line class="st1" x1="72" y1="-138.3" x2="144.5" y2="-138.3"/>
							<line class="st1" x1="90.3" y1="-144.5" x2="90.3" y2="-72"/>
							<line class="st1" x1="114.3" y1="-144.5" x2="114.3" y2="-72"/>
							<line class="st1" x1="138.3" y1="-144.5" x2="138.3" y2="-72"/>
						</g>
						<g>
							<line class="st1" x1="0" y1="-78.3" x2="72.5" y2="-78.3"/>
							<line class="st1" x1="0" y1="-102.3" x2="72.5" y2="-102.3"/>
							<line class="st1" x1="0" y1="-126.3" x2="72.5" y2="-126.3"/>
							<line class="st1" x1="0" y1="-90.3" x2="72.5" y2="-90.3"/>
							<line class="st1" x1="0" y1="-114.3" x2="72.5" y2="-114.3"/>
							<line class="st1" x1="0" y1="-138.3" x2="72.5" y2="-138.3"/>
						</g>
						<g>
							<line class="st1" x1="78.3" y1="-216.5" x2="78.3" y2="-144"/>
							<line class="st1" x1="102.3" y1="-216.5" x2="102.3" y2="-144"/>
							<line class="st1" x1="126.3" y1="-216.5" x2="126.3" y2="-144"/>
							<line class="st1" x1="90.3" y1="-216.5" x2="90.3" y2="-144"/>
							<line class="st1" x1="114.3" y1="-216.5" x2="114.3" y2="-144"/>
							<line class="st1" x1="138.3" y1="-216.5" x2="138.3" y2="-144"/>
						</g>
					</g>
				</g>
			</g>
		</g>
	</g>
</pattern>
<pattern  x="-27" y="-53.7" width="72" height="72" patternUnits="userSpaceOnUse" id="SVGID_14_" viewBox="72.3 -144.3 72 72" style="overflow:visible;">
	<g>
		<rect x="72.3" y="-144.3" class="st0" width="72" height="72"/>
		<g>
			<rect x="72.3" y="-144.3" class="st0" width="72" height="72"/>
			<g>
				<rect x="72.3" y="-144.3" class="st0" width="72" height="72"/>
				<g>
					<rect x="72.3" y="-144.3" class="st0" width="72" height="72"/>
					<g>
						<rect x="72.3" y="-144.3" class="st0" width="72" height="72"/>
						<g>
							<line class="st1" x1="78.3" y1="-72.5" x2="78.3" y2="0"/>
							<line class="st1" x1="102.3" y1="-72.5" x2="102.3" y2="0"/>
							<line class="st1" x1="126.3" y1="-72.5" x2="126.3" y2="0"/>
							<line class="st1" x1="90.3" y1="-72.5" x2="90.3" y2="0"/>
							<line class="st1" x1="114.3" y1="-72.5" x2="114.3" y2="0"/>
							<line class="st1" x1="138.3" y1="-72.5" x2="138.3" y2="0"/>
						</g>
						<g>
							<line class="st1" x1="144" y1="-78.3" x2="216.5" y2="-78.3"/>
							<line class="st1" x1="144" y1="-102.3" x2="216.5" y2="-102.3"/>
							<line class="st1" x1="144" y1="-126.3" x2="216.5" y2="-126.3"/>
							<line class="st1" x1="144" y1="-90.3" x2="216.5" y2="-90.3"/>
							<line class="st1" x1="144" y1="-114.3" x2="216.5" y2="-114.3"/>
							<line class="st1" x1="144" y1="-138.3" x2="216.5" y2="-138.3"/>
						</g>
						<g>
							<line class="st1" x1="78.3" y1="-144.5" x2="78.3" y2="-72"/>
							<line class="st1" x1="102.3" y1="-144.5" x2="102.3" y2="-72"/>
							<line class="st1" x1="126.3" y1="-144.5" x2="126.3" y2="-72"/>
							<line class="st1" x1="72" y1="-78.3" x2="144.5" y2="-78.3"/>
							<line class="st1" x1="72" y1="-102.3" x2="144.5" y2="-102.3"/>
							<line class="st1" x1="72" y1="-126.3" x2="144.5" y2="-126.3"/>
							<line class="st1" x1="72" y1="-90.3" x2="144.5" y2="-90.3"/>
							<line class="st1" x1="72" y1="-114.3" x2="144.5" y2="-114.3"/>
							<line class="st1" x1="72" y1="-138.3" x2="144.5" y2="-138.3"/>
							<line class="st1" x1="90.3" y1="-144.5" x2="90.3" y2="-72"/>
							<line class="st1" x1="114.3" y1="-144.5" x2="114.3" y2="-72"/>
							<line class="st1" x1="138.3" y1="-144.5" x2="138.3" y2="-72"/>
						</g>
						<g>
							<line class="st1" x1="0" y1="-78.3" x2="72.5" y2="-78.3"/>
							<line class="st1" x1="0" y1="-102.3" x2="72.5" y2="-102.3"/>
							<line class="st1" x1="0" y1="-126.3" x2="72.5" y2="-126.3"/>
							<line class="st1" x1="0" y1="-90.3" x2="72.5" y2="-90.3"/>
							<line class="st1" x1="0" y1="-114.3" x2="72.5" y2="-114.3"/>
							<line class="st1" x1="0" y1="-138.3" x2="72.5" y2="-138.3"/>
						</g>
						<g>
							<line class="st1" x1="78.3" y1="-216.5" x2="78.3" y2="-144"/>
							<line class="st1" x1="102.3" y1="-216.5" x2="102.3" y2="-144"/>
							<line class="st1" x1="126.3" y1="-216.5" x2="126.3" y2="-144"/>
							<line class="st1" x1="90.3" y1="-216.5" x2="90.3" y2="-144"/>
							<line class="st1" x1="114.3" y1="-216.5" x2="114.3" y2="-144"/>
							<line class="st1" x1="138.3" y1="-216.5" x2="138.3" y2="-144"/>
						</g>
					</g>
				</g>
			</g>
		</g>
	</g>
</pattern>
<pattern  x="-27" y="-53.7" width="72" height="72" patternUnits="userSpaceOnUse" id="SVGID_15_" viewBox="72.3 -144.3 72 72" style="overflow:visible;">
	<g>
		<rect x="72.3" y="-144.3" class="st0" width="72" height="72"/>
		<g>
			<rect x="72.3" y="-144.3" class="st0" width="72" height="72"/>
			<g>
				<rect x="72.3" y="-144.3" class="st0" width="72" height="72"/>
				<g>
					<rect x="72.3" y="-144.3" class="st0" width="72" height="72"/>
					<g>
						<rect x="72.3" y="-144.3" class="st0" width="72" height="72"/>
						<g>
							<line class="st1" x1="78.3" y1="-72.5" x2="78.3" y2="0"/>
							<line class="st1" x1="102.3" y1="-72.5" x2="102.3" y2="0"/>
							<line class="st1" x1="126.3" y1="-72.5" x2="126.3" y2="0"/>
							<line class="st1" x1="90.3" y1="-72.5" x2="90.3" y2="0"/>
							<line class="st1" x1="114.3" y1="-72.5" x2="114.3" y2="0"/>
							<line class="st1" x1="138.3" y1="-72.5" x2="138.3" y2="0"/>
						</g>
						<g>
							<line class="st1" x1="144" y1="-78.3" x2="216.5" y2="-78.3"/>
							<line class="st1" x1="144" y1="-102.3" x2="216.5" y2="-102.3"/>
							<line class="st1" x1="144" y1="-126.3" x2="216.5" y2="-126.3"/>
							<line class="st1" x1="144" y1="-90.3" x2="216.5" y2="-90.3"/>
							<line class="st1" x1="144" y1="-114.3" x2="216.5" y2="-114.3"/>
							<line class="st1" x1="144" y1="-138.3" x2="216.5" y2="-138.3"/>
						</g>
						<g>
							<line class="st1" x1="78.3" y1="-144.5" x2="78.3" y2="-72"/>
							<line class="st1" x1="102.3" y1="-144.5" x2="102.3" y2="-72"/>
							<line class="st1" x1="126.3" y1="-144.5" x2="126.3" y2="-72"/>
							<line class="st1" x1="72" y1="-78.3" x2="144.5" y2="-78.3"/>
							<line class="st1" x1="72" y1="-102.3" x2="144.5" y2="-102.3"/>
							<line class="st1" x1="72" y1="-126.3" x2="144.5" y2="-126.3"/>
							<line class="st1" x1="72" y1="-90.3" x2="144.5" y2="-90.3"/>
							<line class="st1" x1="72" y1="-114.3" x2="144.5" y2="-114.3"/>
							<line class="st1" x1="72" y1="-138.3" x2="144.5" y2="-138.3"/>
							<line class="st1" x1="90.3" y1="-144.5" x2="90.3" y2="-72"/>
							<line class="st1" x1="114.3" y1="-144.5" x2="114.3" y2="-72"/>
							<line class="st1" x1="138.3" y1="-144.5" x2="138.3" y2="-72"/>
						</g>
						<g>
							<line class="st1" x1="0" y1="-78.3" x2="72.5" y2="-78.3"/>
							<line class="st1" x1="0" y1="-102.3" x2="72.5" y2="-102.3"/>
							<line class="st1" x1="0" y1="-126.3" x2="72.5" y2="-126.3"/>
							<line class="st1" x1="0" y1="-90.3" x2="72.5" y2="-90.3"/>
							<line class="st1" x1="0" y1="-114.3" x2="72.5" y2="-114.3"/>
							<line class="st1" x1="0" y1="-138.3" x2="72.5" y2="-138.3"/>
						</g>
						<g>
							<line class="st1" x1="78.3" y1="-216.5" x2="78.3" y2="-144"/>
							<line class="st1" x1="102.3" y1="-216.5" x2="102.3" y2="-144"/>
							<line class="st1" x1="126.3" y1="-216.5" x2="126.3" y2="-144"/>
							<line class="st1" x1="90.3" y1="-216.5" x2="90.3" y2="-144"/>
							<line class="st1" x1="114.3" y1="-216.5" x2="114.3" y2="-144"/>
							<line class="st1" x1="138.3" y1="-216.5" x2="138.3" y2="-144"/>
						</g>
					</g>
				</g>
			</g>
		</g>
	</g>
</pattern>
<g id="back_1_">
	<pattern  id="SVGID_9_" xlink:href="#SVGID_12_2" patternTransform="matrix(1 0 0 1 -161.2 34109.0039)">
	</pattern>
	<rect x="43.6" y="197.7" style="fill:url(#SVGID_9_);" width="127" height="150.6"/>
	<pattern  id="SVGID_11_" xlink:href="#SVGID_13_" patternTransform="matrix(0.9897 0 0 1 -506.4411 34109.0039)">
	</pattern>
	<rect x="287.9" y="197.7" style="fill:url(#SVGID_11_);" width="125.7" height="150.6"/>
	<pattern  id="SVGID_16_" xlink:href="#SVGID_14_" patternTransform="matrix(0.9897 0 0 1 -472.2143 34109.0039)">
	</pattern>
	<rect x="531.5" y="197.7" style="fill:url(#SVGID_16_);" width="125.7" height="150.6"/>
	<pattern  id="SVGID_18_" xlink:href="#SVGID_15_" patternTransform="matrix(0.9897 0 0 1 -437.3208 34109.0039)">
	</pattern>
	<rect x="775.8" y="197.7" style="fill:url(#SVGID_18_);" width="125.7" height="150.6"/>
	<polygon class="st3" points="11.1,152.3 954.9,152.3 954.9,365.7 12.9,369.7 	"/>
</g>
<g id="Шар_1_2_">
	<g>
		<text transform="matrix(1 0 0 1 803.6348 173.6763)" class="st9 st28 st29">Економіст</text>
	</g>
	<g>
		<text transform="matrix(1 0 0 1 315.0215 173.6763)" class="st9 st28 st29">Менеджер</text>
	</g>
	<g>
		<text transform="matrix(1 0 0 1 85.0615 173.6763)" class="st9 st28 st29">Юрист</text>
	</g>
	<g>
		<text transform="matrix(1 0 0 1 555.4004 173.6763)" class="st9 st28 st29">Обліковець</text>
	</g>
	<g>
		<text transform="matrix(1 0 0 1 160.0342 191.3784)" class="st9 st28 st30">2017</text>
	</g>
	<g>
		<text transform="matrix(1 0 0 1 36.9956 191.2398)" class="st9 st28 st30">2016</text>
	</g>
	<g>
		<text transform="matrix(1 0 0 1 82.8042 351.7798)" class="st18 st31 st32">Вакансії</text>
	</g>
	<text transform="matrix(1 0 0 1 80.8032 231.0083)" class="st19 st31 st32">Випускники</text>
	<g>
		<rect x="724.8" y="295.6" class="st0" width="45.2" height="88.1"/>
		<text transform="matrix(0.9 0 0 1 746.7998 301.3091)" class="st9 st28 st33">16 877</text>
		<text transform="matrix(0.9 0 0 1 751.3975 344.5308)" class="st9 st28 st33">5 567</text>
	</g>
	<g>
		<rect x="235.7" y="248.5" class="st0" width="45.2" height="88.1"/>
		<text transform="matrix(0.9 0 0 1 258.1943 273.8052)" class="st9 st28 st33">23 095</text>
		<text transform="matrix(0.9 0 0 1 257.6636 296.398)" class="st9 st28 st33">18 046</text>
	</g>
	<g>
		<rect x="-4" y="202.8" class="st0" width="45.2" height="144.2"/>
		<text transform="matrix(0.9 0 0 1 17.9883 208.4829)" class="st9 st28 st33">41 098</text>
		<text transform="matrix(0.9 0 0 1 22.3203 341.0933)" class="st9 st28 st33">6 154</text>
	</g>
	<g>
		<rect x="479.8" y="215.1" class="st0" width="45.2" height="144.2"/>
		<text transform="matrix(0.9 0 0 1 501.7705 271.8413)" class="st9 st28 st33">24 641</text>
		<text transform="matrix(0.9 0 0 1 502.0361 284.6109)" class="st9 st28 st33">21 548</text>
	</g>
	<g>
		<rect x="173.8" y="221.5" class="st0" width="45.2" height="144.2"/>
		<text transform="matrix(0.9 0 0 1 173.8086 227.146)" class="st9 st28 st33">36 272</text>
		<text transform="matrix(0.9 0 0 1 173.8086 239.9165)" class="st9 st28 st33 st34">  </text>
		<text transform="matrix(0.9 0 0 1 173.8086 343.0581)" class="st9 st28 st33">5 965</text>
	</g>
	<g>
		<rect x="905.2" y="300.6" class="st0" width="29.2" height="44.4"/>
		<text transform="matrix(0.9 0 0 1 905.2402 306.3843)" class="st9 st28 st33">15 525</text>
		<text transform="matrix(0.9 0 0 1 905.2402 332.1206)" class="st9 st28 st33 st34"> </text>
		<text transform="matrix(0.9 0 0 1 905.2402 341.5513)" class="st9 st28 st33">6 208</text>
	</g>
	<g>
		<rect x="418.1" y="251.5" class="st0" width="29.2" height="44.4"/>
		<text transform="matrix(0.9 0 0 1 418.0742 257.2691)" class="st9 st28 st33 st34"> </text>
		<text transform="matrix(0.9 0 0 1 418.0742 270.0386)" class="st9 st28 st33 st34"> </text>
		<text transform="matrix(0.9 0 0 1 418.0742 282.8091)" class="st9 st28 st33">20 614</text>
		<text transform="matrix(0.9 0 0 1 418.0742 292.2398)" class="st9 st28 st33">20 349</text>
	</g>
	<g>
		<rect x="661.2" y="233.9" class="st0" width="29.2" height="99.4"/>
		<text transform="matrix(0.9 0 0 1 661.1934 251.3755)" class="st9 st28 st33 st34"> </text>
		<text transform="matrix(0.9 0 0 1 661.1934 263.1626)" class="st9 st28 st33">25 947</text>
		<text transform="matrix(0.9 0 0 1 661.1934 290.6675)" class="st9 st28 st33 st34"> </text>
		<text transform="matrix(0.9 0 0 1 661.1934 306.3843)" class="st9 st28 st33">15 115</text>
	</g>
	<g>
		<text transform="matrix(0.9437 0 0 1 36.8745 59.188)" class="st9 st35 st36 st37">ПОПУЛЯРНІ ПРОФЕСІЇ</text>
	</g>
	<polyline class="st0" points="793.6,34.6 792.6,34.6 792.6,37 	"/>
	<g>
		<path class="st4" d="M287.7,348.3V198.6"/>
		<rect id="SVGID_41_" x="281.5" y="198.6" class="st0" width="138" height="149.7"/>
		<rect id="SVGID_40_" x="281.5" y="198.6" class="st0" width="138" height="149.7"/>
		<path class="st4" d="M413.2,348.3V198.6"/>
		<rect id="SVGID_39_" x="281.5" y="198.6" class="st0" width="138" height="149.7"/>
		<rect id="SVGID_38_" x="281.5" y="198.6" class="st0" width="138" height="149.7"/>
		<rect id="SVGID_37_" x="281.5" y="198.6" class="st0" width="138" height="149.7"/>
		<rect id="SVGID_36_" x="281.5" y="198.6" class="st0" width="138" height="149.7"/>
		<rect id="SVGID_35_" x="281.5" y="198.6" class="st0" width="138" height="149.7"/>
	</g>
	<path class="st4" d="M45.4,348.3V198.6"/>
	<path class="st4" d="M170.8,348.3V198.6"/>
	<rect id="SVGID_34_" x="39.3" y="198.6" class="st0" width="137.6" height="149.7"/>
	<path class="st5" d="M45.5,205.4l125.1,18.5"/>
	<rect id="SVGID_33_" x="39.3" y="198.6" class="st0" width="137.6" height="149.7"/>
	<rect id="SVGID_32_" x="39.3" y="198.6" class="st0" width="137.6" height="149.7"/>
	<path class="st6" d="M45.5,339.3l125.1,0.7"/>
	<rect id="SVGID_31_" x="39.3" y="198.6" class="st0" width="137.6" height="149.7"/>
	<rect id="SVGID_30_" x="39.3" y="198.6" class="st0" width="137.6" height="149.7"/>
	<rect id="SVGID_29_" x="39.3" y="198.6" class="st0" width="137.6" height="149.7"/>
	<rect id="SVGID_28_" x="38.4" y="198.6" class="st0" width="137.6" height="149.7"/>
	<rect id="SVGID_27_" x="38.4" y="198.6" class="st0" width="137.6" height="149.7"/>
	<rect id="SVGID_26_" x="38.4" y="198.6" class="st0" width="137.6" height="149.7"/>
	<rect id="SVGID_25_" x="38.4" y="198.6" class="st0" width="137.6" height="149.7"/>
	<rect id="SVGID_24_" x="38.4" y="198.6" class="st0" width="137.6" height="149.7"/>
	<rect id="SVGID_23_" x="38.4" y="198.6" class="st0" width="137.6" height="149.7"/>
	<rect id="SVGID_22_" x="38.4" y="198.6" class="st0" width="137.6" height="149.7"/>
	<g>
		<rect id="SVGID_7_" x="525.1" y="198.6" class="st0" width="138" height="149.7"/>
		<path class="st4" d="M531.4,348.3V198.6"/>
		<rect id="SVGID_6_" x="525.1" y="198.6" class="st0" width="138" height="149.7"/>
		<path class="st4" d="M656.7,348.3V198.6"/>
		<rect id="SVGID_5_" x="525.1" y="198.6" class="st0" width="138" height="149.7"/>
		<rect id="SVGID_4_" x="525.1" y="198.6" class="st0" width="138" height="149.7"/>
		<rect id="SVGID_3_" x="525.1" y="198.6" class="st0" width="138" height="149.7"/>
		<rect id="SVGID_2_" x="525.1" y="198.6" class="st0" width="138" height="149.7"/>
		<rect id="SVGID_1_" x="525.1" y="198.6" class="st0" width="138" height="149.7"/>
	</g>
	<path class="st5" d="M286.6,274.3l127,9.5"/>
	<path class="st6" d="M286.6,293.7l127-8.8"/>
	<path class="st5" d="M530.5,280.3l126.7,24.6"/>
	<path class="st6" d="M530.5,268.4l126.7-5"/>
	<path class="st4" d="M775.1,348.3V198.6"/>
	<path class="st4" d="M900.6,348.3V198.6"/>
	<path class="st5" d="M774.8,298.2l126.4,5.2"/>
	<path class="st6" d="M774.8,341.5l126.4-2.5"/>
	<g>
		<text transform="matrix(1 0 0 1 40.5536 410.1746)" class="st9 st28 st38">Дані: Державна служба зайнятості, ДП «Інфоресурс»</text>
	</g>
	<g>
		<g>
			<polygon class="st22" points="835.6,401.1 831.9,401.1 831.9,411.3 829.5,411.3 829.5,401.1 825.8,401.1 825.8,399 835.6,399 			
				"/>
			<polygon class="st22" points="836.4,399 843.7,399 843.7,401.1 838.8,401.1 838.8,404 843.3,404 843.3,406.1 838.8,406.1 
				838.8,409.2 843.8,409.2 843.8,411.3 836.4,411.3 			"/>
			<polygon class="st22" points="848.2,405 844.7,399 847.6,399 849.6,402.5 850,403.8 850.4,402.5 852.3,399 855,399 851.5,404.9 
				855.2,411.3 852.3,411.3 850.1,407.5 849.7,406.1 849.2,407.5 847,411.3 844.4,411.3 			"/>
			<polygon class="st22" points="865.1,401.1 861.5,401.1 861.5,411.3 859,411.3 859,401.1 855.5,401.1 855.5,399 865.1,399 			"/>
			<polygon class="st22" points="869.8,406.7 865.8,399 868.7,399 870.9,403.6 871.1,404.9 871.2,404.9 871.5,403.6 873.7,399 
				876.3,399 872.3,406.7 872.3,411.3 869.8,411.3 			"/>
		</g>
		<path class="st23" d="M874.5,410.2c0-0.4,0.1-0.8,0.4-1c0.3-0.2,0.6-0.4,1-0.4c0.5,0,0.8,0.1,1.1,0.4c0.3,0.2,0.4,0.6,0.4,1
			s-0.1,0.8-0.4,1c-0.3,0.3-0.6,0.4-1.1,0.4c-0.4,0-0.8-0.1-1-0.4C874.6,410.9,874.5,410.6,874.5,410.2"/>
		<path class="st23" d="M878.5,405.2c0-2.1,0.5-3.6,1.4-4.7c0.9-1.1,2.2-1.7,3.8-1.7c0.9,0,1.7,0.2,2.4,0.5s1.2,0.8,1.7,1.3
			c0.4,0.6,0.8,1.3,1,2.1c0.2,0.8,0.3,1.7,0.3,2.7c0,2.1-0.5,3.6-1.4,4.7c-0.9,1.1-2.2,1.7-3.8,1.7c-0.9,0-1.7-0.2-2.4-0.5
			c-0.7-0.3-1.2-0.8-1.7-1.3c-0.4-0.6-0.8-1.3-1-2.1C878.6,406.9,878.5,406,878.5,405.2 M881,405.2c0,0.6,0.1,1.2,0.2,1.8
			c0.1,0.5,0.3,1,0.5,1.4c0.2,0.4,0.5,0.7,0.9,0.9c0.3,0.2,0.8,0.3,1.2,0.3c0.9,0,1.6-0.3,2-1c0.5-0.7,0.7-1.8,0.7-3.2
			c0-0.6,0-1.2-0.1-1.7s-0.3-1-0.5-1.4s-0.5-0.7-0.8-0.9c-0.3-0.2-0.8-0.3-1.3-0.3c-0.9,0-1.5,0.4-2,1.1
			C881.2,402.6,881,403.7,881,405.2"/>
		<path class="st23" d="M890.4,399.1c0.3,0,0.6-0.1,0.9-0.1c0.3,0,0.6-0.1,1-0.1c0.3,0,0.6,0,0.9-0.1c0.3,0,0.6,0,0.8,0
			c0.6,0,1.2,0.1,1.7,0.2c0.6,0.1,1.1,0.3,1.5,0.6c0.5,0.3,0.8,0.6,1.1,1.1s0.4,1,0.4,1.7c0,1-0.2,1.9-0.7,2.5s-1.1,1.1-1.9,1.3
			l0.9,0.6l2.8,4.7h-2.8l-2.8-4.8l-1.3-0.2v5.1h-2.5V399.1L890.4,399.1z M894,400.9c-0.3,0-0.5,0-0.7,0s-0.4,0-0.6,0.1v3.5h1
			c0.7,0,1.2-0.2,1.6-0.5c0.4-0.3,0.6-0.8,0.6-1.5c0-0.5-0.2-1-0.5-1.3C895.2,401,894.7,400.9,894,400.9"/>
		<path class="st23" d="M904.4,404.9h4.6v5.5c-0.5,0.4-1.1,0.7-1.8,0.9c-0.7,0.2-1.4,0.3-2.1,0.3c-0.8,0-1.5-0.1-2.2-0.4
			s-1.3-0.6-1.8-1.2c-0.5-0.5-0.9-1.2-1.2-2s-0.4-1.8-0.4-2.8c0-1.2,0.2-2.2,0.5-2.9s0.8-1.5,1.3-2c0.6-0.5,1.2-0.9,1.9-1.1
			s1.4-0.4,2.1-0.4c0.7,0,1.4,0.1,1.9,0.2s1,0.2,1.3,0.3l-0.5,2.1c-0.3-0.1-0.6-0.2-1-0.3c-0.4-0.1-0.8-0.1-1.4-0.1
			c-0.5,0-1,0.1-1.4,0.2c-0.4,0.2-0.8,0.4-1.1,0.8s-0.6,0.8-0.7,1.4c-0.2,0.6-0.3,1.2-0.3,2s0.1,1.4,0.3,1.9s0.4,1,0.7,1.4
			s0.6,0.6,1.1,0.8c0.4,0.2,0.8,0.3,1.3,0.3c0.3,0,0.6,0,0.9-0.1c0.3-0.1,0.5-0.2,0.8-0.3v-2.4l-2.7-0.3v-1.7L904.4,404.9
			L904.4,404.9z"/>
		<path class="st23" d="M910.1,410.2c0-0.4,0.1-0.8,0.4-1c0.3-0.2,0.6-0.4,1-0.4c0.5,0,0.8,0.1,1.1,0.4c0.3,0.2,0.4,0.6,0.4,1
			s-0.1,0.8-0.4,1c-0.3,0.3-0.6,0.4-1.1,0.4c-0.4,0-0.8-0.1-1-0.4C910.2,410.9,910.1,410.6,910.1,410.2"/>
		<path class="st23" d="M921.1,399h2.3v8c0,0.8-0.1,1.5-0.3,2.1s-0.5,1.1-0.9,1.5s-0.9,0.7-1.4,0.8c-0.5,0.2-1.2,0.3-1.8,0.3
			c-3.1,0-4.7-1.5-4.7-4.3V399h2.5v7.8c0,0.5,0,0.9,0.1,1.3c0.1,0.3,0.2,0.6,0.4,0.8c0.2,0.2,0.4,0.4,0.7,0.5s0.6,0.1,1,0.1
			c0.8,0,1.3-0.2,1.6-0.6s0.5-1.1,0.5-2L921.1,399L921.1,399L921.1,399z"/>
		<path class="st23" d="M930.8,408.6H927l-1,2.8h-2.5l4.4-12.5h1.8l4.4,12.5h-2.6L930.8,408.6z M927.7,406.6h2.7l-0.9-2.8l-0.4-2
			H929l-0.4,2L927.7,406.6z"/>
	</g>
	<rect x="39.5" y="73.4" class="st0" width="857.4" height="61.4"/>
	<text transform="matrix(0.9437 0 0 1 39.4697 84.1451)" class="st9 st28 st39">На графіку зображені спеціальності, які найбільш популярні серед вступників і за якими кількість випускників </text>
	<text transform="matrix(0.9437 0 0 1 39.4697 103.7915)" class="st9 st28 st39">2017 року, порівняно з попереднім, зменшилася. Серед цих професій найбільш затребуваними виявилися </text>
	<text transform="matrix(0.9437 0 0 1 39.4697 123.437)" class="st9 st28 st39">обліковці, а найбільше збігаються показники попиту та освіти у менеджерів.</text>
</g>
<rect x="36.6" y="48" class="st0" width="98.5" height="2.9"/>
</svg>
