<?xml version="1.0" encoding="utf-8"?>
<!-- Generator: Adobe Illustrator 22.1.0, SVG Export Plug-In . SVG Version: 6.00 Build 0)  -->
<svg version="1.1" id="Шар_1" xmlns="http://www.w3.org/2000/svg" xmlns:xlink="http://www.w3.org/1999/xlink" x="0px" y="0px"
	 viewBox="0 0 785.3 480" style="enable-background:new 0 0 785.3 480;" xml:space="preserve">
<style type="text/css">
	.st0{fill:none;}
	.st1{fill:none;stroke:#1D1D1B;stroke-width:0.3;}
	.st2{fill:url(#SVGID_4_);}
	.st3{fill:url(#SVGID_5_);}
	.st4{fill:url(#SVGID_6_);}
	.st5{opacity:0.76;fill:#FFFFFF;enable-background:new    ;}
	.st6{clip-path:url(#SVGID_8_);fill:none;stroke:#CCCCCC;stroke-width:0.8;stroke-linecap:round;stroke-linejoin:round;}
	.st7{clip-path:url(#SVGID_10_);fill:none;stroke:#CCCCCC;stroke-width:0.8;stroke-linecap:round;stroke-linejoin:round;}
	.st8{fill:#328DEF;stroke:#328DEF;stroke-width:4;stroke-linecap:round;stroke-linejoin:round;}
	.st9{fill:none;stroke:#CDD500;stroke-width:4;stroke-linecap:round;stroke-linejoin:round;}
	.st10{fill:none;stroke:#CCCCCC;stroke-width:0.8;stroke-linecap:square;}
	.st11{clip-path:url(#SVGID_12_);fill:none;stroke:#CCCCCC;stroke-width:0.8;stroke-linecap:round;stroke-linejoin:round;}
	.st12{clip-path:url(#SVGID_14_);fill:none;stroke:#CCCCCC;stroke-width:0.8;stroke-linecap:round;stroke-linejoin:round;}
	.st13{clip-path:url(#SVGID_16_);fill:none;stroke:#CCCCCC;stroke-width:0.8;stroke-linecap:round;stroke-linejoin:round;}
	.st14{clip-path:url(#SVGID_18_);fill:none;stroke:#CCCCCC;stroke-width:0.8;stroke-linecap:round;stroke-linejoin:round;}
	.st15{fill:none;stroke:#CCCCCC;stroke-width:0.8;stroke-linecap:round;stroke-linejoin:round;}
	.st16{fill:#878787;}
	.st17{font-family:'ClearSans';}
	.st18{font-size:15.0908px;}
	.st19{fill:#328DEF;}
	.st20{font-family:'ClearSans-Italic';}
	.st21{font-size:11.6083px;}
	.st22{font-size:10.8181px;}
	.st23{font-family:'ClearSans-Bold';}
	.st24{font-size:8.1258px;}
	.st25{enable-background:new    ;}
	.st26{font-size:31.1574px;}
	.st27{letter-spacing:1.1;}
	.st28{font-size:15px;}
	.st29{font-size:10.4475px;}
	.st30{fill:#A9B10A;}
	.st31{fill:#3A3F4A;}
	.st32{fill:#6D6E70;}
</style>
<pattern  y="480" width="72" height="72" patternUnits="userSpaceOnUse" id="SVGID_1_" viewBox="72.3 -144.2 72 72" style="overflow:visible;">
	<g>
		<rect x="72.3" y="-144.2" class="st0" width="72" height="72"/>
		<g>
			<rect x="72.3" y="-144.2" class="st0" width="72" height="72"/>
			<g>
				<line class="st1" x1="78.3" y1="-144" x2="78.3" y2="-216.5"/>
				<line class="st1" x1="102.3" y1="-144" x2="102.3" y2="-216.5"/>
				<line class="st1" x1="126.3" y1="-144" x2="126.3" y2="-216.5"/>
				<line class="st1" x1="90.3" y1="-144" x2="90.3" y2="-216.5"/>
				<line class="st1" x1="114.3" y1="-144" x2="114.3" y2="-216.5"/>
				<line class="st1" x1="138.3" y1="-144" x2="138.3" y2="-216.5"/>
			</g>
			<g>
				<line class="st1" x1="144" y1="-138.2" x2="216.5" y2="-138.2"/>
				<line class="st1" x1="144" y1="-114.2" x2="216.5" y2="-114.2"/>
				<line class="st1" x1="144" y1="-90.2" x2="216.5" y2="-90.2"/>
				<line class="st1" x1="144" y1="-126.2" x2="216.5" y2="-126.2"/>
				<line class="st1" x1="144" y1="-102.2" x2="216.5" y2="-102.2"/>
				<line class="st1" x1="144" y1="-78.2" x2="216.5" y2="-78.2"/>
			</g>
			<g>
				<line class="st1" x1="78.3" y1="-72" x2="78.3" y2="-144.5"/>
				<line class="st1" x1="102.3" y1="-72" x2="102.3" y2="-144.5"/>
				<line class="st1" x1="126.3" y1="-72" x2="126.3" y2="-144.5"/>
				<line class="st1" x1="72" y1="-138.2" x2="144.5" y2="-138.2"/>
				<line class="st1" x1="72" y1="-114.2" x2="144.5" y2="-114.2"/>
				<line class="st1" x1="72" y1="-90.2" x2="144.5" y2="-90.2"/>
				<line class="st1" x1="72" y1="-126.2" x2="144.5" y2="-126.2"/>
				<line class="st1" x1="72" y1="-102.2" x2="144.5" y2="-102.2"/>
				<line class="st1" x1="72" y1="-78.2" x2="144.5" y2="-78.2"/>
				<line class="st1" x1="90.3" y1="-72" x2="90.3" y2="-144.5"/>
				<line class="st1" x1="114.3" y1="-72" x2="114.3" y2="-144.5"/>
				<line class="st1" x1="138.3" y1="-72" x2="138.3" y2="-144.5"/>
			</g>
			<g>
				<line class="st1" x1="0" y1="-138.2" x2="72.5" y2="-138.2"/>
				<line class="st1" x1="0" y1="-114.2" x2="72.5" y2="-114.2"/>
				<line class="st1" x1="0" y1="-90.2" x2="72.5" y2="-90.2"/>
				<line class="st1" x1="0" y1="-126.2" x2="72.5" y2="-126.2"/>
				<line class="st1" x1="0" y1="-102.2" x2="72.5" y2="-102.2"/>
				<line class="st1" x1="0" y1="-78.2" x2="72.5" y2="-78.2"/>
			</g>
			<g>
				<line class="st1" x1="78.3" y1="0" x2="78.3" y2="-72.5"/>
				<line class="st1" x1="102.3" y1="0" x2="102.3" y2="-72.5"/>
				<line class="st1" x1="126.3" y1="0" x2="126.3" y2="-72.5"/>
				<line class="st1" x1="90.3" y1="0" x2="90.3" y2="-72.5"/>
				<line class="st1" x1="114.3" y1="0" x2="114.3" y2="-72.5"/>
				<line class="st1" x1="138.3" y1="0" x2="138.3" y2="-72.5"/>
			</g>
		</g>
	</g>
</pattern>
<pattern  y="480" width="72" height="72" patternUnits="userSpaceOnUse" id="SVGID_2_" viewBox="72.3 -144.2 72 72" style="overflow:visible;">
	<g>
		<rect x="72.3" y="-144.2" class="st0" width="72" height="72"/>
		<g>
			<rect x="72.3" y="-144.2" class="st0" width="72" height="72"/>
			<g>
				<line class="st1" x1="78.3" y1="-144" x2="78.3" y2="-216.5"/>
				<line class="st1" x1="102.3" y1="-144" x2="102.3" y2="-216.5"/>
				<line class="st1" x1="126.3" y1="-144" x2="126.3" y2="-216.5"/>
				<line class="st1" x1="90.3" y1="-144" x2="90.3" y2="-216.5"/>
				<line class="st1" x1="114.3" y1="-144" x2="114.3" y2="-216.5"/>
				<line class="st1" x1="138.3" y1="-144" x2="138.3" y2="-216.5"/>
			</g>
			<g>
				<line class="st1" x1="144" y1="-138.2" x2="216.5" y2="-138.2"/>
				<line class="st1" x1="144" y1="-114.2" x2="216.5" y2="-114.2"/>
				<line class="st1" x1="144" y1="-90.2" x2="216.5" y2="-90.2"/>
				<line class="st1" x1="144" y1="-126.2" x2="216.5" y2="-126.2"/>
				<line class="st1" x1="144" y1="-102.2" x2="216.5" y2="-102.2"/>
				<line class="st1" x1="144" y1="-78.2" x2="216.5" y2="-78.2"/>
			</g>
			<g>
				<line class="st1" x1="78.3" y1="-72" x2="78.3" y2="-144.5"/>
				<line class="st1" x1="102.3" y1="-72" x2="102.3" y2="-144.5"/>
				<line class="st1" x1="126.3" y1="-72" x2="126.3" y2="-144.5"/>
				<line class="st1" x1="72" y1="-138.2" x2="144.5" y2="-138.2"/>
				<line class="st1" x1="72" y1="-114.2" x2="144.5" y2="-114.2"/>
				<line class="st1" x1="72" y1="-90.2" x2="144.5" y2="-90.2"/>
				<line class="st1" x1="72" y1="-126.2" x2="144.5" y2="-126.2"/>
				<line class="st1" x1="72" y1="-102.2" x2="144.5" y2="-102.2"/>
				<line class="st1" x1="72" y1="-78.2" x2="144.5" y2="-78.2"/>
				<line class="st1" x1="90.3" y1="-72" x2="90.3" y2="-144.5"/>
				<line class="st1" x1="114.3" y1="-72" x2="114.3" y2="-144.5"/>
				<line class="st1" x1="138.3" y1="-72" x2="138.3" y2="-144.5"/>
			</g>
			<g>
				<line class="st1" x1="0" y1="-138.2" x2="72.5" y2="-138.2"/>
				<line class="st1" x1="0" y1="-114.2" x2="72.5" y2="-114.2"/>
				<line class="st1" x1="0" y1="-90.2" x2="72.5" y2="-90.2"/>
				<line class="st1" x1="0" y1="-126.2" x2="72.5" y2="-126.2"/>
				<line class="st1" x1="0" y1="-102.2" x2="72.5" y2="-102.2"/>
				<line class="st1" x1="0" y1="-78.2" x2="72.5" y2="-78.2"/>
			</g>
			<g>
				<line class="st1" x1="78.3" y1="0" x2="78.3" y2="-72.5"/>
				<line class="st1" x1="102.3" y1="0" x2="102.3" y2="-72.5"/>
				<line class="st1" x1="126.3" y1="0" x2="126.3" y2="-72.5"/>
				<line class="st1" x1="90.3" y1="0" x2="90.3" y2="-72.5"/>
				<line class="st1" x1="114.3" y1="0" x2="114.3" y2="-72.5"/>
				<line class="st1" x1="138.3" y1="0" x2="138.3" y2="-72.5"/>
			</g>
		</g>
	</g>
</pattern>
<pattern  y="480" width="72" height="72" patternUnits="userSpaceOnUse" id="SVGID_3_" viewBox="72.3 -144.2 72 72" style="overflow:visible;">
	<g>
		<rect x="72.3" y="-144.2" class="st0" width="72" height="72"/>
		<g>
			<rect x="72.3" y="-144.2" class="st0" width="72" height="72"/>
			<g>
				<line class="st1" x1="78.3" y1="-144" x2="78.3" y2="-216.5"/>
				<line class="st1" x1="102.3" y1="-144" x2="102.3" y2="-216.5"/>
				<line class="st1" x1="126.3" y1="-144" x2="126.3" y2="-216.5"/>
				<line class="st1" x1="90.3" y1="-144" x2="90.3" y2="-216.5"/>
				<line class="st1" x1="114.3" y1="-144" x2="114.3" y2="-216.5"/>
				<line class="st1" x1="138.3" y1="-144" x2="138.3" y2="-216.5"/>
			</g>
			<g>
				<line class="st1" x1="144" y1="-138.2" x2="216.5" y2="-138.2"/>
				<line class="st1" x1="144" y1="-114.2" x2="216.5" y2="-114.2"/>
				<line class="st1" x1="144" y1="-90.2" x2="216.5" y2="-90.2"/>
				<line class="st1" x1="144" y1="-126.2" x2="216.5" y2="-126.2"/>
				<line class="st1" x1="144" y1="-102.2" x2="216.5" y2="-102.2"/>
				<line class="st1" x1="144" y1="-78.2" x2="216.5" y2="-78.2"/>
			</g>
			<g>
				<line class="st1" x1="78.3" y1="-72" x2="78.3" y2="-144.5"/>
				<line class="st1" x1="102.3" y1="-72" x2="102.3" y2="-144.5"/>
				<line class="st1" x1="126.3" y1="-72" x2="126.3" y2="-144.5"/>
				<line class="st1" x1="72" y1="-138.2" x2="144.5" y2="-138.2"/>
				<line class="st1" x1="72" y1="-114.2" x2="144.5" y2="-114.2"/>
				<line class="st1" x1="72" y1="-90.2" x2="144.5" y2="-90.2"/>
				<line class="st1" x1="72" y1="-126.2" x2="144.5" y2="-126.2"/>
				<line class="st1" x1="72" y1="-102.2" x2="144.5" y2="-102.2"/>
				<line class="st1" x1="72" y1="-78.2" x2="144.5" y2="-78.2"/>
				<line class="st1" x1="90.3" y1="-72" x2="90.3" y2="-144.5"/>
				<line class="st1" x1="114.3" y1="-72" x2="114.3" y2="-144.5"/>
				<line class="st1" x1="138.3" y1="-72" x2="138.3" y2="-144.5"/>
			</g>
			<g>
				<line class="st1" x1="0" y1="-138.2" x2="72.5" y2="-138.2"/>
				<line class="st1" x1="0" y1="-114.2" x2="72.5" y2="-114.2"/>
				<line class="st1" x1="0" y1="-90.2" x2="72.5" y2="-90.2"/>
				<line class="st1" x1="0" y1="-126.2" x2="72.5" y2="-126.2"/>
				<line class="st1" x1="0" y1="-102.2" x2="72.5" y2="-102.2"/>
				<line class="st1" x1="0" y1="-78.2" x2="72.5" y2="-78.2"/>
			</g>
			<g>
				<line class="st1" x1="78.3" y1="0" x2="78.3" y2="-72.5"/>
				<line class="st1" x1="102.3" y1="0" x2="102.3" y2="-72.5"/>
				<line class="st1" x1="126.3" y1="0" x2="126.3" y2="-72.5"/>
				<line class="st1" x1="90.3" y1="0" x2="90.3" y2="-72.5"/>
				<line class="st1" x1="114.3" y1="0" x2="114.3" y2="-72.5"/>
				<line class="st1" x1="138.3" y1="0" x2="138.3" y2="-72.5"/>
			</g>
		</g>
	</g>
</pattern>
<g id="back">
	<pattern  id="SVGID_4_" xlink:href="#SVGID_1_" patternTransform="matrix(1.4249 0 0 -1.4249 6378.1509 -24264.3008)">
	</pattern>
	<rect x="77.6" y="211" class="st2" width="148.7" height="195.7"/>
	<pattern  id="SVGID_5_" xlink:href="#SVGID_2_" patternTransform="matrix(1.4249 0 0 -1.4249 6423.8579 -24264.4844)">
	</pattern>
	<rect x="328.5" y="211.2" class="st3" width="148.7" height="195.7"/>
	<pattern  id="SVGID_6_" xlink:href="#SVGID_3_" patternTransform="matrix(1.4249 0 0 -1.4249 6366.6562 -24262.582)">
	</pattern>
	<rect x="579.1" y="209.3" class="st4" width="148.7" height="195.7"/>
	<rect x="32" y="185.4" class="st5" width="237.5" height="239.4"/>
	<rect x="282.9" y="195.3" class="st5" width="237.5" height="239.4"/>
	<rect x="533.5" y="202.9" class="st5" width="237.5" height="239.4"/>
</g>
<g id="Шар_1_1_">
	<g id="xtick_1_1_">
		<g id="line2d_1_1_">
			<g>
				<g>
					<g>
						<g>
							<defs>
								<rect id="SVGID_7_" x="322.3" y="209.8" width="163.4" height="196.6"/>
							</defs>
							<clipPath id="SVGID_8_">
								<use xlink:href="#SVGID_7_"  style="overflow:visible;"/>
							</clipPath>
							<path class="st6" d="M329.7,406.4V209.8"/>
						</g>
					</g>
				</g>
			</g>
		</g>
	</g>
	<rect x="322.3" y="209.8" class="st0" width="163.4" height="196.6"/>
	<g id="xtick_3_1_">
		<g id="line2d_3_1_">
			<g>
				<g>
					<g>
						<g>
							<defs>
								<rect id="SVGID_9_" x="322.3" y="209.8" width="163.4" height="196.6"/>
							</defs>
							<clipPath id="SVGID_10_">
								<use xlink:href="#SVGID_9_"  style="overflow:visible;"/>
							</clipPath>
							<path class="st7" d="M478.2,406.4V209.8"/>
						</g>
					</g>
				</g>
			</g>
		</g>
	</g>
	<rect x="322.3" y="209.8" class="st0" width="163.4" height="196.6"/>
	<path class="st8" d="M329.7,370.9l148.6-0.6"/>
	<rect x="322.3" y="209.8" class="st0" width="163.4" height="196.6"/>
	<rect x="322.3" y="209.8" class="st0" width="163.4" height="196.6"/>
	<path class="st9" d="M329.7,394.7l148.6-0.1"/>
	<rect x="322.3" y="209.8" class="st0" width="163.4" height="196.6"/>
	<rect x="322.3" y="209.8" class="st0" width="163.4" height="196.6"/>
	<rect x="322.3" y="209.8" class="st0" width="163.4" height="196.6"/>
	<g id="patch_3_1_">
		<path class="st10" d="M322.3,209.8"/>
		<path class="st10" d="M322.3,406.4"/>
	</g>
	<g id="xtick_4_2_">
		<g id="line2d_13_1_">
			<g>
				<g>
					<g>
						<g>
							<defs>
								<rect id="SVGID_11_" x="572" y="209" width="163.4" height="196.6"/>
							</defs>
							<clipPath id="SVGID_12_">
								<use xlink:href="#SVGID_11_"  style="overflow:visible;"/>
							</clipPath>
							<path class="st11" d="M579.4,405.6V209"/>
						</g>
					</g>
				</g>
			</g>
		</g>
	</g>
	<rect x="572" y="209" class="st0" width="163.4" height="196.6"/>
	<g id="xtick_6_2_">
		<g id="line2d_15_1_">
			<g>
				<g>
					<g>
						<g>
							<defs>
								<rect id="SVGID_13_" x="572" y="209" width="163.4" height="196.6"/>
							</defs>
							<clipPath id="SVGID_14_">
								<use xlink:href="#SVGID_13_"  style="overflow:visible;"/>
							</clipPath>
							<path class="st12" d="M727.9,405.6V209"/>
						</g>
					</g>
				</g>
			</g>
		</g>
	</g>
	<g id="ytick_7_2_">
		<g id="line2d_16_2_">
			<g>
				<g>
					<g>
						<g>
							<defs>
								<rect id="SVGID_15_" x="572" y="209" width="163.4" height="196.6"/>
							</defs>
							<clipPath id="SVGID_16_">
								<use xlink:href="#SVGID_15_"  style="overflow:visible;"/>
							</clipPath>
							<path class="st13" d="M735.3,401.8"/>
						</g>
					</g>
				</g>
				<g>
					<g>
						<g>
							<defs>
								<rect id="SVGID_17_" x="572" y="209" width="163.4" height="196.6"/>
							</defs>
							<clipPath id="SVGID_18_">
								<use xlink:href="#SVGID_17_"  style="overflow:visible;"/>
							</clipPath>
							<path class="st14" d="M572,401.8"/>
						</g>
					</g>
				</g>
			</g>
		</g>
	</g>
	<rect x="572" y="209" class="st0" width="163.4" height="196.6"/>
	<rect x="572" y="209" class="st0" width="163.4" height="196.6"/>
	<rect x="572" y="209" class="st0" width="163.4" height="196.6"/>
	<path class="st8" d="M579.4,381.4l148.6,0.1"/>
	<rect x="572" y="209" class="st0" width="163.4" height="196.6"/>
	<path class="st9" d="M579.4,393.5l148.6-0.6"/>
	<rect x="572" y="209" class="st0" width="163.4" height="196.6"/>
	<rect x="572" y="209" class="st0" width="163.4" height="196.6"/>
	<g id="patch_6_1_">
		<path class="st10" d="M572,209"/>
		<path class="st10" d="M572,405.6"/>
	</g>
	<rect x="70.9" y="209.3" class="st0" width="163.4" height="196.6"/>
	<path class="st15" d="M78.3,405.8V209.1"/>
	<rect x="70.9" y="209.3" class="st0" width="163.4" height="196.6"/>
	<rect x="70.9" y="209.3" class="st0" width="163.4" height="196.6"/>
	<path class="st15" d="M226.8,405.8V209.1"/>
	<rect x="70.9" y="209.3" class="st0" width="163.4" height="196.6"/>
	<path class="st15" d="M234.2,401.9"/>
	<rect x="70.9" y="209.3" class="st0" width="163.4" height="196.6"/>
	<path class="st15" d="M70.9,401.9"/>
	<rect x="70.9" y="209.3" class="st0" width="163.4" height="196.6"/>
	<rect x="70.9" y="209.3" class="st0" width="163.4" height="196.6"/>
	<rect x="70.9" y="209.3" class="st0" width="163.4" height="196.6"/>
	<rect x="70.9" y="209.3" class="st0" width="163.4" height="196.6"/>
	<rect x="70.9" y="209.3" class="st0" width="163.4" height="196.6"/>
	<rect x="70.9" y="209.3" class="st0" width="163.4" height="196.6"/>
	<path class="st8" d="M78.3,393.8l148.6-0.6"/>
	<rect x="70.9" y="209.3" class="st0" width="163.4" height="196.6"/>
	<rect x="70.9" y="209.3" class="st0" width="163.4" height="196.6"/>
	<path class="st9" d="M78.3,246.3l148.7-28"/>
	<rect x="70.9" y="209.3" class="st0" width="163.4" height="196.6"/>
	<rect x="70.9" y="209.3" class="st0" width="163.4" height="196.6"/>
	<rect x="70.9" y="209.3" class="st0" width="163.4" height="196.6"/>
	<g id="patch_9_2_">
		<path class="st10" d="M70.9,209.3"/>
		<path class="st10" d="M70.9,405.8"/>
	</g>
	<line class="st10" x1="794.7" y1="233.6" x2="794.7" y2="234.8"/>
	<text transform="matrix(1 0 0 1 124.6211 179.1224)" class="st16 st17 st18">Швачка</text>
	<text transform="matrix(1 0 0 1 118.4756 408.3324)" class="st19 st20 st21">Випускники</text>
	<text transform="matrix(1 0 0 1 377.1016 177.7611)" class="st16 st17 st18">Кравець</text>
	<text transform="matrix(1 0 0 1 620.9072 178.682)" class="st16 st17 st18">Закрійник</text>
	<text transform="matrix(1 0 0 1 41.5898 298.1543)" class="st16 st17 st22">6 565</text>
	<text transform="matrix(1 0 0 1 41.5898 250.4198)" class="st16 st17 st22">9 552</text>
	<text transform="matrix(1 0 0 1 49.9834 397.1849)" class="st16 st17 st22">510</text>
	<text transform="matrix(1 0 0 1 292.0981 384.5189)" class="st16 st17 st22">1 339</text>
	<text transform="matrix(1 0 0 1 292.0981 372.4056)" class="st16 st17 st22">1 886</text>
	<text transform="matrix(1 0 0 1 300.4917 399.2435)" class="st16 st17 st22">480</text>
	<text transform="matrix(1 0 0 1 551.0859 394.2269)" class="st16 st17 st22">501</text>
	<text transform="matrix(1 0 0 1 542.29 381.4037)" class="st16 st17 st22">1 222</text>
	<text transform="matrix(1 0 0 1 551.4873 404.6771)" class="st16 st17 st22">380</text>
	<text transform="matrix(1 0 0 1 734.6543 394.2269)" class="st16 st17 st22">542</text>
	<text transform="matrix(1 0 0 1 734.6543 381.4037)" class="st16 st17 st22">1 226</text>
	<text transform="matrix(1 0 0 1 734.6543 404.6771)" class="st16 st17 st22">313</text>
	<text transform="matrix(1 0 0 1 484.2246 384.5189)" class="st16 st17 st22">1 115</text>
	<text transform="matrix(1 0 0 1 484.2246 372.4056)" class="st16 st17 st22">1 955</text>
	<text transform="matrix(1 0 0 1 484.2246 399.2435)" class="st16 st17 st22">492</text>
	<text transform="matrix(1 0 0 1 234.4883 314.8965)" class="st16 st17 st22">5 741</text>
	<text transform="matrix(1 0 0 1 234.4883 396.8285)" class="st16 st17 st22">547</text>
	<text transform="matrix(1 0 0 1 234.4883 220.3192)" class="st16 st17 st22">11 273</text>
	<text transform="matrix(1 0 0 1 65.1963 199.8529)" class="st16 st23 st24">2016</text>
	<text transform="matrix(1 0 0 1 213.6621 199.8529)" class="st16 st23 st24">2017</text>
	<text transform="matrix(1 0 0 1 317.8701 199.8529)" class="st16 st23 st24">2016</text>
	<text transform="matrix(1 0 0 1 466.3359 199.8529)" class="st16 st23 st24">2017</text>
	<text transform="matrix(1 0 0 1 568.2227 199.8529)" class="st16 st23 st24">2016</text>
	<text transform="matrix(1 0 0 1 716.6875 199.8529)" class="st16 st23 st24">2017</text>
	<text transform="matrix(1 0 0 1 0 -53)" style="font-family:'ArialMT'; font-size:12px;"> </text>
	<text transform="matrix(0.9437 0 0 1 73.0366 65.094)" class="st16 st23 st26 st27">ШВАЦЬКІ ПРОФЕСІЇ</text>
	<g>
		<text transform="matrix(0.9437 0 0 1 76.9565 96.5031)" class="st16 st17 st28">Хоча на швачок попит різко зростає, вчитися за цим фахом ідуть неохоче. </text>
		<text transform="matrix(0.9437 0 0 1 76.9565 116.5031)" class="st16 st17 st28">Популярніші більш творчі швацькі професії, на які рідше шукають робітників </text>
	</g>
	<text transform="matrix(1 0 0 1 76.9565 459.349)" class="st16 st17 st29">Дані: Держслуба зайнятості, ДП «Інфоресурс»</text>
	<text transform="matrix(1 0 0 1 126.743 254.0861)" class="st30 st20 st21">Вакансії</text>
</g>
<g>
	<g>
		<polygon class="st31" points="621.7,448.6 618,448.6 618,458.9 615.5,458.9 615.5,448.6 611.8,448.6 611.8,446.4 621.7,446.4 		
			"/>
		<polygon class="st31" points="622.6,446.4 630,446.4 630,448.6 625,448.6 625,451.5 629.6,451.5 629.6,453.7 625,453.7 625,456.8 
			630.1,456.8 630.1,458.9 622.6,458.9 		"/>
		<polygon class="st31" points="634.6,452.5 631,446.4 634,446.4 636,450 636.4,451.3 636.8,450 638.8,446.4 641.5,446.4 
			637.9,452.4 641.7,458.9 638.8,458.9 636.5,455.1 636.1,453.7 635.6,455.1 633.4,458.9 630.7,458.9 		"/>
		<polygon class="st31" points="651.8,448.6 648.1,448.6 648.1,458.9 645.6,458.9 645.6,448.6 642,448.6 642,446.4 651.8,446.4 		
			"/>
		<polygon class="st31" points="656.6,454.3 652.5,446.4 655.4,446.4 657.7,451.1 657.9,452.4 658,452.4 658.3,451.1 660.5,446.4 
			663.2,446.4 659.1,454.3 659.1,458.9 656.6,458.9 		"/>
	</g>
	<path class="st32" d="M661.4,457.8c0-0.4,0.1-0.8,0.4-1c0.3-0.2,0.6-0.4,1-0.4c0.5,0,0.8,0.1,1.1,0.4c0.3,0.2,0.4,0.6,0.4,1
		s-0.1,0.8-0.4,1c-0.3,0.3-0.6,0.4-1.1,0.4c-0.4,0-0.8-0.1-1-0.4C661.5,458.5,661.4,458.2,661.4,457.8"/>
	<path class="st32" d="M665.4,452.7c0-2.1,0.5-3.7,1.4-4.8c0.9-1.1,2.2-1.7,3.9-1.7c0.9,0,1.7,0.2,2.4,0.5s1.2,0.8,1.7,1.3
		c0.4,0.6,0.8,1.3,1,2.1c0.2,0.8,0.3,1.7,0.3,2.7c0,2.1-0.5,3.7-1.4,4.8c-0.9,1.1-2.2,1.7-3.9,1.7c-0.9,0-1.7-0.2-2.4-0.5
		s-1.2-0.8-1.7-1.3c-0.4-0.6-0.8-1.3-1-2.1C665.5,454.5,665.4,453.6,665.4,452.7 M668,452.7c0,0.6,0.1,1.2,0.2,1.8
		c0.1,0.5,0.3,1,0.5,1.4s0.5,0.7,0.9,0.9c0.3,0.2,0.8,0.3,1.2,0.3c0.9,0,1.6-0.3,2-1c0.5-0.7,0.7-1.8,0.7-3.3c0-0.6,0-1.2-0.1-1.7
		s-0.3-1-0.5-1.4s-0.5-0.7-0.8-0.9c-0.3-0.2-0.8-0.3-1.3-0.3c-0.9,0-1.5,0.4-2,1.1C668.2,450.1,668,451.2,668,452.7"/>
	<path class="st32" d="M677.5,446.5c0.3,0,0.6-0.1,0.9-0.1c0.3,0,0.6-0.1,1-0.1c0.3,0,0.6,0,0.9-0.1c0.3,0,0.6,0,0.8,0
		c0.6,0,1.2,0.1,1.7,0.2c0.6,0.1,1.1,0.3,1.5,0.6c0.5,0.3,0.8,0.6,1.1,1.1s0.4,1,0.4,1.7c0,1-0.2,1.9-0.7,2.5s-1.1,1.1-1.9,1.3
		l0.9,0.6l2.9,4.8h-2.8l-2.9-4.9l-1.3-0.2v5.2h-2.5V446.5L677.5,446.5z M681.2,448.4c-0.3,0-0.5,0-0.7,0s-0.4,0-0.6,0.1v3.6h1
		c0.7,0,1.2-0.2,1.6-0.5c0.4-0.3,0.6-0.8,0.6-1.5c0-0.5-0.2-1-0.5-1.3C682.4,448.5,681.9,448.4,681.2,448.4"/>
	<path class="st32" d="M691.8,452.4h4.7v5.6c-0.5,0.4-1.1,0.7-1.8,0.9c-0.7,0.2-1.4,0.3-2.1,0.3c-0.8,0-1.5-0.1-2.2-0.4
		s-1.3-0.6-1.8-1.2c-0.5-0.5-0.9-1.2-1.2-2s-0.4-1.8-0.4-2.9c0-1.2,0.2-2.2,0.5-3s0.8-1.5,1.3-2c0.6-0.5,1.2-0.9,1.9-1.1
		s1.4-0.4,2.1-0.4c0.7,0,1.4,0.1,1.9,0.2s1,0.2,1.3,0.3l-0.5,2.1c-0.3-0.1-0.6-0.2-1-0.3c-0.4-0.1-0.8-0.1-1.4-0.1
		c-0.5,0-1,0.1-1.4,0.2c-0.4,0.2-0.8,0.4-1.1,0.8s-0.6,0.8-0.7,1.4c-0.2,0.6-0.3,1.2-0.3,2s0.1,1.4,0.3,1.9s0.4,1,0.7,1.4
		s0.6,0.6,1.1,0.8c0.4,0.2,0.8,0.3,1.3,0.3c0.3,0,0.6,0,0.9-0.1c0.3-0.1,0.5-0.2,0.8-0.3v-2.4l-2.7-0.3v-1.7L691.8,452.4
		L691.8,452.4z"/>
	<path class="st32" d="M697.6,457.8c0-0.4,0.1-0.8,0.4-1c0.3-0.2,0.6-0.4,1-0.4c0.5,0,0.8,0.1,1.1,0.4c0.3,0.2,0.4,0.6,0.4,1
		s-0.1,0.8-0.4,1c-0.3,0.3-0.6,0.4-1.1,0.4c-0.4,0-0.8-0.1-1-0.4C697.7,458.5,697.6,458.2,697.6,457.8"/>
	<path class="st32" d="M708.8,446.4h2.3v8.1c0,0.8-0.1,1.5-0.3,2.1s-0.5,1.1-0.9,1.5s-0.9,0.7-1.4,0.8c-0.5,0.2-1.2,0.3-1.8,0.3
		c-3.2,0-4.8-1.5-4.8-4.4v-8.4h2.5v7.9c0,0.5,0,0.9,0.1,1.3c0.1,0.3,0.2,0.6,0.4,0.8c0.2,0.2,0.4,0.4,0.7,0.5s0.6,0.1,1,0.1
		c0.8,0,1.3-0.2,1.6-0.6s0.5-1.1,0.5-2v-8L708.8,446.4L708.8,446.4z"/>
	<path class="st32" d="M718.7,456.2h-3.9l-1,2.8h-2.5l4.5-12.7h1.8l4.5,12.7h-2.6L718.7,456.2z M715.5,454.2h2.7l-0.9-2.8l-0.4-2
		h-0.1l-0.4,2L715.5,454.2z"/>
</g>
</svg>
