<?xml version="1.0" encoding="utf-8"?>
<!-- Generator: Adobe Illustrator 22.1.0, SVG Export Plug-In . SVG Version: 6.00 Build 0)  -->
<svg version="1.1" id="Шар_1" xmlns="http://www.w3.org/2000/svg" xmlns:xlink="http://www.w3.org/1999/xlink" x="0px" y="0px"
	 viewBox="0 0 1014 440" style="enable-background:new 0 0 1014 440;" xml:space="preserve">
<style type="text/css">
	.st0{fill:none;}
	.st1{fill:none;stroke:#1D1D1B;stroke-width:0.3;}
	.st2{fill:url(#SVGID_7_);}
	.st3{fill:url(#SVGID_8_);}
	.st4{fill:url(#SVGID_9_);}
	.st5{fill:url(#SVGID_10_);}
	.st6{fill:url(#SVGID_11_);}
	.st7{fill:url(#SVGID_12_);}
	.st8{opacity:0.76;fill:#FFFFFF;enable-background:new    ;}
	.st9{fill:none;stroke:#CCCCCC;stroke-width:0.8;stroke-linecap:round;stroke-linejoin:round;}
	.st10{fill:#328DEF;stroke:#328DEF;stroke-width:4;stroke-linecap:round;stroke-linejoin:round;}
	.st11{fill:none;stroke:#CDD500;stroke-width:4;stroke-linecap:round;stroke-linejoin:round;}
	.st12{fill:none;stroke:#CCCCCC;stroke-width:0.8;stroke-linecap:square;}
	.st13{fill:#262626;}
	.st14{fill:#878787;}
	.st15{clip-path:url(#SVGID_14_);fill:#328DEF;stroke:#328DEF;stroke-width:4;stroke-linecap:round;stroke-linejoin:round;}
	.st16{clip-path:url(#SVGID_16_);fill:none;stroke:#CDD500;stroke-width:4;stroke-linecap:round;stroke-linejoin:round;}
	.st17{clip-path:url(#SVGID_18_);fill:#328DEF;stroke:#328DEF;stroke-width:4;stroke-linecap:round;stroke-linejoin:round;}
	.st18{clip-path:url(#SVGID_20_);fill:none;stroke:#CDD500;stroke-width:4;stroke-linecap:round;stroke-linejoin:round;}
	.st19{clip-path:url(#SVGID_22_);fill:none;stroke:#CDD500;stroke-width:4;stroke-linecap:round;stroke-linejoin:round;}
	.st20{clip-path:url(#SVGID_24_);fill:#328DEF;stroke:#328DEF;stroke-width:4;stroke-linecap:round;stroke-linejoin:round;}
	.st21{clip-path:url(#SVGID_26_);fill:none;stroke:#CDD500;stroke-width:4;stroke-linecap:round;stroke-linejoin:round;}
	.st22{font-family:'ClearSans';}
	.st23{font-size:15.0908px;}
	.st24{font-family:'ClearSans-Bold';}
	.st25{font-size:31.1574px;}
	.st26{letter-spacing:1.1;}
	.st27{font-size:15px;}
	.st28{font-size:10.4475px;}
	.st29{font-size:8.1258px;}
	.st30{fill:#A9B10A;}
	.st31{font-family:'ClearSans-Italic';}
	.st32{font-size:11.6083px;}
	.st33{fill:#328DEF;}
	.st34{font-size:8px;}
	.st35{letter-spacing:45.6;}
	.st36{letter-spacing:20;}
	.st37{clip-path:url(#SVGID_28_);fill:#328DEF;stroke:#328DEF;stroke-width:4;stroke-linecap:round;stroke-linejoin:round;}
	.st38{clip-path:url(#SVGID_30_);fill:none;stroke:#CDD500;stroke-width:4;stroke-linecap:round;stroke-linejoin:round;}
	.st39{fill:#3A3F4A;}
	.st40{fill:#6D6E70;}
</style>
<pattern  y="440" width="72" height="72" patternUnits="userSpaceOnUse" id="SVGID_1_" viewBox="72.3 -144.2 72 72" style="overflow:visible;">
	<g>
		<rect x="72.3" y="-144.2" class="st0" width="72" height="72"/>
		<g>
			<rect x="72.3" y="-144.2" class="st0" width="72" height="72"/>
			<g>
				<line class="st1" x1="78.3" y1="-144" x2="78.3" y2="-216.5"/>
				<line class="st1" x1="102.3" y1="-144" x2="102.3" y2="-216.5"/>
				<line class="st1" x1="126.3" y1="-144" x2="126.3" y2="-216.5"/>
				<line class="st1" x1="90.3" y1="-144" x2="90.3" y2="-216.5"/>
				<line class="st1" x1="114.3" y1="-144" x2="114.3" y2="-216.5"/>
				<line class="st1" x1="138.3" y1="-144" x2="138.3" y2="-216.5"/>
			</g>
			<g>
				<line class="st1" x1="144" y1="-138.2" x2="216.5" y2="-138.2"/>
				<line class="st1" x1="144" y1="-114.2" x2="216.5" y2="-114.2"/>
				<line class="st1" x1="144" y1="-90.2" x2="216.5" y2="-90.2"/>
				<line class="st1" x1="144" y1="-126.2" x2="216.5" y2="-126.2"/>
				<line class="st1" x1="144" y1="-102.2" x2="216.5" y2="-102.2"/>
				<line class="st1" x1="144" y1="-78.2" x2="216.5" y2="-78.2"/>
			</g>
			<g>
				<line class="st1" x1="78.3" y1="-72" x2="78.3" y2="-144.5"/>
				<line class="st1" x1="102.3" y1="-72" x2="102.3" y2="-144.5"/>
				<line class="st1" x1="126.3" y1="-72" x2="126.3" y2="-144.5"/>
				<line class="st1" x1="72" y1="-138.2" x2="144.5" y2="-138.2"/>
				<line class="st1" x1="72" y1="-114.2" x2="144.5" y2="-114.2"/>
				<line class="st1" x1="72" y1="-90.2" x2="144.5" y2="-90.2"/>
				<line class="st1" x1="72" y1="-126.2" x2="144.5" y2="-126.2"/>
				<line class="st1" x1="72" y1="-102.2" x2="144.5" y2="-102.2"/>
				<line class="st1" x1="72" y1="-78.2" x2="144.5" y2="-78.2"/>
				<line class="st1" x1="90.3" y1="-72" x2="90.3" y2="-144.5"/>
				<line class="st1" x1="114.3" y1="-72" x2="114.3" y2="-144.5"/>
				<line class="st1" x1="138.3" y1="-72" x2="138.3" y2="-144.5"/>
			</g>
			<g>
				<line class="st1" x1="0" y1="-138.2" x2="72.5" y2="-138.2"/>
				<line class="st1" x1="0" y1="-114.2" x2="72.5" y2="-114.2"/>
				<line class="st1" x1="0" y1="-90.2" x2="72.5" y2="-90.2"/>
				<line class="st1" x1="0" y1="-126.2" x2="72.5" y2="-126.2"/>
				<line class="st1" x1="0" y1="-102.2" x2="72.5" y2="-102.2"/>
				<line class="st1" x1="0" y1="-78.2" x2="72.5" y2="-78.2"/>
			</g>
			<g>
				<line class="st1" x1="78.3" y1="0" x2="78.3" y2="-72.5"/>
				<line class="st1" x1="102.3" y1="0" x2="102.3" y2="-72.5"/>
				<line class="st1" x1="126.3" y1="0" x2="126.3" y2="-72.5"/>
				<line class="st1" x1="90.3" y1="0" x2="90.3" y2="-72.5"/>
				<line class="st1" x1="114.3" y1="0" x2="114.3" y2="-72.5"/>
				<line class="st1" x1="138.3" y1="0" x2="138.3" y2="-72.5"/>
			</g>
		</g>
	</g>
</pattern>
<pattern  y="440" width="72" height="72" patternUnits="userSpaceOnUse" id="SVGID_2_" viewBox="72.3 -144.2 72 72" style="overflow:visible;">
	<g>
		<rect x="72.3" y="-144.2" class="st0" width="72" height="72"/>
		<g>
			<rect x="72.3" y="-144.2" class="st0" width="72" height="72"/>
			<g>
				<line class="st1" x1="78.3" y1="-144" x2="78.3" y2="-216.5"/>
				<line class="st1" x1="102.3" y1="-144" x2="102.3" y2="-216.5"/>
				<line class="st1" x1="126.3" y1="-144" x2="126.3" y2="-216.5"/>
				<line class="st1" x1="90.3" y1="-144" x2="90.3" y2="-216.5"/>
				<line class="st1" x1="114.3" y1="-144" x2="114.3" y2="-216.5"/>
				<line class="st1" x1="138.3" y1="-144" x2="138.3" y2="-216.5"/>
			</g>
			<g>
				<line class="st1" x1="144" y1="-138.2" x2="216.5" y2="-138.2"/>
				<line class="st1" x1="144" y1="-114.2" x2="216.5" y2="-114.2"/>
				<line class="st1" x1="144" y1="-90.2" x2="216.5" y2="-90.2"/>
				<line class="st1" x1="144" y1="-126.2" x2="216.5" y2="-126.2"/>
				<line class="st1" x1="144" y1="-102.2" x2="216.5" y2="-102.2"/>
				<line class="st1" x1="144" y1="-78.2" x2="216.5" y2="-78.2"/>
			</g>
			<g>
				<line class="st1" x1="78.3" y1="-72" x2="78.3" y2="-144.5"/>
				<line class="st1" x1="102.3" y1="-72" x2="102.3" y2="-144.5"/>
				<line class="st1" x1="126.3" y1="-72" x2="126.3" y2="-144.5"/>
				<line class="st1" x1="72" y1="-138.2" x2="144.5" y2="-138.2"/>
				<line class="st1" x1="72" y1="-114.2" x2="144.5" y2="-114.2"/>
				<line class="st1" x1="72" y1="-90.2" x2="144.5" y2="-90.2"/>
				<line class="st1" x1="72" y1="-126.2" x2="144.5" y2="-126.2"/>
				<line class="st1" x1="72" y1="-102.2" x2="144.5" y2="-102.2"/>
				<line class="st1" x1="72" y1="-78.2" x2="144.5" y2="-78.2"/>
				<line class="st1" x1="90.3" y1="-72" x2="90.3" y2="-144.5"/>
				<line class="st1" x1="114.3" y1="-72" x2="114.3" y2="-144.5"/>
				<line class="st1" x1="138.3" y1="-72" x2="138.3" y2="-144.5"/>
			</g>
			<g>
				<line class="st1" x1="0" y1="-138.2" x2="72.5" y2="-138.2"/>
				<line class="st1" x1="0" y1="-114.2" x2="72.5" y2="-114.2"/>
				<line class="st1" x1="0" y1="-90.2" x2="72.5" y2="-90.2"/>
				<line class="st1" x1="0" y1="-126.2" x2="72.5" y2="-126.2"/>
				<line class="st1" x1="0" y1="-102.2" x2="72.5" y2="-102.2"/>
				<line class="st1" x1="0" y1="-78.2" x2="72.5" y2="-78.2"/>
			</g>
			<g>
				<line class="st1" x1="78.3" y1="0" x2="78.3" y2="-72.5"/>
				<line class="st1" x1="102.3" y1="0" x2="102.3" y2="-72.5"/>
				<line class="st1" x1="126.3" y1="0" x2="126.3" y2="-72.5"/>
				<line class="st1" x1="90.3" y1="0" x2="90.3" y2="-72.5"/>
				<line class="st1" x1="114.3" y1="0" x2="114.3" y2="-72.5"/>
				<line class="st1" x1="138.3" y1="0" x2="138.3" y2="-72.5"/>
			</g>
		</g>
	</g>
</pattern>
<pattern  y="440" width="72" height="72" patternUnits="userSpaceOnUse" id="SVGID_3_" viewBox="72.3 -144.2 72 72" style="overflow:visible;">
	<g>
		<rect x="72.3" y="-144.2" class="st0" width="72" height="72"/>
		<g>
			<rect x="72.3" y="-144.2" class="st0" width="72" height="72"/>
			<g>
				<line class="st1" x1="78.3" y1="-144" x2="78.3" y2="-216.5"/>
				<line class="st1" x1="102.3" y1="-144" x2="102.3" y2="-216.5"/>
				<line class="st1" x1="126.3" y1="-144" x2="126.3" y2="-216.5"/>
				<line class="st1" x1="90.3" y1="-144" x2="90.3" y2="-216.5"/>
				<line class="st1" x1="114.3" y1="-144" x2="114.3" y2="-216.5"/>
				<line class="st1" x1="138.3" y1="-144" x2="138.3" y2="-216.5"/>
			</g>
			<g>
				<line class="st1" x1="144" y1="-138.2" x2="216.5" y2="-138.2"/>
				<line class="st1" x1="144" y1="-114.2" x2="216.5" y2="-114.2"/>
				<line class="st1" x1="144" y1="-90.2" x2="216.5" y2="-90.2"/>
				<line class="st1" x1="144" y1="-126.2" x2="216.5" y2="-126.2"/>
				<line class="st1" x1="144" y1="-102.2" x2="216.5" y2="-102.2"/>
				<line class="st1" x1="144" y1="-78.2" x2="216.5" y2="-78.2"/>
			</g>
			<g>
				<line class="st1" x1="78.3" y1="-72" x2="78.3" y2="-144.5"/>
				<line class="st1" x1="102.3" y1="-72" x2="102.3" y2="-144.5"/>
				<line class="st1" x1="126.3" y1="-72" x2="126.3" y2="-144.5"/>
				<line class="st1" x1="72" y1="-138.2" x2="144.5" y2="-138.2"/>
				<line class="st1" x1="72" y1="-114.2" x2="144.5" y2="-114.2"/>
				<line class="st1" x1="72" y1="-90.2" x2="144.5" y2="-90.2"/>
				<line class="st1" x1="72" y1="-126.2" x2="144.5" y2="-126.2"/>
				<line class="st1" x1="72" y1="-102.2" x2="144.5" y2="-102.2"/>
				<line class="st1" x1="72" y1="-78.2" x2="144.5" y2="-78.2"/>
				<line class="st1" x1="90.3" y1="-72" x2="90.3" y2="-144.5"/>
				<line class="st1" x1="114.3" y1="-72" x2="114.3" y2="-144.5"/>
				<line class="st1" x1="138.3" y1="-72" x2="138.3" y2="-144.5"/>
			</g>
			<g>
				<line class="st1" x1="0" y1="-138.2" x2="72.5" y2="-138.2"/>
				<line class="st1" x1="0" y1="-114.2" x2="72.5" y2="-114.2"/>
				<line class="st1" x1="0" y1="-90.2" x2="72.5" y2="-90.2"/>
				<line class="st1" x1="0" y1="-126.2" x2="72.5" y2="-126.2"/>
				<line class="st1" x1="0" y1="-102.2" x2="72.5" y2="-102.2"/>
				<line class="st1" x1="0" y1="-78.2" x2="72.5" y2="-78.2"/>
			</g>
			<g>
				<line class="st1" x1="78.3" y1="0" x2="78.3" y2="-72.5"/>
				<line class="st1" x1="102.3" y1="0" x2="102.3" y2="-72.5"/>
				<line class="st1" x1="126.3" y1="0" x2="126.3" y2="-72.5"/>
				<line class="st1" x1="90.3" y1="0" x2="90.3" y2="-72.5"/>
				<line class="st1" x1="114.3" y1="0" x2="114.3" y2="-72.5"/>
				<line class="st1" x1="138.3" y1="0" x2="138.3" y2="-72.5"/>
			</g>
		</g>
	</g>
</pattern>
<pattern  y="440" width="72" height="72" patternUnits="userSpaceOnUse" id="SVGID_4_" viewBox="72.3 -144.2 72 72" style="overflow:visible;">
	<g>
		<rect x="72.3" y="-144.2" class="st0" width="72" height="72"/>
		<g>
			<rect x="72.3" y="-144.2" class="st0" width="72" height="72"/>
			<g>
				<line class="st1" x1="78.3" y1="-144" x2="78.3" y2="-216.5"/>
				<line class="st1" x1="102.3" y1="-144" x2="102.3" y2="-216.5"/>
				<line class="st1" x1="126.3" y1="-144" x2="126.3" y2="-216.5"/>
				<line class="st1" x1="90.3" y1="-144" x2="90.3" y2="-216.5"/>
				<line class="st1" x1="114.3" y1="-144" x2="114.3" y2="-216.5"/>
				<line class="st1" x1="138.3" y1="-144" x2="138.3" y2="-216.5"/>
			</g>
			<g>
				<line class="st1" x1="144" y1="-138.2" x2="216.5" y2="-138.2"/>
				<line class="st1" x1="144" y1="-114.2" x2="216.5" y2="-114.2"/>
				<line class="st1" x1="144" y1="-90.2" x2="216.5" y2="-90.2"/>
				<line class="st1" x1="144" y1="-126.2" x2="216.5" y2="-126.2"/>
				<line class="st1" x1="144" y1="-102.2" x2="216.5" y2="-102.2"/>
				<line class="st1" x1="144" y1="-78.2" x2="216.5" y2="-78.2"/>
			</g>
			<g>
				<line class="st1" x1="78.3" y1="-72" x2="78.3" y2="-144.5"/>
				<line class="st1" x1="102.3" y1="-72" x2="102.3" y2="-144.5"/>
				<line class="st1" x1="126.3" y1="-72" x2="126.3" y2="-144.5"/>
				<line class="st1" x1="72" y1="-138.2" x2="144.5" y2="-138.2"/>
				<line class="st1" x1="72" y1="-114.2" x2="144.5" y2="-114.2"/>
				<line class="st1" x1="72" y1="-90.2" x2="144.5" y2="-90.2"/>
				<line class="st1" x1="72" y1="-126.2" x2="144.5" y2="-126.2"/>
				<line class="st1" x1="72" y1="-102.2" x2="144.5" y2="-102.2"/>
				<line class="st1" x1="72" y1="-78.2" x2="144.5" y2="-78.2"/>
				<line class="st1" x1="90.3" y1="-72" x2="90.3" y2="-144.5"/>
				<line class="st1" x1="114.3" y1="-72" x2="114.3" y2="-144.5"/>
				<line class="st1" x1="138.3" y1="-72" x2="138.3" y2="-144.5"/>
			</g>
			<g>
				<line class="st1" x1="0" y1="-138.2" x2="72.5" y2="-138.2"/>
				<line class="st1" x1="0" y1="-114.2" x2="72.5" y2="-114.2"/>
				<line class="st1" x1="0" y1="-90.2" x2="72.5" y2="-90.2"/>
				<line class="st1" x1="0" y1="-126.2" x2="72.5" y2="-126.2"/>
				<line class="st1" x1="0" y1="-102.2" x2="72.5" y2="-102.2"/>
				<line class="st1" x1="0" y1="-78.2" x2="72.5" y2="-78.2"/>
			</g>
			<g>
				<line class="st1" x1="78.3" y1="0" x2="78.3" y2="-72.5"/>
				<line class="st1" x1="102.3" y1="0" x2="102.3" y2="-72.5"/>
				<line class="st1" x1="126.3" y1="0" x2="126.3" y2="-72.5"/>
				<line class="st1" x1="90.3" y1="0" x2="90.3" y2="-72.5"/>
				<line class="st1" x1="114.3" y1="0" x2="114.3" y2="-72.5"/>
				<line class="st1" x1="138.3" y1="0" x2="138.3" y2="-72.5"/>
			</g>
		</g>
	</g>
</pattern>
<pattern  y="440" width="72" height="72" patternUnits="userSpaceOnUse" id="SVGID_5_" viewBox="72.3 -144.2 72 72" style="overflow:visible;">
	<g>
		<rect x="72.3" y="-144.2" class="st0" width="72" height="72"/>
		<g>
			<rect x="72.3" y="-144.2" class="st0" width="72" height="72"/>
			<g>
				<line class="st1" x1="78.3" y1="-144" x2="78.3" y2="-216.5"/>
				<line class="st1" x1="102.3" y1="-144" x2="102.3" y2="-216.5"/>
				<line class="st1" x1="126.3" y1="-144" x2="126.3" y2="-216.5"/>
				<line class="st1" x1="90.3" y1="-144" x2="90.3" y2="-216.5"/>
				<line class="st1" x1="114.3" y1="-144" x2="114.3" y2="-216.5"/>
				<line class="st1" x1="138.3" y1="-144" x2="138.3" y2="-216.5"/>
			</g>
			<g>
				<line class="st1" x1="144" y1="-138.2" x2="216.5" y2="-138.2"/>
				<line class="st1" x1="144" y1="-114.2" x2="216.5" y2="-114.2"/>
				<line class="st1" x1="144" y1="-90.2" x2="216.5" y2="-90.2"/>
				<line class="st1" x1="144" y1="-126.2" x2="216.5" y2="-126.2"/>
				<line class="st1" x1="144" y1="-102.2" x2="216.5" y2="-102.2"/>
				<line class="st1" x1="144" y1="-78.2" x2="216.5" y2="-78.2"/>
			</g>
			<g>
				<line class="st1" x1="78.3" y1="-72" x2="78.3" y2="-144.5"/>
				<line class="st1" x1="102.3" y1="-72" x2="102.3" y2="-144.5"/>
				<line class="st1" x1="126.3" y1="-72" x2="126.3" y2="-144.5"/>
				<line class="st1" x1="72" y1="-138.2" x2="144.5" y2="-138.2"/>
				<line class="st1" x1="72" y1="-114.2" x2="144.5" y2="-114.2"/>
				<line class="st1" x1="72" y1="-90.2" x2="144.5" y2="-90.2"/>
				<line class="st1" x1="72" y1="-126.2" x2="144.5" y2="-126.2"/>
				<line class="st1" x1="72" y1="-102.2" x2="144.5" y2="-102.2"/>
				<line class="st1" x1="72" y1="-78.2" x2="144.5" y2="-78.2"/>
				<line class="st1" x1="90.3" y1="-72" x2="90.3" y2="-144.5"/>
				<line class="st1" x1="114.3" y1="-72" x2="114.3" y2="-144.5"/>
				<line class="st1" x1="138.3" y1="-72" x2="138.3" y2="-144.5"/>
			</g>
			<g>
				<line class="st1" x1="0" y1="-138.2" x2="72.5" y2="-138.2"/>
				<line class="st1" x1="0" y1="-114.2" x2="72.5" y2="-114.2"/>
				<line class="st1" x1="0" y1="-90.2" x2="72.5" y2="-90.2"/>
				<line class="st1" x1="0" y1="-126.2" x2="72.5" y2="-126.2"/>
				<line class="st1" x1="0" y1="-102.2" x2="72.5" y2="-102.2"/>
				<line class="st1" x1="0" y1="-78.2" x2="72.5" y2="-78.2"/>
			</g>
			<g>
				<line class="st1" x1="78.3" y1="0" x2="78.3" y2="-72.5"/>
				<line class="st1" x1="102.3" y1="0" x2="102.3" y2="-72.5"/>
				<line class="st1" x1="126.3" y1="0" x2="126.3" y2="-72.5"/>
				<line class="st1" x1="90.3" y1="0" x2="90.3" y2="-72.5"/>
				<line class="st1" x1="114.3" y1="0" x2="114.3" y2="-72.5"/>
				<line class="st1" x1="138.3" y1="0" x2="138.3" y2="-72.5"/>
			</g>
		</g>
	</g>
</pattern>
<pattern  y="440" width="72" height="72" patternUnits="userSpaceOnUse" id="SVGID_6_" viewBox="72.3 -144.2 72 72" style="overflow:visible;">
	<g>
		<rect x="72.3" y="-144.2" class="st0" width="72" height="72"/>
		<g>
			<rect x="72.3" y="-144.2" class="st0" width="72" height="72"/>
			<g>
				<line class="st1" x1="78.3" y1="-144" x2="78.3" y2="-216.5"/>
				<line class="st1" x1="102.3" y1="-144" x2="102.3" y2="-216.5"/>
				<line class="st1" x1="126.3" y1="-144" x2="126.3" y2="-216.5"/>
				<line class="st1" x1="90.3" y1="-144" x2="90.3" y2="-216.5"/>
				<line class="st1" x1="114.3" y1="-144" x2="114.3" y2="-216.5"/>
				<line class="st1" x1="138.3" y1="-144" x2="138.3" y2="-216.5"/>
			</g>
			<g>
				<line class="st1" x1="144" y1="-138.2" x2="216.5" y2="-138.2"/>
				<line class="st1" x1="144" y1="-114.2" x2="216.5" y2="-114.2"/>
				<line class="st1" x1="144" y1="-90.2" x2="216.5" y2="-90.2"/>
				<line class="st1" x1="144" y1="-126.2" x2="216.5" y2="-126.2"/>
				<line class="st1" x1="144" y1="-102.2" x2="216.5" y2="-102.2"/>
				<line class="st1" x1="144" y1="-78.2" x2="216.5" y2="-78.2"/>
			</g>
			<g>
				<line class="st1" x1="78.3" y1="-72" x2="78.3" y2="-144.5"/>
				<line class="st1" x1="102.3" y1="-72" x2="102.3" y2="-144.5"/>
				<line class="st1" x1="126.3" y1="-72" x2="126.3" y2="-144.5"/>
				<line class="st1" x1="72" y1="-138.2" x2="144.5" y2="-138.2"/>
				<line class="st1" x1="72" y1="-114.2" x2="144.5" y2="-114.2"/>
				<line class="st1" x1="72" y1="-90.2" x2="144.5" y2="-90.2"/>
				<line class="st1" x1="72" y1="-126.2" x2="144.5" y2="-126.2"/>
				<line class="st1" x1="72" y1="-102.2" x2="144.5" y2="-102.2"/>
				<line class="st1" x1="72" y1="-78.2" x2="144.5" y2="-78.2"/>
				<line class="st1" x1="90.3" y1="-72" x2="90.3" y2="-144.5"/>
				<line class="st1" x1="114.3" y1="-72" x2="114.3" y2="-144.5"/>
				<line class="st1" x1="138.3" y1="-72" x2="138.3" y2="-144.5"/>
			</g>
			<g>
				<line class="st1" x1="0" y1="-138.2" x2="72.5" y2="-138.2"/>
				<line class="st1" x1="0" y1="-114.2" x2="72.5" y2="-114.2"/>
				<line class="st1" x1="0" y1="-90.2" x2="72.5" y2="-90.2"/>
				<line class="st1" x1="0" y1="-126.2" x2="72.5" y2="-126.2"/>
				<line class="st1" x1="0" y1="-102.2" x2="72.5" y2="-102.2"/>
				<line class="st1" x1="0" y1="-78.2" x2="72.5" y2="-78.2"/>
			</g>
			<g>
				<line class="st1" x1="78.3" y1="0" x2="78.3" y2="-72.5"/>
				<line class="st1" x1="102.3" y1="0" x2="102.3" y2="-72.5"/>
				<line class="st1" x1="126.3" y1="0" x2="126.3" y2="-72.5"/>
				<line class="st1" x1="90.3" y1="0" x2="90.3" y2="-72.5"/>
				<line class="st1" x1="114.3" y1="0" x2="114.3" y2="-72.5"/>
				<line class="st1" x1="138.3" y1="0" x2="138.3" y2="-72.5"/>
			</g>
		</g>
	</g>
</pattern>
<g id="back">
	<pattern  id="SVGID_7_" xlink:href="#SVGID_1_" patternTransform="matrix(0.7714 0 0 -0.9976 -3416.4751 -17163.082)">
	</pattern>
	<rect x="78.8" y="210.1" class="st2" width="80.8" height="138.5"/>
	<pattern  id="SVGID_8_" xlink:href="#SVGID_2_" patternTransform="matrix(0.7714 0 0 -0.9976 -3371.0613 -17163.082)">
	</pattern>
	<rect x="235.3" y="210.1" class="st3" width="80.8" height="138.5"/>
	<pattern  id="SVGID_9_" xlink:href="#SVGID_3_" patternTransform="matrix(0.7714 0 0 -0.9976 -3323.6475 -17163.082)">
	</pattern>
	<rect x="393.8" y="210.1" class="st4" width="80.8" height="138.5"/>
	<pattern  id="SVGID_10_" xlink:href="#SVGID_4_" patternTransform="matrix(0.7714 0 0 -0.9976 -3278.2339 -17163.082)">
	</pattern>
	<rect x="550.3" y="210.1" class="st5" width="80.8" height="138.5"/>
	<pattern  id="SVGID_11_" xlink:href="#SVGID_5_" patternTransform="matrix(0.7714 0 0 -0.9976 -3230.3201 -17163.082)">
	</pattern>
	<rect x="709.3" y="210.1" class="st6" width="80.8" height="138.5"/>
	<pattern  id="SVGID_12_" xlink:href="#SVGID_6_" patternTransform="matrix(0.7714 0 0 -0.9976 -3183.9062 -17163.082)">
	</pattern>
	<rect x="866.8" y="210.1" class="st7" width="80.8" height="138.5"/>
	<rect x="22.7" y="160.7" class="st8" width="977.3" height="239.4"/>
</g>
<g id="Шар_1_1_">
	<rect x="231.5" y="211.3" class="st0" width="88.9" height="135.2"/>
	<path class="st9" d="M236.2,348.6V210"/>
	<path class="st9" d="M316.3,348.6V210"/>
	<path class="st9" d="M393.9,348.6V210"/>
	<path class="st9" d="M474,348.6V210"/>
	<path class="st9" d="M550.9,348.6V210"/>
	<path class="st9" d="M631.7,348.6V210"/>
	<path class="st10" d="M235.5,334.8l80.8,0.7"/>
	<path class="st11" d="M235.5,248.3l80.8-17.4"/>
	<path class="st12" d="M189.3,211.3"/>
	<path class="st12" d="M189.3,346.5"/>
	<path class="st12" d="M328,346.5"/>
	<path class="st12" d="M189.3,346.5"/>
	<g transform="translate(518.848362 2163.8)scale(0.1 -0.1)">
		<g>
			<path id="ArialMT-20_3_" class="st13" d="M-2580,19571.7"/>
		</g>
		<g>
			<path id="ArialMT-20_2_" class="st13" d="M-2524.5,19571.7"/>
		</g>
		<g>
			<path id="ArialMT-20_1_" class="st13" d="M-2186.3,19571.7"/>
		</g>
	</g>
	<rect x="657" y="213.1" class="st0" width="101.9" height="134.3"/>
	<rect x="657" y="213.1" class="st0" width="101.9" height="134.3"/>
	<g id="patch_33_1_">
		<g>
			<path class="st14" d="M658.4,196.2"/>
			<path class="st14" d="M657.4,354.8"/>
		</g>
	</g>
	<g id="patch_34_1_">
		<g>
			<path class="st14" d="M758.9,347.5"/>
			<path class="st14" d="M657.4,354.8"/>
		</g>
	</g>
	<rect x="74" y="210" class="st0" width="108" height="138.6"/>
	<path class="st9" d="M78.2,348.6V210"/>
	<rect x="75" y="210" class="st0" width="88" height="138.6"/>
	<path class="st9" d="M159,348.6V210"/>
	<g>
		<g>
			<defs>
				<rect id="SVGID_13_" x="75" y="210" width="88" height="138.6"/>
			</defs>
			<clipPath id="SVGID_14_">
				<use xlink:href="#SVGID_13_"  style="overflow:visible;"/>
			</clipPath>
			<path class="st15" d="M79,327.9l80,1.6"/>
		</g>
	</g>
	<g>
		<g>
			<defs>
				<rect id="SVGID_15_" x="75" y="210" width="88" height="138.6"/>
			</defs>
			<clipPath id="SVGID_16_">
				<use xlink:href="#SVGID_15_"  style="overflow:visible;"/>
			</clipPath>
			<path class="st16" d="M79,283.9l80-3.7"/>
		</g>
	</g>
	<path class="st12" d="M75,210"/>
	<path class="st12" d="M75,348.6"/>
	<path class="st12" d="M183,348.6"/>
	<path class="st12" d="M75,348.6"/>
	<g>
		<g>
			<defs>
				<rect id="SVGID_17_" x="547" y="210.4" width="89" height="137.1"/>
			</defs>
			<clipPath id="SVGID_18_">
				<use xlink:href="#SVGID_17_"  style="overflow:visible;"/>
			</clipPath>
			<path class="st17" d="M551,318.6l80.9,0.7"/>
		</g>
	</g>
	<g>
		<g>
			<defs>
				<rect id="SVGID_19_" x="547" y="210.4" width="89" height="137.1"/>
			</defs>
			<clipPath id="SVGID_20_">
				<use xlink:href="#SVGID_19_"  style="overflow:visible;"/>
			</clipPath>
			<path class="st18" d="M551,315.9l80.9-2.7"/>
		</g>
	</g>
	<path class="st9" d="M709.2,348.6V210"/>
	<path class="st9" d="M790,348.6V210"/>
	<path class="st9" d="M867.2,348.6V210"/>
	<path class="st9" d="M948,348.6V210"/>
	<path class="st12" d="M505,192.4"/>
	<path class="st12" d="M520.3,347.5"/>
	<path class="st12" d="M616,347.5"/>
	<path class="st12" d="M520.3,347.5"/>
	<path class="st10" d="M393.4,309.6l80.6,3.2"/>
	<g>
		<g>
			<g>
				<g>
					<defs>
						<rect id="SVGID_21_" x="389.3" y="210.4" width="88.7" height="137.6"/>
					</defs>
					<clipPath id="SVGID_22_">
						<use xlink:href="#SVGID_21_"  style="overflow:visible;"/>
					</clipPath>
					<path class="st19" d="M393.4,265.5l80.6-8.3"/>
				</g>
			</g>
		</g>
	</g>
	<path class="st12" d="M362,210.4"/>
	<path class="st12" d="M400.1,348"/>
	<path class="st12" d="M400.1,348"/>
	<rect x="863.8" y="209.5" class="st0" width="88.2" height="138.5"/>
	<g>
		<g>
			<g>
				<g>
					<defs>
						<rect id="SVGID_23_" x="863.8" y="209.5" width="88.2" height="138.5"/>
					</defs>
					<clipPath id="SVGID_24_">
						<use xlink:href="#SVGID_23_"  style="overflow:visible;"/>
					</clipPath>
					<path class="st20" d="M867.8,340.9l80.1-0.1"/>
				</g>
			</g>
		</g>
	</g>
	<g>
		<g>
			<g>
				<g>
					<defs>
						<rect id="SVGID_25_" x="863.8" y="209.5" width="88.2" height="138.5"/>
					</defs>
					<clipPath id="SVGID_26_">
						<use xlink:href="#SVGID_25_"  style="overflow:visible;"/>
					</clipPath>
					<path class="st21" d="M867.8,327l80.1-2.7"/>
				</g>
			</g>
		</g>
	</g>
	<path class="st12" d="M752,209.5"/>
	<path class="st12" d="M752,348"/>
	<path class="st12" d="M902.5,348"/>
	<path class="st12" d="M752,348"/>
	<g>
		<text transform="matrix(1 0 0 1 238.9239 182.8528)" class="st14 st22 st23">Продавець</text>
	</g>
	<g>
		<text transform="matrix(1 0 0 1 415.8731 182.4397)" class="st14 st22 st23">Водій</text>
	</g>
	<g>
		<text transform="matrix(1 0 0 1 80.6021 182.4397)" class="st14 st22 st23">Тракторист</text>
	</g>
	<g>
		<text transform="matrix(1 0 0 1 570.2523 182.7483)" class="st14 st22 st23">Кухар</text>
	</g>
	<g>
		<text transform="matrix(1 0 0 1 717.5137 182.4397)" class="st14 st22 st23">Інженер</text>
	</g>
	<g>
		<text transform="matrix(1 0 0 1 881.96 182.7054)" class="st14 st22 st23">Швачка</text>
	</g>
	<text transform="matrix(0.9437 0 0 1 68.0723 60.7331)" class="st14 st24 st25 st26">ДЕФІЦИТНІ ПРОФЕСІЇ</text>
	<text transform="matrix(0.9437 0 0 1 65.0723 92.5813)" class="st14 st22 st27">Професії, яким найбільше бракує «свіжої крові». Графіки показують динаміку 2016-2017 років. </text>
	<text transform="matrix(0.9437 0 0 1 65.0723 112.5813)" class="st14 st22 st27">В більшості цих професій скорочується кількість безробітних та зростає кількість вакансій</text>
	<g>
		<text transform="matrix(1 0 0 1 55.9188 406.5127)" class="st14 st22 st28">Дані: Державна служба зайнятості, ДП «Інфоресурс»</text>
	</g>
	<g>
		<text transform="matrix(1 0 0 1 148.8096 204.4608)" class="st14 st24 st29">2017</text>
	</g>
	<g>
		<text transform="matrix(1 0 0 1 67.5538 204.3192)" class="st14 st24 st29">2016</text>
	</g>
	<text transform="matrix(1 0 0 1 95.4097 295.7527)" class="st30 st31 st32">Вакансії</text>
	<text transform="matrix(1 0 0 1 86.3726 342.3045)" class="st33 st31 st32">Випускники</text>
	<g>
		<rect x="28.7" y="249.2" class="st0" width="46" height="89.7"/>
		<text transform="matrix(0.9 0 0 1 51.3052 285.0398)" class="st14 st22 st34">37 850</text>
		<text transform="matrix(0.9 0 0 1 55.9854 328.6399)" class="st14 st22 st34">9 332</text>
	</g>
	<g>
		<rect x="476.4" y="252.5" class="st0" width="30.1" height="89.7"/>
		<text transform="matrix(0.9 0 0 1 476.417 258.2898)" class="st14 st22 st34">55 265</text>
		<text transform="matrix(0.9 0 0 1 476.417 306.2898)" class="st14 st22 st34 st35"> </text>
		<text transform="matrix(0.9 0 0 1 476.417 315.8899)" class="st14 st22 st34">18 927</text>
	</g>
	<g>
		<rect x="344.3" y="252.2" class="st0" width="46" height="89.7"/>
		<text transform="matrix(0.9 0 0 1 366.9722 267.6399)" class="st14 st22 st34">49 831</text>
		<text transform="matrix(0.9 0 0 1 366.9722 313.0398)" class="st14 st22 st34">21 036</text>
	</g>
	<g>
		<rect x="521.3" y="300.6" class="st0" width="26" height="32"/>
		<text transform="matrix(0.9 0 0 1 524.2388 315.9734)" class="st14 st22 st34">16 622</text>
		<text transform="matrix(0.9 0 0 1 523.6987 325.573)" class="st14 st22 st34">14 867</text>
	</g>
	<g>
		<rect x="679.1" y="303.3" class="st0" width="26" height="32"/>
		<text transform="matrix(0.9 0 0 1 681.7217 318.7234)" class="st14 st22 st34">16 455</text>
		<text transform="matrix(0.9 0 0 1 681.4512 328.323)" class="st14 st22 st34">10 196</text>
	</g>
	<g>
		<rect x="838.3" y="322.6" class="st0" width="26" height="32"/>
		<text transform="matrix(0.9 0 0 1 845.6826 328.3733)" class="st14 st22 st34">9 552</text>
		<text transform="matrix(0.9 0 0 1 851.2627 347.573)" class="st14 st22 st34">510</text>
	</g>
	<g>
		<rect x="635.3" y="301.6" class="st0" width="26" height="32"/>
		<text transform="matrix(0.9 0 0 1 635.333 307.3733)" class="st14 st22 st34 st35"> </text>
		<text transform="matrix(0.9 0 0 1 635.333 316.9734)" class="st14 st22 st34">18 370</text>
		<text transform="matrix(0.9 0 0 1 659.0029 316.9734)" class="st14 st22 st34 st36"> </text>
		<text transform="matrix(0.9 0 0 1 635.333 326.573)" class="st14 st22 st34">14 438</text>
	</g>
	<g>
		<rect x="793.3" y="300.8" class="st0" width="26" height="32"/>
		<text transform="matrix(0.9 0 0 1 793.333 306.6233)" class="st14 st22 st34 st35"> </text>
		<text transform="matrix(0.9 0 0 1 793.333 316.2234)" class="st14 st22 st34">18 246</text>
		<text transform="matrix(0.9 0 0 1 816.7324 316.2234)" class="st14 st22 st34 st36"> </text>
		<text transform="matrix(0.9 0 0 1 793.333 325.823)" class="st14 st22 st34">17 064</text>
	</g>
	<g>
		<rect x="951.3" y="318.8" class="st0" width="26" height="32"/>
		<text transform="matrix(0.9 0 0 1 951.333 324.6233)" class="st14 st22 st34">11 273</text>
		<text transform="matrix(0.9 0 0 1 951.333 334.2234)" class="st14 st22 st34 st35"> </text>
		<text transform="matrix(0.9 0 0 1 951.333 343.823)" class="st14 st22 st34">547</text>
	</g>
	<g>
		<rect x="203.3" y="214.2" class="st0" width="28.7" height="138.7"/>
		<text transform="matrix(0.9 0 0 1 208.3716 251.2395)" class="st14 st22 st34">61 175</text>
		<text transform="matrix(0.9 0 0 1 213.3218 337.4392)" class="st14 st22 st34">3 685</text>
	</g>
	<g>
		<rect x="163.7" y="245.2" class="st0" width="46" height="109.7"/>
		<text transform="matrix(0.9 0 0 1 163.667 251.0397)" class="st14 st22 st34 st35"> </text>
		<text transform="matrix(0.9 0 0 1 163.667 283.0398)" class="st14 st22 st34">40 261</text>
		<text transform="matrix(0.9 0 0 1 187.3369 283.0398)" class="st14 st22 st34 st36"> </text>
		<text transform="matrix(0.9 0 0 1 163.667 333.4397)" class="st14 st22 st34">8 289</text>
	</g>
	<g>
		<rect x="320" y="220.2" class="st0" width="46" height="129.7"/>
		<text transform="matrix(0.9 0 0 1 320 226.0397)" class="st14 st22 st34 st35"> </text>
		<text transform="matrix(0.9 0 0 1 320 235.6398)" class="st14 st22 st34">72 738</text>
		<text transform="matrix(0.9 0 0 1 320 328.0398)" class="st14 st22 st34 st35"> </text>
		<text transform="matrix(0.9 0 0 1 320 337.6399)" class="st14 st22 st34">3 224</text>
	</g>
	<g>
		<g>
			<defs>
				<rect id="SVGID_27_" x="705.3" y="213.1" width="88.9" height="134.3"/>
			</defs>
			<clipPath id="SVGID_28_">
				<use xlink:href="#SVGID_27_"  style="overflow:visible;"/>
			</clipPath>
			<path class="st37" d="M709.3,326.1l80.9-10.3"/>
		</g>
	</g>
	<g>
		<g>
			<g>
				<defs>
					<rect id="SVGID_29_" x="705.3" y="213.1" width="88.9" height="134.3"/>
				</defs>
				<clipPath id="SVGID_30_">
					<use xlink:href="#SVGID_29_"  style="overflow:visible;"/>
				</clipPath>
				<path class="st38" d="M709.3,316.8l80.9-2.7"/>
			</g>
		</g>
	</g>
	<g>
		<g>
			<polygon class="st39" points="876.7,399.1 873,399.1 873,409.5 870.5,409.5 870.5,399.1 866.9,399.1 866.9,396.9 876.7,396.9 			
				"/>
			<polygon class="st39" points="877.6,396.9 885,396.9 885,399.1 880.1,399.1 880.1,402 884.6,402 884.6,404.2 880.1,404.2 
				880.1,407.3 885.1,407.3 885.1,409.5 877.6,409.5 			"/>
			<polygon class="st39" points="889.6,403.1 886.1,396.9 889,396.9 891,400.5 891.4,401.8 891.8,400.5 893.8,396.9 896.5,396.9 
				892.9,402.9 896.7,409.5 893.8,409.5 891.6,405.6 891.1,404.3 890.6,405.6 888.4,409.5 885.7,409.5 			"/>
			<polygon class="st39" points="906.8,399.1 903.1,399.1 903.1,409.5 900.7,409.5 900.7,399.1 897,399.1 897,396.9 906.8,396.9 			
				"/>
			<polygon class="st39" points="911.6,404.8 907.5,396.9 910.4,396.9 912.7,401.6 913,402.9 913.1,402.9 913.3,401.6 915.5,396.9 
				918.2,396.9 914.1,404.8 914.1,409.5 911.6,409.5 			"/>
		</g>
		<path class="st40" d="M916.4,408.3c0-0.4,0.1-0.8,0.4-1c0.3-0.2,0.6-0.4,1-0.4c0.5,0,0.8,0.1,1.1,0.4c0.3,0.2,0.4,0.6,0.4,1
			s-0.1,0.8-0.4,1c-0.3,0.3-0.6,0.4-1.1,0.4c-0.4,0-0.8-0.1-1-0.4C916.6,409,916.4,408.7,916.4,408.3"/>
		<path class="st40" d="M920.4,403.2c0-2.1,0.5-3.7,1.4-4.8c0.9-1.1,2.2-1.7,3.9-1.7c0.9,0,1.7,0.2,2.4,0.5s1.2,0.8,1.7,1.3
			c0.4,0.6,0.8,1.3,1,2.1c0.2,0.8,0.3,1.7,0.3,2.7c0,2.1-0.5,3.7-1.4,4.8c-0.9,1.1-2.2,1.7-3.9,1.7c-0.9,0-1.7-0.2-2.4-0.5
			s-1.2-0.8-1.7-1.3c-0.4-0.6-0.8-1.3-1-2.1S920.4,404.2,920.4,403.2 M923,403.2c0,0.6,0.1,1.2,0.2,1.8c0.1,0.5,0.3,1,0.5,1.4
			s0.5,0.7,0.9,0.9c0.3,0.2,0.8,0.3,1.2,0.3c0.9,0,1.6-0.3,2-1c0.5-0.7,0.7-1.8,0.7-3.3c0-0.6,0-1.2-0.1-1.7s-0.3-1-0.5-1.4
			s-0.5-0.7-0.8-0.9c-0.3-0.2-0.8-0.3-1.3-0.3c-0.9,0-1.5,0.4-2,1.1C923.2,400.6,923,401.7,923,403.2"/>
		<path class="st40" d="M932.5,397c0.3,0,0.6-0.1,0.9-0.1c0.3,0,0.6-0.1,1-0.1c0.3,0,0.6,0,0.9-0.1c0.3,0,0.6,0,0.8,0
			c0.6,0,1.2,0.1,1.7,0.2c0.6,0.1,1.1,0.3,1.5,0.6c0.5,0.3,0.8,0.6,1.1,1.1s0.4,1,0.4,1.7c0,1-0.2,1.9-0.7,2.5s-1.1,1.1-1.9,1.3
			l0.9,0.6l2.9,4.8h-2.8l-2.9-4.9l-1.3-0.2v5.2h-2.5L932.5,397L932.5,397z M936.3,398.9c-0.3,0-0.5,0-0.7,0s-0.4,0-0.6,0.1v3.6h1
			c0.7,0,1.2-0.2,1.6-0.5c0.4-0.3,0.6-0.8,0.6-1.5c0-0.5-0.2-1-0.5-1.3C937.4,399.1,936.9,398.9,936.3,398.9"/>
		<path class="st40" d="M946.8,402.9h4.7v5.6c-0.5,0.4-1.1,0.7-1.8,0.9c-0.7,0.2-1.4,0.3-2.1,0.3c-0.8,0-1.5-0.1-2.2-0.4
			s-1.3-0.6-1.8-1.2c-0.5-0.5-0.9-1.2-1.2-2s-0.4-1.8-0.4-2.9c0-1.2,0.2-2.2,0.5-3s0.8-1.5,1.3-2c0.6-0.5,1.2-0.9,1.9-1.1
			s1.4-0.4,2.1-0.4c0.7,0,1.4,0.1,1.9,0.2s1,0.2,1.3,0.3l-0.5,2.1c-0.3-0.1-0.6-0.2-1-0.3c-0.4-0.1-0.8-0.1-1.4-0.1
			c-0.5,0-1,0.1-1.4,0.2c-0.4,0.2-0.8,0.4-1.1,0.8s-0.6,0.8-0.7,1.4c-0.2,0.6-0.3,1.2-0.3,2s0.1,1.4,0.3,1.9s0.4,1,0.7,1.4
			s0.6,0.6,1.1,0.8c0.4,0.2,0.8,0.3,1.3,0.3c0.3,0,0.6,0,0.9-0.1c0.3-0.1,0.5-0.2,0.8-0.3v-2.4l-2.7-0.3v-1.7H946.8z"/>
		<path class="st40" d="M952.6,408.3c0-0.4,0.1-0.8,0.4-1c0.3-0.2,0.6-0.4,1-0.4c0.5,0,0.8,0.1,1.1,0.4c0.3,0.2,0.4,0.6,0.4,1
			s-0.1,0.8-0.4,1c-0.3,0.3-0.6,0.4-1.1,0.4c-0.4,0-0.8-0.1-1-0.4C952.7,409,952.6,408.7,952.6,408.3"/>
		<path class="st40" d="M963.8,396.9h2.3v8.1c0,0.8-0.1,1.5-0.3,2.1s-0.5,1.1-0.9,1.5s-0.9,0.7-1.4,0.8c-0.5,0.2-1.2,0.3-1.8,0.3
			c-3.2,0-4.8-1.5-4.8-4.4v-8.4h2.5v7.9c0,0.5,0,0.9,0.1,1.3c0.1,0.3,0.2,0.6,0.4,0.8c0.2,0.2,0.4,0.4,0.7,0.5s0.6,0.1,1,0.1
			c0.8,0,1.3-0.2,1.6-0.6s0.5-1.1,0.5-2v-8H963.8z"/>
		<path class="st40" d="M973.7,406.7h-3.9l-1,2.8h-2.5l4.5-12.7h1.8l4.5,12.7h-2.6L973.7,406.7z M970.5,404.7h2.7l-0.9-2.8l-0.4-2
			h-0.1l-0.4,2L970.5,404.7z"/>
	</g>
</g>
</svg>
