<?xml version="1.0" encoding="utf-8"?>
<!-- Generator: Adobe Illustrator 22.1.0, SVG Export Plug-In . SVG Version: 6.00 Build 0)  -->
<svg version="1.1" id="Шар_1" xmlns="http://www.w3.org/2000/svg" xmlns:xlink="http://www.w3.org/1999/xlink" x="0px" y="0px"
	 viewBox="0 0 1014 440" style="enable-background:new 0 0 1014 440;" xml:space="preserve">
<style type="text/css">
	.st0{fill:none;}
	.st1{fill:none;stroke:#1D1D1B;stroke-width:0.3;}
	.st2{fill:url(#SVGID_12_);}
	.st3{fill:url(#SVGID_13_);}
	.st4{fill:url(#SVGID_14_);}
	.st5{fill:url(#SVGID_15_);}
	.st6{opacity:0.76;fill:#FFFFFF;enable-background:new    ;}
	.st7{fill:none;stroke:#CCCCCC;stroke-width:0.8;stroke-linecap:square;}
	.st8{fill:#878787;}
	.st9{font-family:'ClearSans';}
	.st10{font-size:15.0908px;}
	.st11{font-size:8.1258px;}
	.st12{fill:#A9B10A;}
	.st13{font-size:11.6083px;}
	.st14{fill:#328DEF;}
	.st15{font-size:8px;}
	.st16{letter-spacing:45.6;}
	.st17{font-family:'ClearSans-Bold';}
	.st18{font-size:31.1574px;}
	.st19{letter-spacing:1.1;}
	.st20{fill:none;stroke:#CCCCCC;stroke-width:0.8;stroke-linecap:round;stroke-linejoin:round;}
	.st21{fill:#328DEF;stroke:#328DEF;stroke-width:4;stroke-linecap:round;stroke-linejoin:round;}
	.st22{fill:none;stroke:#CDD500;stroke-width:4;stroke-linecap:round;stroke-linejoin:round;}
	.st23{font-size:10.4475px;}
	.st24{fill:#3A3F4A;}
	.st25{fill:#6D6E70;}
	.st26{font-size:15px;}
</style>
<pattern  y="440" width="72" height="72" patternUnits="userSpaceOnUse" id="SVGID_10_" viewBox="72.3 -144.2 72 72" style="overflow:visible;">
	<g>
		<rect x="72.3" y="-144.2" class="st0" width="72" height="72"/>
		<g>
			<rect x="72.3" y="-144.2" class="st0" width="72" height="72"/>
			<g>
				<rect x="72.3" y="-144.2" class="st0" width="72" height="72"/>
				<g>
					<rect x="72.3" y="-144.2" class="st0" width="72" height="72"/>
					<g>
						<line class="st1" x1="78.3" y1="-144" x2="78.3" y2="-216.5"/>
						<line class="st1" x1="102.3" y1="-144" x2="102.3" y2="-216.5"/>
						<line class="st1" x1="126.3" y1="-144" x2="126.3" y2="-216.5"/>
						<line class="st1" x1="90.3" y1="-144" x2="90.3" y2="-216.5"/>
						<line class="st1" x1="114.3" y1="-144" x2="114.3" y2="-216.5"/>
						<line class="st1" x1="138.3" y1="-144" x2="138.3" y2="-216.5"/>
					</g>
					<g>
						<line class="st1" x1="144" y1="-138.2" x2="216.5" y2="-138.2"/>
						<line class="st1" x1="144" y1="-114.2" x2="216.5" y2="-114.2"/>
						<line class="st1" x1="144" y1="-90.2" x2="216.5" y2="-90.2"/>
						<line class="st1" x1="144" y1="-126.2" x2="216.5" y2="-126.2"/>
						<line class="st1" x1="144" y1="-102.2" x2="216.5" y2="-102.2"/>
						<line class="st1" x1="144" y1="-78.2" x2="216.5" y2="-78.2"/>
					</g>
					<g>
						<line class="st1" x1="78.3" y1="-72" x2="78.3" y2="-144.5"/>
						<line class="st1" x1="102.3" y1="-72" x2="102.3" y2="-144.5"/>
						<line class="st1" x1="126.3" y1="-72" x2="126.3" y2="-144.5"/>
						<line class="st1" x1="72" y1="-138.2" x2="144.5" y2="-138.2"/>
						<line class="st1" x1="72" y1="-114.2" x2="144.5" y2="-114.2"/>
						<line class="st1" x1="72" y1="-90.2" x2="144.5" y2="-90.2"/>
						<line class="st1" x1="72" y1="-126.2" x2="144.5" y2="-126.2"/>
						<line class="st1" x1="72" y1="-102.2" x2="144.5" y2="-102.2"/>
						<line class="st1" x1="72" y1="-78.2" x2="144.5" y2="-78.2"/>
						<line class="st1" x1="90.3" y1="-72" x2="90.3" y2="-144.5"/>
						<line class="st1" x1="114.3" y1="-72" x2="114.3" y2="-144.5"/>
						<line class="st1" x1="138.3" y1="-72" x2="138.3" y2="-144.5"/>
					</g>
					<g>
						<line class="st1" x1="0" y1="-138.2" x2="72.5" y2="-138.2"/>
						<line class="st1" x1="0" y1="-114.2" x2="72.5" y2="-114.2"/>
						<line class="st1" x1="0" y1="-90.2" x2="72.5" y2="-90.2"/>
						<line class="st1" x1="0" y1="-126.2" x2="72.5" y2="-126.2"/>
						<line class="st1" x1="0" y1="-102.2" x2="72.5" y2="-102.2"/>
						<line class="st1" x1="0" y1="-78.2" x2="72.5" y2="-78.2"/>
					</g>
					<g>
						<line class="st1" x1="78.3" y1="0" x2="78.3" y2="-72.5"/>
						<line class="st1" x1="102.3" y1="0" x2="102.3" y2="-72.5"/>
						<line class="st1" x1="126.3" y1="0" x2="126.3" y2="-72.5"/>
						<line class="st1" x1="90.3" y1="0" x2="90.3" y2="-72.5"/>
						<line class="st1" x1="114.3" y1="0" x2="114.3" y2="-72.5"/>
						<line class="st1" x1="138.3" y1="0" x2="138.3" y2="-72.5"/>
					</g>
				</g>
			</g>
		</g>
	</g>
</pattern>
<pattern  y="440" width="72" height="72" patternUnits="userSpaceOnUse" id="SVGID_11_" viewBox="72.3 -144.2 72 72" style="overflow:visible;">
	<g>
		<rect x="72.3" y="-144.2" class="st0" width="72" height="72"/>
		<g>
			<rect x="72.3" y="-144.2" class="st0" width="72" height="72"/>
			<g>
				<rect x="72.3" y="-144.2" class="st0" width="72" height="72"/>
				<g>
					<rect x="72.3" y="-144.2" class="st0" width="72" height="72"/>
					<g>
						<line class="st1" x1="78.3" y1="-144" x2="78.3" y2="-216.5"/>
						<line class="st1" x1="102.3" y1="-144" x2="102.3" y2="-216.5"/>
						<line class="st1" x1="126.3" y1="-144" x2="126.3" y2="-216.5"/>
						<line class="st1" x1="90.3" y1="-144" x2="90.3" y2="-216.5"/>
						<line class="st1" x1="114.3" y1="-144" x2="114.3" y2="-216.5"/>
						<line class="st1" x1="138.3" y1="-144" x2="138.3" y2="-216.5"/>
					</g>
					<g>
						<line class="st1" x1="144" y1="-138.2" x2="216.5" y2="-138.2"/>
						<line class="st1" x1="144" y1="-114.2" x2="216.5" y2="-114.2"/>
						<line class="st1" x1="144" y1="-90.2" x2="216.5" y2="-90.2"/>
						<line class="st1" x1="144" y1="-126.2" x2="216.5" y2="-126.2"/>
						<line class="st1" x1="144" y1="-102.2" x2="216.5" y2="-102.2"/>
						<line class="st1" x1="144" y1="-78.2" x2="216.5" y2="-78.2"/>
					</g>
					<g>
						<line class="st1" x1="78.3" y1="-72" x2="78.3" y2="-144.5"/>
						<line class="st1" x1="102.3" y1="-72" x2="102.3" y2="-144.5"/>
						<line class="st1" x1="126.3" y1="-72" x2="126.3" y2="-144.5"/>
						<line class="st1" x1="72" y1="-138.2" x2="144.5" y2="-138.2"/>
						<line class="st1" x1="72" y1="-114.2" x2="144.5" y2="-114.2"/>
						<line class="st1" x1="72" y1="-90.2" x2="144.5" y2="-90.2"/>
						<line class="st1" x1="72" y1="-126.2" x2="144.5" y2="-126.2"/>
						<line class="st1" x1="72" y1="-102.2" x2="144.5" y2="-102.2"/>
						<line class="st1" x1="72" y1="-78.2" x2="144.5" y2="-78.2"/>
						<line class="st1" x1="90.3" y1="-72" x2="90.3" y2="-144.5"/>
						<line class="st1" x1="114.3" y1="-72" x2="114.3" y2="-144.5"/>
						<line class="st1" x1="138.3" y1="-72" x2="138.3" y2="-144.5"/>
					</g>
					<g>
						<line class="st1" x1="0" y1="-138.2" x2="72.5" y2="-138.2"/>
						<line class="st1" x1="0" y1="-114.2" x2="72.5" y2="-114.2"/>
						<line class="st1" x1="0" y1="-90.2" x2="72.5" y2="-90.2"/>
						<line class="st1" x1="0" y1="-126.2" x2="72.5" y2="-126.2"/>
						<line class="st1" x1="0" y1="-102.2" x2="72.5" y2="-102.2"/>
						<line class="st1" x1="0" y1="-78.2" x2="72.5" y2="-78.2"/>
					</g>
					<g>
						<line class="st1" x1="78.3" y1="0" x2="78.3" y2="-72.5"/>
						<line class="st1" x1="102.3" y1="0" x2="102.3" y2="-72.5"/>
						<line class="st1" x1="126.3" y1="0" x2="126.3" y2="-72.5"/>
						<line class="st1" x1="90.3" y1="0" x2="90.3" y2="-72.5"/>
						<line class="st1" x1="114.3" y1="0" x2="114.3" y2="-72.5"/>
						<line class="st1" x1="138.3" y1="0" x2="138.3" y2="-72.5"/>
					</g>
				</g>
			</g>
		</g>
	</g>
</pattern>
<pattern  y="440" width="72" height="72" patternUnits="userSpaceOnUse" id="SVGID_8_" viewBox="72.3 -144.2 72 72" style="overflow:visible;">
	<g>
		<rect x="72.3" y="-144.2" class="st0" width="72" height="72"/>
		<g>
			<rect x="72.3" y="-144.2" class="st0" width="72" height="72"/>
			<g>
				<rect x="72.3" y="-144.2" class="st0" width="72" height="72"/>
				<g>
					<rect x="72.3" y="-144.2" class="st0" width="72" height="72"/>
					<g>
						<line class="st1" x1="78.3" y1="-144" x2="78.3" y2="-216.5"/>
						<line class="st1" x1="102.3" y1="-144" x2="102.3" y2="-216.5"/>
						<line class="st1" x1="126.3" y1="-144" x2="126.3" y2="-216.5"/>
						<line class="st1" x1="90.3" y1="-144" x2="90.3" y2="-216.5"/>
						<line class="st1" x1="114.3" y1="-144" x2="114.3" y2="-216.5"/>
						<line class="st1" x1="138.3" y1="-144" x2="138.3" y2="-216.5"/>
					</g>
					<g>
						<line class="st1" x1="144" y1="-138.2" x2="216.5" y2="-138.2"/>
						<line class="st1" x1="144" y1="-114.2" x2="216.5" y2="-114.2"/>
						<line class="st1" x1="144" y1="-90.2" x2="216.5" y2="-90.2"/>
						<line class="st1" x1="144" y1="-126.2" x2="216.5" y2="-126.2"/>
						<line class="st1" x1="144" y1="-102.2" x2="216.5" y2="-102.2"/>
						<line class="st1" x1="144" y1="-78.2" x2="216.5" y2="-78.2"/>
					</g>
					<g>
						<line class="st1" x1="78.3" y1="-72" x2="78.3" y2="-144.5"/>
						<line class="st1" x1="102.3" y1="-72" x2="102.3" y2="-144.5"/>
						<line class="st1" x1="126.3" y1="-72" x2="126.3" y2="-144.5"/>
						<line class="st1" x1="72" y1="-138.2" x2="144.5" y2="-138.2"/>
						<line class="st1" x1="72" y1="-114.2" x2="144.5" y2="-114.2"/>
						<line class="st1" x1="72" y1="-90.2" x2="144.5" y2="-90.2"/>
						<line class="st1" x1="72" y1="-126.2" x2="144.5" y2="-126.2"/>
						<line class="st1" x1="72" y1="-102.2" x2="144.5" y2="-102.2"/>
						<line class="st1" x1="72" y1="-78.2" x2="144.5" y2="-78.2"/>
						<line class="st1" x1="90.3" y1="-72" x2="90.3" y2="-144.5"/>
						<line class="st1" x1="114.3" y1="-72" x2="114.3" y2="-144.5"/>
						<line class="st1" x1="138.3" y1="-72" x2="138.3" y2="-144.5"/>
					</g>
					<g>
						<line class="st1" x1="0" y1="-138.2" x2="72.5" y2="-138.2"/>
						<line class="st1" x1="0" y1="-114.2" x2="72.5" y2="-114.2"/>
						<line class="st1" x1="0" y1="-90.2" x2="72.5" y2="-90.2"/>
						<line class="st1" x1="0" y1="-126.2" x2="72.5" y2="-126.2"/>
						<line class="st1" x1="0" y1="-102.2" x2="72.5" y2="-102.2"/>
						<line class="st1" x1="0" y1="-78.2" x2="72.5" y2="-78.2"/>
					</g>
					<g>
						<line class="st1" x1="78.3" y1="0" x2="78.3" y2="-72.5"/>
						<line class="st1" x1="102.3" y1="0" x2="102.3" y2="-72.5"/>
						<line class="st1" x1="126.3" y1="0" x2="126.3" y2="-72.5"/>
						<line class="st1" x1="90.3" y1="0" x2="90.3" y2="-72.5"/>
						<line class="st1" x1="114.3" y1="0" x2="114.3" y2="-72.5"/>
						<line class="st1" x1="138.3" y1="0" x2="138.3" y2="-72.5"/>
					</g>
				</g>
			</g>
		</g>
	</g>
</pattern>
<pattern  y="440" width="72" height="72" patternUnits="userSpaceOnUse" id="SVGID_9_" viewBox="72.3 -144.2 72 72" style="overflow:visible;">
	<g>
		<rect x="72.3" y="-144.2" class="st0" width="72" height="72"/>
		<g>
			<rect x="72.3" y="-144.2" class="st0" width="72" height="72"/>
			<g>
				<rect x="72.3" y="-144.2" class="st0" width="72" height="72"/>
				<g>
					<rect x="72.3" y="-144.2" class="st0" width="72" height="72"/>
					<g>
						<line class="st1" x1="78.3" y1="-144" x2="78.3" y2="-216.5"/>
						<line class="st1" x1="102.3" y1="-144" x2="102.3" y2="-216.5"/>
						<line class="st1" x1="126.3" y1="-144" x2="126.3" y2="-216.5"/>
						<line class="st1" x1="90.3" y1="-144" x2="90.3" y2="-216.5"/>
						<line class="st1" x1="114.3" y1="-144" x2="114.3" y2="-216.5"/>
						<line class="st1" x1="138.3" y1="-144" x2="138.3" y2="-216.5"/>
					</g>
					<g>
						<line class="st1" x1="144" y1="-138.2" x2="216.5" y2="-138.2"/>
						<line class="st1" x1="144" y1="-114.2" x2="216.5" y2="-114.2"/>
						<line class="st1" x1="144" y1="-90.2" x2="216.5" y2="-90.2"/>
						<line class="st1" x1="144" y1="-126.2" x2="216.5" y2="-126.2"/>
						<line class="st1" x1="144" y1="-102.2" x2="216.5" y2="-102.2"/>
						<line class="st1" x1="144" y1="-78.2" x2="216.5" y2="-78.2"/>
					</g>
					<g>
						<line class="st1" x1="78.3" y1="-72" x2="78.3" y2="-144.5"/>
						<line class="st1" x1="102.3" y1="-72" x2="102.3" y2="-144.5"/>
						<line class="st1" x1="126.3" y1="-72" x2="126.3" y2="-144.5"/>
						<line class="st1" x1="72" y1="-138.2" x2="144.5" y2="-138.2"/>
						<line class="st1" x1="72" y1="-114.2" x2="144.5" y2="-114.2"/>
						<line class="st1" x1="72" y1="-90.2" x2="144.5" y2="-90.2"/>
						<line class="st1" x1="72" y1="-126.2" x2="144.5" y2="-126.2"/>
						<line class="st1" x1="72" y1="-102.2" x2="144.5" y2="-102.2"/>
						<line class="st1" x1="72" y1="-78.2" x2="144.5" y2="-78.2"/>
						<line class="st1" x1="90.3" y1="-72" x2="90.3" y2="-144.5"/>
						<line class="st1" x1="114.3" y1="-72" x2="114.3" y2="-144.5"/>
						<line class="st1" x1="138.3" y1="-72" x2="138.3" y2="-144.5"/>
					</g>
					<g>
						<line class="st1" x1="0" y1="-138.2" x2="72.5" y2="-138.2"/>
						<line class="st1" x1="0" y1="-114.2" x2="72.5" y2="-114.2"/>
						<line class="st1" x1="0" y1="-90.2" x2="72.5" y2="-90.2"/>
						<line class="st1" x1="0" y1="-126.2" x2="72.5" y2="-126.2"/>
						<line class="st1" x1="0" y1="-102.2" x2="72.5" y2="-102.2"/>
						<line class="st1" x1="0" y1="-78.2" x2="72.5" y2="-78.2"/>
					</g>
					<g>
						<line class="st1" x1="78.3" y1="0" x2="78.3" y2="-72.5"/>
						<line class="st1" x1="102.3" y1="0" x2="102.3" y2="-72.5"/>
						<line class="st1" x1="126.3" y1="0" x2="126.3" y2="-72.5"/>
						<line class="st1" x1="90.3" y1="0" x2="90.3" y2="-72.5"/>
						<line class="st1" x1="114.3" y1="0" x2="114.3" y2="-72.5"/>
						<line class="st1" x1="138.3" y1="0" x2="138.3" y2="-72.5"/>
					</g>
				</g>
			</g>
		</g>
	</g>
</pattern>
<g id="back">
	<pattern  id="SVGID_12_" xlink:href="#SVGID_8_" patternTransform="matrix(1 0 0 -1 -63.9 -33665.2031)">
	</pattern>
	<rect x="72.3" y="198.9" class="st2" width="129.3" height="153.3"/>
	<pattern  id="SVGID_13_" xlink:href="#SVGID_9_" patternTransform="matrix(0.9897 0 0 -1 -331.0085 -33665.2031)">
	</pattern>
	<rect x="321" y="198.9" class="st3" width="128" height="153.3"/>
	<pattern  id="SVGID_14_" xlink:href="#SVGID_10_" patternTransform="matrix(0.9897 0 0 -1 -296.7817 -33665.2031)">
	</pattern>
	<rect x="569" y="198.9" class="st4" width="128" height="153.3"/>
	<pattern  id="SVGID_15_" xlink:href="#SVGID_11_" patternTransform="matrix(0.9897 0 0 -1 -261.8882 -33665.2031)">
	</pattern>
	<rect x="817.7" y="198.9" class="st5" width="128" height="153.3"/>
	<rect x="22.7" y="152.7" class="st6" width="977.3" height="239.4"/>
</g>
<g id="Шар_1_1_">
	<path class="st7" d="M-28.3,155.6"/>
	<g>
		<text transform="matrix(1 0 0 1 846.009 174.4398)" class="st8 st9 st10">Економіст</text>
	</g>
	<g>
		<text transform="matrix(1 0 0 1 348.5901 174.4398)" class="st8 st9 st10">Менеджер</text>
	</g>
	<g>
		<text transform="matrix(1 0 0 1 114.486 174.4398)" class="st8 st9 st10">Юрист</text>
	</g>
	<g>
		<text transform="matrix(1 0 0 1 593.3006 174.4398)" class="st8 st9 st10">Обліковець</text>
	</g>
	<g>
		<text transform="matrix(1 0 0 1 190.8096 192.4609)" class="st8 st9 st11">2017</text>
	</g>
	<g>
		<text transform="matrix(1 0 0 1 65.5537 192.3193)" class="st8 st9 st11">2016</text>
	</g>
	<g>
		<text transform="matrix(1 0 0 1 112.1882 355.7527)" class="st12 st9 st13">Вакансії</text>
	</g>
	<text transform="matrix(1 0 0 1 110.1511 232.8045)" class="st14 st9 st13">Випускники</text>
	<g>
		<rect x="765.8" y="298.6" class="st0" width="46" height="89.7"/>
		<text transform="matrix(0.9 0 0 1 788.1494 304.3728)" class="st8 st9 st15">16 877</text>
		<text transform="matrix(0.9 0 0 1 792.8301 348.3728)" class="st8 st9 st15">5 567</text>
	</g>
	<g>
		<rect x="267.8" y="250.6" class="st0" width="46" height="89.7"/>
		<text transform="matrix(0.9 0 0 1 290.7388 276.3728)" class="st8 st9 st15">23 095</text>
		<text transform="matrix(0.9 0 0 1 290.1987 299.3728)" class="st8 st9 st15">18 046</text>
	</g>
	<g>
		<rect x="23.8" y="204.1" class="st0" width="46" height="146.8"/>
		<text transform="matrix(0.9 0 0 1 46.2041 209.8737)" class="st8 st9 st15">41 098</text>
		<text transform="matrix(0.9 0 0 1 50.6143 344.8737)" class="st8 st9 st15">6 154</text>
	</g>
	<g>
		<rect x="516.3" y="216.6" class="st0" width="46" height="146.8"/>
		<text transform="matrix(0.9 0 0 1 538.7041 274.3737)" class="st8 st9 st15">24 641</text>
		<text transform="matrix(0.9 0 0 1 538.9741 287.3737)" class="st8 st9 st15">21 548</text>
	</g>
	<g>
		<rect x="204.8" y="223.1" class="st0" width="46" height="146.8"/>
		<text transform="matrix(0.9 0 0 1 204.8325 228.8737)" class="st8 st9 st15">36 272</text>
		<text transform="matrix(0.9 0 0 1 204.8325 241.8737)" class="st8 st9 st15 st16">  </text>
		<text transform="matrix(0.9 0 0 1 204.8325 346.8737)" class="st8 st9 st15">5 965</text>
	</g>
	<g>
		<rect x="949.4" y="303.7" class="st0" width="29.7" height="45.2"/>
		<text transform="matrix(0.9 0 0 1 949.4453 309.5393)" class="st8 st9 st15">15 525</text>
		<text transform="matrix(0.9 0 0 1 949.4453 335.7395)" class="st8 st9 st15 st16"> </text>
		<text transform="matrix(0.9 0 0 1 949.4453 345.3396)" class="st8 st9 st15">6 208</text>
	</g>
	<g>
		<rect x="453.5" y="253.7" class="st0" width="29.7" height="45.2"/>
		<text transform="matrix(0.9 0 0 1 453.5 259.5393)" class="st8 st9 st15 st16"> </text>
		<text transform="matrix(0.9 0 0 1 453.5 272.5393)" class="st8 st9 st15 st16"> </text>
		<text transform="matrix(0.9 0 0 1 453.5 285.5393)" class="st8 st9 st15">20 614</text>
		<text transform="matrix(0.9 0 0 1 453.5 295.1394)" class="st8 st9 st15">20 349</text>
	</g>
	<g>
		<rect x="701" y="235.7" class="st0" width="29.7" height="101.2"/>
		<text transform="matrix(0.9 0 0 1 701 253.5393)" class="st8 st9 st15 st16"> </text>
		<text transform="matrix(0.9 0 0 1 701 265.5393)" class="st8 st9 st15">25 947</text>
		<text transform="matrix(0.9 0 0 1 701 293.5393)" class="st8 st9 st15 st16"> </text>
		<text transform="matrix(0.9 0 0 1 701 309.5393)" class="st8 st9 st15">15 115</text>
	</g>
	<g>
		<text transform="matrix(0.9437 0 0 1 65.4307 57.8884)" class="st8 st17 st18 st19">ПОПУЛЯРНІ ПРОФЕСІЇ</text>
	</g>
	<polyline class="st0" points="835.8,32.9 834.8,32.9 834.8,35.3 	"/>
	<g>
		<path class="st20" d="M320.8,352.2V199.8"/>
		<rect id="SVGID_41_" x="314.5" y="199.8" class="st0" width="140.5" height="152.4"/>
		<rect id="SVGID_40_" x="314.5" y="199.8" class="st0" width="140.5" height="152.4"/>
		<path class="st20" d="M448.5,352.2V199.8"/>
		<rect id="SVGID_39_" x="314.5" y="199.8" class="st0" width="140.5" height="152.4"/>
		<rect id="SVGID_38_" x="314.5" y="199.8" class="st0" width="140.5" height="152.4"/>
		<rect id="SVGID_37_" x="314.5" y="199.8" class="st0" width="140.5" height="152.4"/>
		<rect id="SVGID_36_" x="314.5" y="199.8" class="st0" width="140.5" height="152.4"/>
		<rect id="SVGID_35_" x="314.5" y="199.8" class="st0" width="140.5" height="152.4"/>
	</g>
	<path class="st20" d="M74.1,352.2V199.8"/>
	<path class="st20" d="M201.8,352.2V199.8"/>
	<rect id="SVGID_34_" x="67.9" y="199.8" class="st0" width="140.1" height="152.4"/>
	<path class="st21" d="M74.2,206.7l127.4,18.8"/>
	<rect id="SVGID_33_" x="67.9" y="199.8" class="st0" width="140.1" height="152.4"/>
	<rect id="SVGID_32_" x="67.9" y="199.8" class="st0" width="140.1" height="152.4"/>
	<path class="st22" d="M74.2,343l127.4,0.7"/>
	<rect id="SVGID_31_" x="67.9" y="199.8" class="st0" width="140.1" height="152.4"/>
	<rect id="SVGID_30_" x="67.9" y="199.8" class="st0" width="140.1" height="152.4"/>
	<rect id="SVGID_29_" x="67.9" y="199.8" class="st0" width="140.1" height="152.4"/>
	<rect id="SVGID_28_" x="67" y="199.8" class="st0" width="140.1" height="152.4"/>
	<rect id="SVGID_27_" x="67" y="199.8" class="st0" width="140.1" height="152.4"/>
	<rect id="SVGID_26_" x="67" y="199.8" class="st0" width="140.1" height="152.4"/>
	<rect id="SVGID_25_" x="67" y="199.8" class="st0" width="140.1" height="152.4"/>
	<rect id="SVGID_24_" x="67" y="199.8" class="st0" width="140.1" height="152.4"/>
	<rect id="SVGID_23_" x="67" y="199.8" class="st0" width="140.1" height="152.4"/>
	<rect id="SVGID_22_" x="67" y="199.8" class="st0" width="140.1" height="152.4"/>
	<g>
		<rect id="SVGID_7_" x="562.5" y="199.8" class="st0" width="140.5" height="152.4"/>
		<path class="st20" d="M568.9,352.2V199.8"/>
		<rect id="SVGID_6_" x="562.5" y="199.8" class="st0" width="140.5" height="152.4"/>
		<path class="st20" d="M696.4,352.2V199.8"/>
		<rect id="SVGID_5_" x="562.5" y="199.8" class="st0" width="140.5" height="152.4"/>
		<rect id="SVGID_4_" x="562.5" y="199.8" class="st0" width="140.5" height="152.4"/>
		<rect id="SVGID_3_" x="562.5" y="199.8" class="st0" width="140.5" height="152.4"/>
		<rect id="SVGID_2_" x="562.5" y="199.8" class="st0" width="140.5" height="152.4"/>
		<rect id="SVGID_1_" x="562.5" y="199.8" class="st0" width="140.5" height="152.4"/>
	</g>
	<path class="st21" d="M319.7,276.9l129.3,9.7"/>
	<path class="st22" d="M319.7,296.6l129.3-9"/>
	<path class="st21" d="M568,283l129,25"/>
	<path class="st22" d="M568,270.9l129-5.1"/>
	<path class="st20" d="M817,352.2V199.8"/>
	<path class="st20" d="M944.7,352.2V199.8"/>
	<path class="st21" d="M816.7,301.2l128.7,5.3"/>
	<path class="st22" d="M816.7,345.3l128.7-2.5"/>
	<g>
		<text transform="matrix(1 0 0 1 70.9598 413.3883)" class="st8 st9 st23">Дані: Державна служба зайнятості, ДП «Інфоресурс»</text>
	</g>
	<g>
		<g>
			<polygon class="st24" points="878.5,406 874.8,406 874.8,416.3 872.3,416.3 872.3,406 868.6,406 868.6,403.8 878.5,403.8 			"/>
			<polygon class="st24" points="879.4,403.8 886.8,403.8 886.8,406 881.8,406 881.8,408.9 886.4,408.9 886.4,411.1 881.8,411.1 
				881.8,414.2 886.9,414.2 886.9,416.3 879.4,416.3 			"/>
			<polygon class="st24" points="891.4,409.9 887.8,403.8 890.8,403.8 892.8,407.4 893.2,408.7 893.6,407.4 895.6,403.8 
				898.3,403.8 894.7,409.8 898.5,416.3 895.6,416.3 893.3,412.5 892.9,411.1 892.4,412.5 890.2,416.3 887.5,416.3 			"/>
			<polygon class="st24" points="908.6,406 904.9,406 904.9,416.3 902.4,416.3 902.4,406 898.8,406 898.8,403.8 908.6,403.8 			"/>
			<polygon class="st24" points="913.4,411.7 909.3,403.8 912.2,403.8 914.5,408.5 914.7,409.8 914.8,409.8 915.1,408.5 
				917.3,403.8 920,403.8 915.9,411.7 915.9,416.3 913.4,416.3 			"/>
		</g>
		<path class="st25" d="M918.2,415.2c0-0.4,0.1-0.8,0.4-1c0.3-0.2,0.6-0.4,1-0.4c0.5,0,0.8,0.1,1.1,0.4c0.3,0.2,0.4,0.6,0.4,1
			s-0.1,0.8-0.4,1c-0.3,0.3-0.6,0.4-1.1,0.4c-0.4,0-0.8-0.1-1-0.4C918.3,415.9,918.2,415.6,918.2,415.2"/>
		<path class="st25" d="M922.2,410.1c0-2.1,0.5-3.7,1.4-4.8c0.9-1.1,2.2-1.7,3.9-1.7c0.9,0,1.7,0.2,2.4,0.5s1.2,0.8,1.7,1.3
			c0.4,0.6,0.8,1.3,1,2.1c0.2,0.8,0.3,1.7,0.3,2.7c0,2.1-0.5,3.7-1.4,4.8c-0.9,1.1-2.2,1.7-3.9,1.7c-0.9,0-1.7-0.2-2.4-0.5
			s-1.2-0.8-1.7-1.3c-0.4-0.6-0.8-1.3-1-2.1C922.3,411.9,922.2,411,922.2,410.1 M924.8,410.1c0,0.6,0.1,1.2,0.2,1.8
			c0.1,0.5,0.3,1,0.5,1.4s0.5,0.7,0.9,0.9c0.3,0.2,0.8,0.3,1.2,0.3c0.9,0,1.6-0.3,2-1c0.5-0.7,0.7-1.8,0.7-3.3c0-0.6,0-1.2-0.1-1.7
			s-0.3-1-0.5-1.4s-0.5-0.7-0.8-0.9c-0.3-0.2-0.8-0.3-1.3-0.3c-0.9,0-1.5,0.4-2,1.1C925,407.5,924.8,408.6,924.8,410.1"/>
		<path class="st25" d="M934.3,403.9c0.3,0,0.6-0.1,0.9-0.1c0.3,0,0.6-0.1,1-0.1c0.3,0,0.6,0,0.9-0.1c0.3,0,0.6,0,0.8,0
			c0.6,0,1.2,0.1,1.7,0.2c0.6,0.1,1.1,0.3,1.5,0.6c0.5,0.3,0.8,0.6,1.1,1.1s0.4,1,0.4,1.7c0,1-0.2,1.9-0.7,2.5s-1.1,1.1-1.9,1.3
			l0.9,0.6l2.9,4.8H941l-2.9-4.9l-1.3-0.2v5.2h-2.5V403.9L934.3,403.9z M938,405.8c-0.3,0-0.5,0-0.7,0s-0.4,0-0.6,0.1v3.6h1
			c0.7,0,1.2-0.2,1.6-0.5c0.4-0.3,0.6-0.8,0.6-1.5c0-0.5-0.2-1-0.5-1.3C939.2,405.9,938.7,405.8,938,405.8"/>
		<path class="st25" d="M948.6,409.8h4.7v5.6c-0.5,0.4-1.1,0.7-1.8,0.9c-0.7,0.2-1.4,0.3-2.1,0.3c-0.8,0-1.5-0.1-2.2-0.4
			s-1.3-0.6-1.8-1.2c-0.5-0.5-0.9-1.2-1.2-2s-0.4-1.8-0.4-2.9c0-1.2,0.2-2.2,0.5-3s0.8-1.5,1.3-2c0.6-0.5,1.2-0.9,1.9-1.1
			s1.4-0.4,2.1-0.4c0.7,0,1.4,0.1,1.9,0.2s1,0.2,1.3,0.3l-0.5,2.1c-0.3-0.1-0.6-0.2-1-0.3c-0.4-0.1-0.8-0.1-1.4-0.1
			c-0.5,0-1,0.1-1.4,0.2c-0.4,0.2-0.8,0.4-1.1,0.8s-0.6,0.8-0.7,1.4c-0.2,0.6-0.3,1.2-0.3,2s0.1,1.4,0.3,1.9s0.4,1,0.7,1.4
			s0.6,0.6,1.1,0.8c0.4,0.2,0.8,0.3,1.3,0.3c0.3,0,0.6,0,0.9-0.1c0.3-0.1,0.5-0.2,0.8-0.3v-2.4l-2.7-0.3v-1.7L948.6,409.8
			L948.6,409.8z"/>
		<path class="st25" d="M954.4,415.2c0-0.4,0.1-0.8,0.4-1c0.3-0.2,0.6-0.4,1-0.4c0.5,0,0.8,0.1,1.1,0.4c0.3,0.2,0.4,0.6,0.4,1
			s-0.1,0.8-0.4,1c-0.3,0.3-0.6,0.4-1.1,0.4c-0.4,0-0.8-0.1-1-0.4C954.5,415.9,954.4,415.6,954.4,415.2"/>
		<path class="st25" d="M965.6,403.8h2.3v8.1c0,0.8-0.1,1.5-0.3,2.1s-0.5,1.1-0.9,1.5s-0.9,0.7-1.4,0.8c-0.5,0.2-1.2,0.3-1.8,0.3
			c-3.2,0-4.8-1.5-4.8-4.4v-8.4h2.5v7.9c0,0.5,0,0.9,0.1,1.3c0.1,0.3,0.2,0.6,0.4,0.8c0.2,0.2,0.4,0.4,0.7,0.5s0.6,0.1,1,0.1
			c0.8,0,1.3-0.2,1.6-0.6s0.5-1.1,0.5-2v-8L965.6,403.8L965.6,403.8z"/>
		<path class="st25" d="M975.5,413.6h-3.9l-1,2.8h-2.5l4.5-12.7h1.8l4.5,12.7h-2.6L975.5,413.6z M972.3,411.6h2.7l-0.9-2.8l-0.4-2
			h-0.1l-0.4,2L972.3,411.6z"/>
	</g>
	<rect x="68.1" y="72.4" class="st0" width="872.9" height="62.5"/>
	<text transform="matrix(0.9437 0 0 1 68.0728 83.2956)" class="st8 st9 st26">На графіку зображені спеціальності, які найбільш популярні серед вступників і за якими кількість випускників </text>
	<text transform="matrix(0.9437 0 0 1 68.0728 103.2956)" class="st8 st9 st26">2017 року, порівняно з попереднім, зменшилася. Серед цих професій найбільш затребуваними виявилися </text>
	<text transform="matrix(0.9437 0 0 1 68.0728 123.2956)" class="st8 st9 st26">обліковці, а найбільше збігаються показники попиту та освіти у менеджерів.</text>
</g>
</svg>
